<?xml version="1.0" encoding="utf-8"?>
<!-- Generator: $$$/GeneralStr/196=Adobe Illustrator 27.6.0, SVG Export Plug-In . SVG Version: 6.00 Build 0)  -->
<svg version="1.1" id="Calque_1" xmlns="http://www.w3.org/2000/svg" xmlns:xlink="http://www.w3.org/1999/xlink" x="0px" y="0px"
	 viewBox="0 0 1920 967.1" style="enable-background:new 0 0 1920 967.1;" xml:space="preserve">
<style type="text/css">
	.st0{fill:#AAD637;}
	.st1{fill:#28C7C4;}
</style>
<path class="st0" d="M1674.2,242.2"/>
<path class="st1" d="M478,503.8c2.5,2.9,7.8,10.8,20.1,13.5c15.8-0.1,55.1,0.4,57,0.6c1.2,0.4,2.5,0.6,3.6,1l0,0
	c1.2,0.6,3.6,1,3.6,1c1.2,0.4,2.5,0.6,3.7,1c1.8,0.4,3.7,1,5.5,1.4c1.8,0.5,13.5,1.8,17.1,2.5c2.5,0.6,19.1,2.3,25,2.3
	c5,0.7,10.2,1.3,15.2,2l0,0c0.5,0.3,5.1,0.4,5.9,0.1c9.3-3,18.9-5.3,27.8-9.1c3.6-1.5,7-3.4,10.5-5.3c0,0,19.7-13.6,22.6-14.9
	c5.6-2.4,13.2-5.6,18.2-2.2c4.3,3,3.4,9.2-1.7,14.4c-4.3,4.2-11.5,15.3-12.1,15.7c-0.8,0.6-1.6,1.4-2.3,2.2c-0.6,0.8-1,1.8-1.4,2.7
	c-1.2,3.2-2.4,6.5-3.6,9.7c-0.5,1.4-3.7,5.6-4.5,7.7c-0.3,0.9-0.8,3.9-0.6,4.4c1.7,4,1.3,6.2,0.5,10.5c-0.7,3.4,0.2,7.9,2.2,9.9
	c3,2.8,2.9,5.6,3,8.8c0,2.3,0.3,4.7,0.5,7.1c0.9,5.7,21.7,5,27.9,5.3c3.1,0.1,10.1,3.9,10.8,4c1.8,0.3,11.2-0.3,11.9-1.4
	c11.9-10.1,23.9-19.7,35.3-30.4c5.9-5.5,10.9-11.9,15.2-18.7c6.7-10.5,14-19.8,25.8-25.2c5-2.3,9.7-5.1,14.3-8.2
	c6.6-4.6,12.7-8,20.5-4.4c3.7,1.7,7.8,3.3,11.9,3c0.8-0.1,20.2-2.3,22.2-2.2c1.3,0.1,2.4,0.7,3.6,1c8.8,1.7,17.7,3.8,26.6,3.4
	c9.3-0.3,46.3-20.3,48.8-26.4c1.7-4.2,3.2-9.8,3.1-16.2c-0.1-2.1-3.2-32.6-7.7-45.1c-0.9-2.4-1.1-4.8-1.7-7.4
	c-0.2-0.9,2.9-18.5,2.6-22.5c-0.3-3.3,0.7-6.6,3.2-9c0.9-0.8,1.6-1.5,1.8-1.8c2.7-3.3,5.6-6.2,7.8-9.7c3.3-5.4,6.6-11.1,8.8-17.1
	c1.4-3.9,2.2-7.8,2.1-12.2c0.1-8.9-2.6-17.8-4-26.6c-0.6-3.9-1.2-13.4-1.5-14.1c-2-8.6-2.8-17.3-1.9-26c-0.1-0.5,1.9-13.8,2.4-15
	c0.3-0.7,0.6-1.3,0.8-2c3.8-12.7,13.5-21,21.8-30.6c8.4-9.7,20.8-13.4,30-21.6c4.2-3.8,9.3-6.6,14.1-9.9c3-2.7,5.7-5.8,8.9-8.1
	c9-6.5,18.2-13.1,27.5-19.2c3.5-2.3,7.7-3.4,11.7-5h0.1c0.8-0.4,1.6-0.9,2.4-1.3c0.7-0.5,1.5-0.9,2.1-1.3c0.7-0.5,1.6-1,2.3-1.5
	c1.7-1.4,3.4-2.9,5.1-4.2c2.1-1.2,4.1-2.4,6.3-3.8c0.9-0.6,1.9-1.3,2.9-1.9c3.3-2.3,6.6-4.7,10.1-7l0,0c0.8-0.4,1.5-0.9,2.3-1.3h0.1
	c0.7-0.5,11.8-7.2,15-8.6l0,0c9.8-8.5,19.3-17,29.1-25.5c3.5-4,6.9-8,10.5-12.1c0.5-0.4,20.1-17.2,21.8-18c0.7-0.5,1.5-1,2.2-1.6
	c0,0,37.8-24.8,49.5-32.1c2.1-1.3,6.1-2.9,7.7-1.8c7.9,5.3,16.2,1.6,24.2,1.8l16-1.4c4.1-0.3,15.5-1.3,18.2-0.8
	c2.3,0.3,42.1,7.1,43.3,7.4c2.5,0.2,21.2,6.9,21.9,7c0,0.4,17.2,6.3,20.6,6.8c8.5,1.5,20.6,7.5,23,8.1c0,0,5.6,0.9,10.8,3.2
	c0.6,0.3,16.4,13.1,24.7,18.6c6.3,3.8,13.9,5.9,18,12.9c0.4,1,3.6,6,4,7c0.7,1.7,3.2,2.1,4.5,3.6c1.9,2.3,5.7,10.7,5.7,10.7
	c1.6,2.9,23.4,42.3,34.2,58.1c0.7,0.1,16,20.6,17.8,22.1c0.5,0.3,12.9,11.5,12.9,11.5c3,1.8,3,1.8,0,0
	c10.9,12.9,23.7,22.4,40.5,25.7c2.4,0.7,4.7,1.4,7.1,2.1c4.7,1.3,31.6,7.3,35,7.7c7.1,0.8,14.6,3.7,21.5,1.5
	c1.3-0.4,35.9,2.1,37.2,2.4c0.7,0.2,7-1.5,8.5-1.8c10.7-2.8,20.7-5.2,30.5-9.6c8.6-3.9,38.7-15.9,44.3-19.6
	c4.9-3.2,18-16.9,18.3-17.2c0.6-0.5,1.4-1.1,2-1.5c6-3.1,12-6.1,18-9.2c1-0.7,2.1-1.4,3.1-2.1c13.4-11.8,25.1-24.6,32.3-41.2
	c1.3-3.1,4.1-5.4,6.1-8.1c0.5-0.7,1-1.4,1.3-2.1c0.7-1.1,1.4-2.1,2.1-3.2c3.1-8.5,6-17,9.3-25.4c3.7-9.5,7.7-19.2,11.6-28.6
	c3.1-7.8,17.1-45.1,17.4-46.2c1.6-6.5,3.1-38.5,3.9-44.3c0.1-1.3,0.3-2.5,0.4-3.8c0.1-1.1,0.1-2.2,0.2-3.2
	c0.3-2.7,0.9-14.9,1.3-16.1c0.6-4.5,7.4-36.4,13.6-48.8c0.9-2,1.4-10.1,0.7-13.2c-3.1-13,2.9-24.4,4-37.5
	c-1.3-8.5-2.3-17.3-3.9-25.9c-0.9-4.8-3-9.3-4.4-14.2c-1.8-6.3-3.2-12.7-5.2-18.9c-3.8-11.6-8.5-22.5-18.4-30.6
	c-5.5-4.4-10.8-9.4-15.1-15c-3.2-4.1-4.5-9.5-6.6-14.4c-0.3-0.7-4.5-8.4-6.2-11.4c-1.5-2.9-3-5.8-4.5-8.7
	c-1.3-1.7-6.9-10.1-8.3-12.2c-1.5-2.2-12.3-17.6-15.9-22.8c-0.4-0.4-5.9-8-8.1-11.3c-5-4.6-10.4-8.9-14.9-13.9
	c-9.6-10.5-40.4-35.4-41.4-36.3l0,0c-1.1-0.8-9.2-7.6-9.6-8.2c-1.6-1.5-3.4-3.1-5-4.7c-0.4-0.3-0.8-0.6-1.2-0.9
	c-0.6-0.4-1.2-0.8-1.9-1.2c-4.6-2.9-17.3-13.5-18-14.1c-0.6,0-13.5-8.8-13.5-8.8c-3.7-3-9.7-7.8-13.5-10.9
	c-5.8-5.2-11.8-10.4-17.6-15.6c-0.3-0.6-3.4-4-4-4.7l-0.3-0.3c-1-1-3.7-3.2-3.7-3.2c-0.8-0.8-1.6-1.5-2.4-2.3l-0.1-0.2
	c-3.3-2.2-25.4-17.1-28.3-19.1c-5.6-4.7-18.9-14.6-19.3-15.5l0,0c-0.6-0.5-5.6-4.2-6.9-5c-1.6-1.1-3.3-2.2-4.8-3.5l0,0l-0.2-0.2
	c-1-0.8-6.8-4.9-8-5.8c-3.6-3.4-7.4-6.8-11.1-10.3c-1.6-1.3-3.2-2.6-4.8-3.9c-0.6-0.3-1.1-0.6-1.7-1c-9.5-3.6-17.6-9.5-25.4-15.9
	c-1.5-0.5-3-1-4.4-1.6c-1.9-1.6-3.7-3.3-5.6-4.9c-0.4-0.4-0.8-0.7-1.4-0.7c-0.5-0.8-1-1.7-1.6-2.6c-0.6-0.6-1.1-1.1-1.7-1.7
	c-0.5-0.4-1-0.6-1.7-0.8l0,0c-1.1-0.9-2.1-1.9-3.2-2.8c-1-0.8-2-1.8-3-2.6c-0.5-0.7-1.1-1.5-1.6-2.2c-0.3-0.5-0.8-0.8-1.5-0.8l0,0
	c-2.2-1.9-4.4-3.8-6.6-5.7l0,0c-0.5-0.7-1-1.5-1.4-2.2c-2.6-1.7-5.2-3.4-7.8-5.1c-2.9-2.3-5.6-4.7-8.5-7c-1-1.1-2-2.1-3-3
	c-1.7-1-25.9-13.5-28.2-14.9c-5.3-2.1-30.7-13.8-42.3-17.7c-2.5-0.4-15.4-4.1-16.5-4.7c-1.3,0-27.2-9-31-10.3
	c-1.8-0.4-56.2-20.2-59.3-21.3l-12.7-4.6c-2.8-0.8-7.6-2.2-10.6-3l-0.5-0.1c-1.8-0.6-3.8-1.4-5.7-2c0.3,0.5-21.1-5.9-21.2-6.5
	c-4.3-1.6-8.6-3.1-13-4.6c-0.4,0.4-1.8-0.4-1.9-0.9c-6-1.7-24-7.2-27-8.3c-0.7,0.2-19.9-5.6-20-6.1c-3.1-0.7-6.2-1.5-9.3-2.1
	c-6.9-1.4-24.5-6-24.9-6.5c-0.4,0.5-10.4-1-14.1-1.5c-0.1,0.3-12.1-0.4-17.7-1.1c-0.1,0.6-24.2-2.8-27.6-3.1
	c-17.6-1.4-73.9-8.4-75.7-9.1c-1.2-0.3-2.4-0.4-3.7-0.7c-1.4,0.4-21.1,0.1-21.7-0.4c-1.3,0-2.6-0.2-3.9-0.2c-0.4,0.5-26-0.4-29-1.1
	c0,0-45.2-2.9-48.4-3.7c-1.2-0.2-6,0.2-7,0.3c-12.4,0.8-39.5,2-40.7,1.8c0,0-24.6,2.4-27.7,2.4c-0.1,0.6-5.9,1.7-6.9,1.4
	c0,0-10.8,1.8-12,1.7c-0.8,0.2-1.5,0.3-2.3,0.4c-3.3,0.3-6.6,0.8-10.1,1.1c-0.1,0-7.3,1.3-7.4,1.4c-2.8,0.4-8,0.9-9.2,0.7
	c-0.3,0.5-4,0.9-5.6,0.7c-3.2,0.9-6.4,2-9.7,2.7c-13.6,3.1-27.3,6.1-41,9c-2.2,0.6-4.5,1.3-6.7,1.9c0,0-1.8,1-2.6,1.5
	c-1.2,0.4-2.3,0.7-3.5,1.1c-1.5,0.1-2.9,0.2-4.4,0.4l0,0c-1.3,0.5-2.6,1-3.9,1.4l0,0l0,0c-1,0.3-1.9,0.7-2.8,1.1
	c-0.6-0.2-1.1,0-1.5,0.5c-0.7,0.3-1.4,0.5-2.1,0.8h-0.1c-1.4,0.2-3,0.4-4.4,0.6c-0.7,0.4-1.3,0.8-2,1.2c-1.4,0.4-2.8,0.7-4.2,1.2
	c-2.8,0.7-5.5,1.6-8.3,2.3c-0.8,0.3-1.5,0.5-2.3,0.8l0,0c-2,0.7-3.8,1.3-5.8,2l-0.5,0.1c-2.7,0.7-14.6,4.7-17.3,5.4h-0.1
	c-0.9,0.4-1.9,0.7-2.7,1.1c-0.7,0.4-1.3,0.7-2,1.1c-3.4,1.2-19.3,4-23.1,6.2l0,0c-0.8,0.4-1.6,0.8-2.4,1.3h0.1
	c-1.3,0.4-2.6,0.8-3.8,1.2l-0.4,0.1c-1,0.2-1.9,0.4-2.9,0.7c-1.2,0.4-2.4,0.8-3.5,1.2c-2.2,0.7-4.4,1.4-6.5,2.1l0,0
	c-2.1,0.8-4.2,1.7-6.2,2.5h-0.1l0,0c-0.8,0.4-1.6,0.7-2.4,1.1h0.1c-1.3,0.4-2.6,0.8-3.9,1.2h-0.2l0,0l0,0l0,0l0,0
	c-0.8,0.4-1.5,0.7-2.4,1.1l0,0c-0.9,0.3-3.8,1-4.3,1.4c-0.8,0.3-1.5,0.5-2.3,0.8l0,0c-1,0.3-1.9,0.6-2.9,1c-1.2,0.4-2.5,0.9-3.6,1.3
	c-1.3,0.3-2.6,0.7-3.9,1h-0.2c-2.1,0.7-4.1,1.5-6.2,2.2l-0.3,0.1c-0.8,0.3-1.5,0.7-2.3,1h0.1c-1.3,0.3-2.7,0.7-4,1h-0.1
	c-0.8,0.4-1.6,0.7-2.4,1.1l0,0c-2.1,0.8-4.2,1.7-6.2,2.5h-0.1c-2.1,0.8-4.1,1.5-6.3,2.3l-0.2,0.1c-0.8,0.4-1.4,0.7-2.2,1.1h-0.2
	c-0.8,0.4-1.5,0.8-2.4,1.2l0,0c-0.9,0.4-1.7,0.8-2.5,1.2h0.2c-0.8,0.5-1.6,0.9-2.4,1.4l0,0c-3.7,1.6-7.4,3.3-11.2,4.9h0.1
	c-1.2,0.5-2.4,1-3.6,1.5c-0.9,0.5-1.9,1.1-2.8,1.6c-0.7,0.3-1.5,0.5-2.1,0.9l0,0c-0.9,0.4-1.6,0.7-2.5,1.1l0,0
	c-2.2,0.8-4.3,1.5-6.5,2.3l0,0c-1.8,0.8-7.6,3.8-8.3,4.1l-0.4,0.2c-0.7,0.4-1.2,0.7-1.9,1.1c-1,0.4-1.8,0.9-2.8,1.4
	c-0.8,0.4-1.6,0.8-2.4,1.2h0.1c-0.7,0.5-2.8,1.3-2.8,1.3c-0.7,0.4-1.2,0.8-1.9,1.2l-0.4,0.2c-0.6,0.5-1.3,0.8-1.9,1.3
	c-0.2,0.5-2.1,2.7-3,3.3c0,0,0.1,0,0.1-0.1c-1.5,1-10.7,7.3-12.3,8.4l0,0l0,0l0,0c-0.8,0.5-1.7,0.9-2.5,1.4
	c-0.6,0.5-1.3,0.9-1.9,1.3c-0.8,0.5-1.6,1.1-2.4,1.6c-2.5,1.6-5.1,3.4-7.6,5c-1.3,0.9-3.4,2.5-4.6,3.5l-2.7,2.3
	c-1.6,1.2-3.3,2.3-4.8,3.5c-0.7,0.6-1.3,1.2-2,1.7c-0.7,0.4-4.6,3.3-5.4,4.1l0.2-0.1c-0.7,0.6-2.7,1.6-2.7,1.6
	c-0.5,0.4-1.2,0.9-1.7,1.3c-0.2,0.6-11.4,9.2-13,10.3l0,0c-0.8,0.5-1.6,0.9-2.4,1.4l0.3-0.2c-0.9,0.5-5.6,2.3-6.4,2.6
	c-0.9,0.4-1.6,0.8-2.5,1.2l0.2-0.1c-0.7,0.5-1.6,0.9-2.3,1.4l0,0c-2.9,1.4-5.8,2.7-8.5,4.1c-0.8,0.5-1.6,1-2.4,1.5
	c-0.8,0.4-1.4,0.7-2.2,1.2h-0.2c-0.9,0.3-1.8,0.6-2.7,0.9c-1.4,0.8-2.9,1.7-4.3,2.6c-2,1-4,1.9-6.1,2.9l-0.3,0.2
	c-0.8,0.3-1.4,0.6-2.2,0.9H434c-1.1,0.3-5.6,2-6.3,2.3h-0.2c-1.6,0.8-3.2,1.6-4.8,2.4c-1.2,1-6.1,3.9-6.8,4.3h-0.1
	c-0.9,0.4-1.6,0.8-2.5,1.2c-0.7,0.5-1.4,0.8-2.1,1.3c-0.9,0.4-2.4,1.2-2.4,1.2l0,0l0,0l0,0c-0.7-0.1-3.9,2.4-4.8,2.9
	c-0.7,0.5-1.5,0.9-2.1,1.3c-0.8,0.5-2.4,1.3-2.4,1.3s-3.8,2.3-4.7,2.8c-0.7,0.5-1.6,0.9-2.3,1.4l0,0c-1.6,0.9-3.1,1.8-4.7,2.7h0.1
	c-0.7,0.5-1.5,1-2.2,1.5h-0.1c-0.8,0.4-1.6,0.8-2.4,1.2c-0.7,0.5-1.5,1-2.2,1.5l0,0c-0.5-0.1-17.1,12.4-17.9,12.9
	c-1.7,2.1-5.8,5.3-5.8,5.3c-2.1,2.3-16,12.3-17.2,13.1c0,0-14.6,10.9-20.9,18c-0.7,0.8-8.3,9.2-9.5,11.1c-0.7,0.9-18,19.4-19.1,20.4
	l0.2-0.1c-0.6,0.6-4.1,4.3-4.9,4.9l-0.1,0.1c-0.5,0.4-6.8,7.7-8.4,9.4l0,0c-0.9,1.1-4.9,5.6-5.7,6.4c0,0-2.3,2.1-3.2,2.8
	c-9.1,11.1-43.2,50.5-47.2,56.4c-2.3,3.4-4.9,6.6-7.3,9.9c-0.5,0.5-3,4.5-3.7,6c-1.6,2-3.2,3.9-4.7,5.8c-4.2,5.4-8.3,11-12.5,16.4
	c-0.8,1-1.7,2.2-2.6,3.2c-0.8,1.8-1.6,3.4-2.4,5.2c-0.5,0.6-1,1.2-1.5,1.8c-0.6,1-1.2,2.1-1.8,3.1c-2.2,4.3-4.5,8.7-6.7,13.1
	c-0.8,0.8-1.5,1.5-2.2,2.3c-3.3,5-14.5,19.6-15.2,20.3c-0.1,0.3-4.1,6.1-5.8,7.7c-1.5,2.9-3,5.8-4.5,8.6c-0.3,0.6-2.5,4.2-3.3,5
	c-1.9,2.1-3.7,4.2-5.6,6.4l-4.2,6.6c-1.5,1.7-14.5,20.9-15.3,21.7h0.1l0,0c-1.1,1.6-4.6,6-5.3,6.6c-0.8,2.3-24.8,35.7-25.2,36.4
	c-2.5,4-4.7,8.2-7.1,12.3c-3.4,4.8-7.9,9-8.3,15.6c-0.2,0.6-0.5,1.2-0.7,1.7c-1,1.7-1.9,3.4-2.9,5.1c-0.4,0.4-0.7,0.9-0.8,1.5
	c-3.4,8.3-22.3,49.2-22.8,49.3c-0.7,2.4-1.4,4.9-2.3,7.3C45.4-34,41-25.5,39.6-23c-1.3,4.2-2.5,8.4-3.8,12.9
	c-0.7,1.7-1.4,3.4-1.9,5.1l0,0C32.3-0.7,31,3.5,29.5,7.8c-2.6,9-5.2,18.2-7.9,27.2c-0.5,1.3-0.8,2.5-1.3,3.8
	c-0.3,0.7-0.4,1.4-0.7,2.1c-0.3,1.1-0.7,2.3-0.9,3.4c-0.4,1.9-1,3.7-1.4,5.6c-0.5,1.8-1.1,3.5-1.6,5.4c-1.1,4.9-2.3,9.9-3.4,15
	c-2.1,5.3-3.9,11.4-5.6,17.4c-0.7,3-1.5,6.2-2.2,9.2c-0.7,2.5-1.3,5.1-2,7.6c-0.2,1.2-0.4,2.4-0.5,3.7c-1.8,8.7-3.7,17.5-5.5,26.2
	c-0.5,0.5-0.6,1.1-0.3,1.7c-0.2,1.2-0.2,2.4-0.3,3.7c-2.2,10.8-6.1,43.9-6.9,49.5c0,3.2-3.1,28.2-2.1,34.8c-0.2,2.6-0.3,5.2-0.5,7.8
	c0.1,6,1.1,34.4,0.9,35.7c0.2,5.4,0.3,10.8,0.4,16.2c-0.1,0.7,0.1,1.3,0.3,1.8c0.2,1.3,0,11.9-0.2,15.8c-0.1,4.6-0.4,9.2-0.5,13.9
	c0.2,2,1,45.9,1.1,47.9c-0.1,8.8,5.2,67.2,5.4,70c0.6,4,0.5,8.2,1.7,12.2c0.5,1.6,3.7,15.8,5.1,21.3C1,468.8,2,493.3,1,498.3
	c0.3,0.8,2.4,14.4,1.9,18.6c0.4,2.6,0.7,5.1,1.1,7.8c0.3,0.8,0.6,1.6,0.9,2.4l0,0c1.1,5.8,6.6,33.2,7,33.6c1.9,2,4,4,5.9,6
	c0.3,0.6,0.7,1.2,1,1.8l0,0c2.2,3,31.9,28.7,43.6,39.1c3.3,2.2,6.6,4.3,9.9,6.6v-0.1c0.6,0.6,1.2,1.2,1.8,1.8c2.3,0.9,4.7,1.8,7,2.7
	l8.6,5.3c4.3,1.1,14.7,4.7,14.7,4.7c3.6,1.4,7.1,2.8,10.8,4.2l5.6,1.2c0.7,0.2,1.9,0.4,2.6,0.6l4.7,1.3c2,0.2,4,0.3,5.9,0.5
	c4.3,1,8.5,2,12.9,3c2.6,0.3,44.6,7.9,45.2,8.2c1.2,0.1,2.3-0.1,3.4-0.6c2.8-1.1,5.9-1.1,8.9-0.7c7.3,0.9,11.7-2.2,17.1-4.9
	c0.1-0.6,14.8-7.6,17-11.7c1.7-3.2,5.2-5.2,6.9-8.4c1.1-2.1,0.8-4.8,2-6.8c1-1.8,7.4-5.4,8.7-6.4c1.5-1.1,2.4-2.6,3.3-4.2
	c2.3-4.4,4.6-8.9,6.8-13.4c6.7-16.5,10.9-33.4,8.6-50.9c-0.1-0.8-0.2-1.7-0.2-2.5c-0.1-0.6-0.4-1.1-0.4-1.7
	c-0.3-0.8-3.2-14.1,0.8-19.4c0.7-1.2,4-7.5,4.5-7.8c12-8.1,23.9-16.4,35.8-24.7c5.6-3.9,26.3-19.3,26.9-19.2
	c0.9-2.7,25.8-9.5,27-10.1c11.1-5,33.6-8.9,35.3-8.7c1.9,0.3,37,5.4,39.7,6.4c2.5,0.9,5.8,1.9,7.1,3.8c2.9,4.5,4.7,9.8,7.1,14.7
	L478,503.8z"/>
<rect y="-278.4" class="st1" width="600" height="500"/>
</svg>
