<?xml version="1.0" encoding="utf-8"?>
<!-- Generator: $$$/GeneralStr/196=Adobe Illustrator 27.6.0, SVG Export Plug-In . SVG Version: 6.00 Build 0)  -->
<svg version="1.1" id="Calque_1" xmlns="http://www.w3.org/2000/svg" xmlns:xlink="http://www.w3.org/1999/xlink" x="0px" y="0px"
	 viewBox="0 0 1920 800" style="enable-background:new 0 0 1920 800;" xml:space="preserve">
<style type="text/css">
	.st0{fill:#28C7C4;}
</style>
<path class="st0" d="M-5.2,716.7C7,693.3,43.6,688,63.7,677.4c15.6-5.7,43.9-19.3,59.1-21.9c16-2.8,48.1-21,61.8-25.8
	c13.7-6,60.7-34.9,73.2-42.3c30.2-15.9,83.1-39.7,117.9-50.6c18.2-7,80.8,7.4,95.4,9.8c32.7,4.6,185.3,25.2,209.6,25.4
	c19,6.7,71.9,9.3,93.9,6.3c49-25.2,99.9-58,140.6-97.5c31.8-44.2,32.2-63.8,33.3-107.6c-6.6-8.8,12.2-48.5,23.5-59.8
	c20.2-25.8,39.9-32,68.2-58.1c32.6-20.6,74.7-51.4,109.8-66.7c19.8-8.8,43.2-10.4,60.2-23.9c4.8-5.4,10.4-7.1,17.2-7.5
	c41.2-5.5,76.2-24.2,115.4,5.7c47.6,41.6,81.9,125.1,119.4,175.9c16.2,27.1,31.3,57.5,57.9,77.4c34.7,33.4,93.7,33.3,139.5,34.2
	c39.4-18.3,84.6-22.4,126.8-26c55.3-14.6,109.9-45.5,112.5-120.9c0.3-3.1,4.3-19.6,6.3-24.5c6.9-16.9,24-70.8,33.2-87.1
	c8.9-14.5,24.6-39.3,29.4-57.3c2.3-8.1,14-6.5,15.4,2.1c-0.6-22.8-14.2-49.8-18.9-87.4c-3.7-25.8-16.5-50.4-22.8-77.5
	c-27.2,12.8-29.2,58.1-40.6,91.2c-2.4,15.9-15.3,45.5-16.3,55c-5.6,16.9-14.3,47.4-21.2,65.6c-8.7,14-34,50.9-46.2,67.7
	c-22.2,34.7-53.2,67.3-95.1,75.1c-26.6,20.4-57.2,29.5-91.8,29.9c-45-15.1-109.7-17.9-133.7-64.3c0.5,0.3,0.8,1.1,1.3,1.3
	c-8.5-7.8-19.5-32.1-23.8-41.6c-13.9-37.7-18.4-64.6-29.6-89.7c-6.1-11.1-31.8-33.9-34.8-40.8c-13.7-9.2-35.5-20.6-49.4-30.6
	c-11.6-9.4-48.6-33.5-63.9-39.5c-17.4-5.9-42.2-1.6-57.9-13.2c-15.7-1.6-63.1,21.8-67,21.7c-30.7,13-57.9,38.4-89.8,46.2l-2.4,0.7
	c-35.9,14.2-73,23.2-106.9,41.1c-23.2,9-49.1,17.9-63.2,39.6c-15.2,25.1-19.1,62.8-23.3,91c-3.6,20.6-27,27.5-34.9,43.8
	c-0.1,3.9-7.5,20.6-7.5,21.9c1.4,61.6,7.4,74-56.9,78c-15.9-3.7-34.6-14.8-51.3-14.4c-20.7-13.5-26.3-7.9-48.5-1
	c-33.5,13.5-56.7,45-92.1,56.9c-7.6,1.9-7.4,1.4-14.9-3.2c-10.2-3.3-34.8-0.4-27.8-13.9c2.8-6.5-4.7-12.4-0.9-19.7
	c3.2-4.9,0.5-9.7,3.7-14.6c6.9-5.6,9.2-15,16.9-19.6c2.2-4.1,34.9-27.3,26.4-36.4c-9.8-9.1-35.7,5-44.2,7.2
	c-14.8,4.2-32.1,7-47.3,4.3c-23.1-8.8-49.2-14.6-68.9-26.3c-54.1-20.5-74.9,12.9-91.5-62.6c1.3-25.1-33-27.9-47.7-36.3
	c-10.5-1.5-60.1-10.4-75.1-5.7c-19.6,10.9-63.4,1.1-81.3,17.5c-5.1,4.6-5.6,18.2-5.4,19c-1,25.9-15.4,50.8-34.4,68
	c-5.3,1.2-11.9,5-13.6,10.7c-5.4,6.4-22.8,13.2-28.1,14.4c-20.9,8.2-41,17.5-61.2,9.5c-9.3-4.9-20.5-8.8-29.9-13.7
	c-11.6-8.1-28.2-16.8-37.9-28.5c-12.9-12-38.5-51.3-42.6-57.5c-0.7-3.7-8.2-9.6-10-12.5c0.8,52.7,25.9,183.7,32.9,253.5
	c4.5,78.4,44,184.6,92.5,261C-9.6,766.6-8.9,728.6-5.2,716.7L-5.2,716.7z"/>
<path class="st0" d="M80.5,326c0,0,0.1,0,0.1,0.1C80.5,326.1,80.5,326,80.5,326z"/>
</svg>
