<?xml version="1.0" encoding="utf-8"?>
<!-- Generator: $$$/GeneralStr/196=Adobe Illustrator 27.6.0, SVG Export Plug-In . SVG Version: 6.00 Build 0)  -->
<svg version="1.1" id="Calque_1" xmlns="http://www.w3.org/2000/svg" xmlns:xlink="http://www.w3.org/1999/xlink" x="0px" y="0px"
	 viewBox="0 0 1920 869.9" style="enable-background:new 0 0 1920 869.9;" xml:space="preserve">
<style type="text/css">
	.st0{fill:#AAD637;}
</style>
<path class="st0" d="M1674.2,520.6"/>
<path class="st0" d="M431.7,669.1c1.7,3.3,5.1,11.7,16,16.9c14.8,3.3,51.5,12.1,53.2,12.7c1.1,0.6,2.2,1.1,3.2,1.7l0,0
	c1,0.8,3.2,1.7,3.2,1.7c1.1,0.6,2.2,1.1,3.3,1.7c1.6,0.8,3.3,1.7,4.9,2.5c1.6,0.9,12.2,4.6,15.5,6c2.2,1.1,17.4,6.2,22.9,7.5
	c4.6,1.7,9.2,3.4,13.8,5.1c0,0,0,0,0,0c0.4,0.4,4.7,1.5,5.5,1.3c9.4-0.8,18.8-1,28-2.6c3.7-0.6,7.3-1.7,10.9-2.8
	c0,0,21.3-8.5,24.3-9.1c5.8-1.1,13.5-2.5,17.5,1.8c3.4,3.7,1.2,9.4-4.7,13.1c-4.9,3-14,11.9-14.6,12.1c-0.9,0.4-1.8,1-2.6,1.6
	c-0.7,0.6-1.3,1.5-1.9,2.2c-1.8,2.8-3.6,5.6-5.5,8.4c-0.8,1.2-4.7,4.5-5.9,6.3c-0.5,0.8-1.6,3.5-1.5,4c0.8,4.1-0.1,6.1-1.8,9.9
	c-1.4,3-1.5,7.5,0,9.8c2.2,3.3,1.5,5.9,0.9,8.9c-0.5,2.2-0.7,4.5-1,6.8c-0.4,5.6,19.3,9.3,25,10.9c2.9,0.8,8.6,5.8,9.2,6
	c1.6,0.7,10.5,2.1,11.4,1.2c13.2-6.9,26.6-13.4,39.5-20.9c6.7-3.9,12.7-8.8,18.2-14.3c8.5-8.4,17.3-15.6,29.5-18.1
	c5.2-1.1,10.2-2.7,15.1-4.7c7.2-2.9,13.6-4.8,20.1,0.2c3.1,2.4,6.6,4.8,10.5,5.4c0.8,0.1,19.4,2.1,21.3,2.7c1.2,0.4,2.1,1.2,3.2,1.7
	c7.9,3.5,15.8,7.3,24.2,8.9c8.8,1.7,47.7-9.2,51.4-14.4c2.5-3.6,5.1-8.5,6.4-14.5c0.4-2,3.9-31.2,2.3-43.9c-0.3-2.4,0-4.8,0-7.3
	c0-0.9,6.7-16.7,7.2-20.5c0.4-3.2,2.1-6.1,4.9-7.8c1-0.6,1.8-1.1,2.1-1.3c3.2-2.5,6.6-4.6,9.4-7.5c4.3-4.4,8.6-8.9,11.9-14.1
	c2.2-3.4,3.7-6.9,4.6-10.9c2-8.4,1.3-17.2,1.9-25.8c0.3-3.8,1.7-12.8,1.6-13.5c0-8.5,1-16.8,3.8-24.8c0-0.5,4.7-12.5,5.4-13.5
	c0.4-0.6,0.8-1.1,1.2-1.7c6.3-11,17.1-16.8,26.9-24c10-7.3,22.3-8.1,32.7-13.9c4.8-2.7,10.2-4.2,15.3-6.3c3.4-1.9,6.6-4.2,10.1-5.7
	c9.9-4.2,19.8-8.4,29.9-12.1c3.8-1.4,8-1.5,12-2.2c0,0,0.1,0,0.1,0c0.8-0.2,1.7-0.5,2.5-0.7c0.8-0.3,1.6-0.5,2.3-0.8
	c0.8-0.3,1.7-0.6,2.5-0.9c1.9-1,3.8-2,5.7-2.9c2.2-0.7,4.4-1.4,6.7-2.2c1-0.4,2.1-0.8,3.1-1.2c3.6-1.5,7.2-3,10.9-4.5c0,0,0,0,0,0
	c0.8-0.2,1.6-0.5,2.4-0.7l0.1,0c0.8-0.3,12.6-4.3,15.9-4.9l0,0c11-5.9,21.7-11.8,32.7-17.7c4.1-3,8.2-6.1,12.4-9.1
	c0.6-0.3,22.5-11.8,24.2-12.2c0.8-0.3,1.6-0.6,2.4-1c0,0,40.7-15.2,53.2-19.5c2.3-0.8,6.4-1.4,7.6-0.1c6.3,6.7,14.8,4.9,22.3,6.8
	l15.3,2.1c3.9,0.6,14.8,2.1,17.2,3.1c2.1,0.8,37.9,15.6,39,16.2c2.3,0.7,18.4,11,19,11.2c-0.1,0.4,14.7,9.6,17.8,10.8
	c7.7,3.2,17.7,11.4,19.8,12.5c0,0,5.1,2,9.4,5.3c0.5,0.4,12.6,15.7,19.2,22.7c5.1,4.9,11.7,8.5,14.1,15.9c0.2,1,2.1,6.4,2.3,7.5
	c0.3,1.8,2.6,2.7,3.5,4.4c1.3,2.6,3.1,11.2,3.1,11.2c0.9,3.1,12.9,44.6,19.6,61.7c0.6,0.2,10.6,22.7,12,24.5
	c0.4,0.4,9.6,13.5,9.6,13.5c2.4,2.3,2.4,2.3,0,0c7.4,14.3,17.5,26,32.5,32.7c2.1,1.2,4.1,2.3,6.2,3.5c4.2,2.2,28,13.6,31.1,14.7
	c6.5,2.3,12.9,6.6,19.8,6c1.3-0.1,33.2,9.6,34.3,10.2c0.6,0.3,6.9,0.1,8.4,0.1c10.6-0.4,20.5-0.5,30.6-2.6
	c8.9-1.8,39.6-6.6,45.7-8.9c5.3-2,20.4-12,20.8-12.2c0.7-0.3,1.5-0.7,2.2-1c6.3-1.6,12.5-3.2,18.8-4.8c1.1-0.4,2.3-0.9,3.4-1.3
	c15-8.2,28.8-17.7,39-31.7c1.9-2.6,5-4.2,7.5-6.3c0.6-0.6,1.2-1.1,1.7-1.7c0.9-0.9,1.8-1.7,2.7-2.6c4.7-7.3,9.3-14.6,14.2-21.8
	c5.5-8.2,11.3-16.3,16.9-24.4c4.6-6.7,25.6-38.6,26.1-39.6c2.9-5.8,11.1-35.4,13.1-40.7c0.4-1.2,0.8-2.3,1.2-3.5c0.3-1,0.6-2,0.9-3
	c0.9-2.5,4-13.7,4.6-14.8c1.5-4.1,14.7-32.5,23.1-42.9c1.3-1.7,3.5-9.1,3.5-12.2c-0.2-12.8,7.9-22.3,11.7-34.3
	c0.6-8.3,1.5-16.7,1.8-25.1c0.2-4.7-0.8-9.4-1.1-14.2c-0.4-6.3-0.3-12.5-0.9-18.8c-1.1-11.6-3.2-22.9-10.7-32.5
	c-4.2-5.3-8.1-11.1-10.9-17.2c-2.1-4.5-2.2-9.9-3.1-14.9c-0.1-0.7-2.4-8.9-3.4-12c-0.8-3.1-1.6-6.1-2.4-9.2
	c-0.9-1.9-4.4-10.9-5.2-13.2c-0.9-2.4-7.7-19.1-10-24.7c-0.3-0.5-3.8-8.8-5.2-12.3c-3.7-5.4-7.8-10.6-11-16.2
	c-6.8-11.8-30.3-41.7-31.1-42.8c0,0,0,0,0,0c-0.9-1-7-9.1-7.3-9.8c-1.2-1.8-2.5-3.6-3.7-5.5c-0.3-0.4-0.6-0.7-0.9-1.1
	c-0.5-0.5-1-1-1.5-1.5c-3.7-3.7-13.3-16.3-13.9-17c-0.6-0.1-10.7-11.1-10.7-11.1c-2.8-3.6-7.5-9.4-10.3-13
	c-4.4-6.1-8.8-12.2-13.2-18.3c-0.2-0.6-2.3-4.5-2.8-5.3c0,0-0.2-0.3-0.2-0.3c-0.7-1.1-2.8-3.8-2.8-3.8c-0.6-0.9-1.2-1.8-1.8-2.7
	c0,0-0.1-0.2-0.1-0.2c-2.6-2.8-20.2-21.4-22.5-23.9c-4.3-5.6-14.6-17.7-14.8-18.6c0,0,0,0,0,0c-0.5-0.6-4.4-5.2-5.4-6.2
	c-1.3-1.4-2.6-2.8-3.8-4.3c0,0,0,0,0,0c0,0-0.2-0.2-0.2-0.2c-0.8-1-5.3-6.1-6.3-7.2c-2.7-4-5.5-8-8.2-12c-1.2-1.6-2.5-3.1-3.7-4.7
	c-0.5-0.4-0.9-0.8-1.4-1.3c-8.2-5.4-14.4-12.7-20.4-20.3c-1.3-0.8-2.6-1.6-3.8-2.4c-1.4-1.9-2.8-3.9-4.2-5.8c-0.3-0.5-0.6-0.8-1.2-1
	c-0.3-0.9-0.6-1.8-0.9-2.8c-0.4-0.7-0.8-1.3-1.2-2c-0.4-0.5-0.8-0.8-1.4-1.1c0,0,0,0,0,0c-0.8-1.1-1.6-2.2-2.4-3.3
	c-0.8-1-1.5-2.1-2.3-3.1c-0.3-0.8-0.7-1.6-1-2.4c-0.2-0.5-0.6-0.9-1.2-1.1l0,0c-1.7-2.3-3.3-4.5-5-6.8c0,0,0,0,0,0
	c-0.3-0.8-0.6-1.6-0.8-2.4c-2.1-2.2-4.2-4.3-6.2-6.5c-2.2-2.8-4.3-5.6-6.5-8.4c-0.7-1.2-1.4-2.4-2.2-3.5
	c-1.4-1.3-21.4-18.1-23.3-19.9c-4.5-3.1-25.8-19.4-35.9-25.6c-2.3-0.9-13.5-7.1-14.4-7.9c-1.2-0.3-23.6-14.3-26.8-16.2
	c-1.6-0.8-48.3-30.9-51-32.6l-10.9-7c-2.5-1.4-6.7-3.7-9.2-5.1l-0.4-0.2c-1.6-1-3.3-2.1-4.9-3.1c0.2,0.5-18.5-10-18.5-10.6
	c-3.7-2.4-7.4-4.7-11.2-7.1c-0.5,0.3-1.6-0.8-1.6-1.3c-5.3-2.9-21-11.9-23.5-13.6c-0.7,0-17.4-9.5-17.4-10c-2.8-1.3-5.5-2.7-8.3-4
	c-6.2-2.8-21.7-10.9-22-11.4c-0.5,0.4-9.5-3.1-12.9-4.4c-0.2,0.3-11.2-2.9-16.3-4.8c-0.2,0.5-22.1-7.8-25.2-8.8
	c-16.2-5.1-67.4-23.6-68.9-24.7c-1.1-0.5-2.2-0.9-3.3-1.4c-1.4,0.1-19.8-4.4-20.2-5c-1.2-0.3-2.4-0.7-3.6-1
	c-0.5,0.4-24.3-5.9-27-7.2c0,0-41.7-12.3-44.6-13.8c-1.1-0.4-5.7-1.1-6.7-1.2c-11.7-1.9-37.4-6.5-38.5-7c0,0-23.6-3-26.5-3.6
	c-0.2,0.5-5.9,0.3-6.8-0.2c0,0-10.5-0.6-11.6-1c-0.8,0-1.5,0-2.3-0.1c-3.2-0.4-6.4-0.7-9.6-1.1c-0.1,0-7.2-0.3-7.3-0.3
	c-2.7-0.2-7.7-0.9-8.8-1.3c-0.4,0.4-4,0-5.4-0.5c-3.2,0.2-6.4,0.5-9.7,0.5c-13.4,0-26.9-0.1-40.3-0.2c-2.2,0.1-4.5,0.3-6.7,0.4
	c0,0-1.9,0.6-2.8,0.8c-1.2,0.1-2.3,0.2-3.5,0.3c-1.4-0.2-2.8-0.4-4.2-0.6l0,0c-1.3,0.2-2.7,0.4-4,0.5c0,0,0,0,0,0c0,0,0,0,0,0
	c-1,0.1-1.9,0.3-2.9,0.4c-0.5-0.3-1-0.2-1.5,0.2c-0.7,0.1-1.4,0.2-2.1,0.3c0,0-0.1,0-0.1,0c-1.4-0.1-2.9-0.3-4.3-0.4
	c-0.7,0.2-1.4,0.5-2.1,0.7c-1.4,0.1-2.8,0.1-4.2,0.2c-2.8,0.1-5.5,0.3-8.3,0.4c-0.8,0.1-1.5,0.2-2.3,0.3c0,0,0,0,0,0
	c-2,0.2-3.9,0.4-5.9,0.6c0,0-0.5,0-0.5,0c-2.7,0.1-14.6,1.3-17.3,1.4c0,0-0.1,0-0.1,0c-0.9,0.2-1.9,0.3-2.8,0.5
	c-0.7,0.2-1.4,0.4-2.1,0.6c-3.5,0.4-18.9-0.3-23,0.9c0,0,0,0,0,0c-0.8,0.2-1.7,0.4-2.5,0.7c0,0,0.1,0,0.1,0
	c-1.3,0.1-2.6,0.2-3.8,0.3c0,0-0.4,0-0.4,0c-1,0-1.9,0-2.9,0c-1.2,0.1-2.4,0.2-3.6,0.4c-2.2,0.2-4.4,0.4-6.6,0.6c0,0,0,0,0,0
	c-2.1,0.3-4.3,0.7-6.4,1c0,0-0.1,0-0.1,0l0,0c-0.8,0.2-1.7,0.3-2.5,0.5c0,0,0.1,0,0.1,0c-1.3,0.1-2.6,0.2-3.9,0.3c0,0-0.2,0-0.2,0
	l0,0l0,0l0,0l0,0c-0.8,0.2-1.6,0.3-2.5,0.5c0,0,0,0,0,0c-0.9,0.1-3.8,0.1-4.3,0.4c-0.8,0.1-1.5,0.2-2.3,0.3c0,0,0,0,0,0
	c-1,0.1-1.9,0.2-2.9,0.3c-1.2,0.1-2.5,0.3-3.7,0.4c-1.3,0-2.6,0.1-3.9,0.1c0,0-0.2,0-0.2,0c-2.1,0.2-4.2,0.5-6.3,0.7
	c0,0-0.3,0-0.3,0c-0.8,0.1-1.6,0.3-2.4,0.4c0,0,0.1,0,0.1,0c-1.3,0-2.7,0.1-4,0.1c0,0-0.1,0-0.1,0c-0.8,0.2-1.7,0.3-2.5,0.5
	c0,0,0,0,0,0c-2.1,0.3-4.3,0.7-6.4,1c0,0-0.1,0-0.1,0c-2.1,0.3-4.2,0.5-6.4,0.8c0,0-0.2,0.1-0.2,0.1c-0.8,0.2-1.5,0.4-2.3,0.6
	c0,0-0.2,0-0.2,0c-0.8,0.2-1.6,0.4-2.5,0.6l0,0c-0.9,0.2-1.8,0.4-2.6,0.6c0,0,0.2,0,0.2,0c-0.9,0.3-1.7,0.5-2.6,0.8c0,0,0,0,0,0
	c-3.8,0.7-7.7,1.5-11.5,2.2c0,0,0.1,0,0.1,0c-1.2,0.2-2.5,0.4-3.7,0.6c-1,0.3-2,0.6-3,0.9c-0.7,0.1-1.5,0.2-2.2,0.4c0,0,0,0,0,0
	c-0.9,0.2-1.7,0.3-2.6,0.5c0,0,0,0,0,0c-2.2,0.3-4.4,0.5-6.6,0.8c0,0,0,0,0,0c-1.9,0.4-8,1.9-8.7,2.1c0,0-0.4,0.1-0.4,0.1
	c-0.7,0.2-1.3,0.4-2,0.6c-1,0.2-1.9,0.5-2.9,0.7c-0.8,0.2-1.7,0.4-2.5,0.6c0,0,0.1,0,0.1,0c-0.8,0.3-2.9,0.6-2.9,0.6
	c-0.7,0.2-1.3,0.5-2,0.7c0,0-0.4,0.1-0.4,0.1c-0.7,0.3-1.4,0.5-2.1,0.8c-0.3,0.4-2.6,2.1-3.5,2.5c0,0,0.1,0,0.1-0.1
	c-1.6,0.6-11.5,4.6-13.3,5.3l0,0v0c0,0,0,0,0,0c-0.9,0.3-1.8,0.5-2.7,0.8c-0.7,0.3-1.4,0.6-2.1,0.8c-0.9,0.3-1.7,0.7-2.6,1
	c-2.7,1-5.5,2.1-8.2,3.1c-1.4,0.6-3.7,1.6-5.1,2.3l-3,1.6c-1.8,0.8-3.6,1.5-5.3,2.3c-0.8,0.4-1.5,0.8-2.3,1.2c-0.7,0.2-5,2.1-6,2.7
	c0,0,0.2-0.1,0.2-0.1c-0.8,0.4-2.9,0.9-2.9,0.9c-0.6,0.3-1.3,0.6-1.9,0.9c-0.3,0.5-12.6,6.2-14.3,6.8c0,0,0,0,0,0
	c-0.9,0.3-1.7,0.5-2.6,0.8c0,0,0.3-0.1,0.3-0.1c-1,0.3-5.8,1-6.6,1.1c-0.9,0.2-1.7,0.4-2.6,0.6c0,0,0.2-0.1,0.2-0.1
	c-0.8,0.3-1.7,0.5-2.5,0.8c0,0,0,0,0,0c-3,0.7-6,1.3-8.9,2c-0.9,0.3-1.7,0.6-2.6,0.9c-0.8,0.2-1.5,0.4-2.3,0.7c0,0-0.2,0-0.2,0
	c-0.9,0.1-1.8,0.2-2.7,0.3c-1.5,0.5-3.1,1-4.6,1.5c-2.1,0.5-4.2,0.9-6.4,1.4c0,0-0.3,0.1-0.3,0.1c-0.8,0.1-1.5,0.3-2.3,0.4
	c0,0-0.1,0-0.1,0c-1.1,0-5.7,0.7-6.4,0.8c0,0-0.2,0-0.2,0c-1.7,0.4-3.3,0.8-5,1.2c-1.3,0.7-6.6,2.4-7.3,2.6c0,0-0.1,0-0.1,0
	c-0.9,0.2-1.7,0.4-2.6,0.6c-0.8,0.3-1.5,0.5-2.3,0.8c-0.9,0.2-2.5,0.6-2.5,0.6h0l0,0c0,0,0,0,0,0c-0.6-0.2-4.2,1.4-5.1,1.7
	c-0.8,0.3-1.6,0.5-2.3,0.8c-0.9,0.3-2.5,0.7-2.5,0.7c0,0-4.1,1.3-5,1.6c-0.8,0.3-1.7,0.5-2.5,0.8c0,0,0,0,0,0c-1.7,0.5-3.3,1-5,1.5
	c0,0,0.1,0,0.1,0c-0.8,0.3-1.6,0.6-2.4,0.9c0,0-0.1,0-0.1,0c-0.8,0.2-1.7,0.4-2.5,0.6c-0.8,0.3-1.6,0.6-2.4,0.9c0,0,0,0,0,0
	c-0.4-0.2-18.6,8-19.5,8.2c-2,1.6-6.6,3.7-6.6,3.7c-2.5,1.7-17.6,8.1-18.9,8.6c0,0-16,7.1-23.4,12.4c-0.8,0.6-9.8,6.9-11.3,8.3
	c-0.9,0.7-21,14.3-22.2,15.1c0,0,0.2-0.1,0.2-0.1c-0.7,0.4-4.8,3.2-5.7,3.6c0,0-0.1,0.1-0.1,0.1c-0.6,0.3-8,5.8-9.9,7.1l0,0
	c-1.1,0.8-5.8,4.2-6.7,4.8c0,0-2.6,1.5-3.6,2c-10.9,8.4-51.2,38.1-56.2,42.8c-2.9,2.7-6,5.2-9,7.8c-0.6,0.4-3.8,3.6-4.8,4.8
	c-1.9,1.5-3.8,3-5.7,4.4c-5.1,4.2-10.1,8.5-15.2,12.7c-1,0.8-2.1,1.7-3.1,2.5c-1.1,1.5-2.2,2.9-3.4,4.4c-0.6,0.5-1.2,0.9-1.8,1.4
	c-0.8,0.8-1.6,1.7-2.3,2.5c-3,3.6-6.1,7.2-9.1,10.8c-0.9,0.6-1.7,1.1-2.6,1.7c-4.2,4-17.7,15.3-18.5,15.8c-0.2,0.3-5.2,4.9-7.1,6
	c-2,2.4-4.1,4.8-6.1,7.1c-0.4,0.5-3.2,3.4-4.2,4c-2.2,1.6-4.4,3.2-6.6,4.8l-5.4,5.3c-1.8,1.3-18,16.5-18.9,17.1c0,0,0.1,0,0.1,0
	c0,0,0,0,0,0c-1.4,1.3-5.6,4.7-6.4,5.1c-1.2,2-30.8,28.1-31.4,28.7c-3.2,3.2-6.2,6.7-9.3,10c-4.2,3.8-9.4,6.8-11.1,12.8
	c-0.3,0.5-0.7,1-1,1.5c-1.3,1.4-2.5,2.8-3.8,4.2c-0.5,0.3-0.9,0.7-1.1,1.2c-5,7.1-31.4,41.4-31.9,41.4c-1.2,2.1-2.4,4.3-3.7,6.4
	c-0.7,1-6.7,8.1-8.5,10c-2.1,3.7-4.2,7.4-6.3,11.2c-1,1.5-2,2.9-2.9,4.4l0,0c-2.3,3.7-4.5,7.4-6.8,11.1c-4.4,7.9-8.8,15.9-13.2,23.8
	c-0.7,1.1-1.3,2.2-2,3.3c-0.4,0.6-0.7,1.2-1.1,1.8c-0.5,1-1.1,2-1.6,3c-0.8,1.7-1.7,3.3-2.5,5c-0.9,1.6-1.8,3.1-2.7,4.7
	c-2.1,4.4-4.3,8.8-6.4,13.3c-3,5.3-6,10.6-8.9,15.9c-1.3,2.7-2.7,5.5-4,8.2c-1.2,2.2-2.3,4.5-3.5,6.7c-0.4,1.1-0.9,2.2-1.3,3.4
	c-3.6,7.8-7.2,15.6-10.8,23.4c-0.6,0.4-0.8,0.9-0.6,1.5c-0.4,1.1-0.7,2.2-1.1,3.4c-4.4,9.6-15.1,39.8-17,44.9
	c-0.7,3-8.9,25.8-9.4,32.1c-0.7,2.4-1.4,4.8-2.1,7.2c-1.2,5.7-6.3,32.4-6.7,33.6c-1,5.1-2,10.1-3.1,15.2c-0.2,0.6-0.2,1.2-0.1,1.8
	c-0.1,1.3-2.5,11.1-3.5,14.7c-1.1,4.3-2.3,8.6-3.4,12.9c-0.2,1.9-8.8,43.2-9.2,45.1c-2,8.3-9.4,64.1-9.8,66.7
	c-0.3,3.9-1.3,7.8-1,11.7c0.1,1.6,0.1,15.6,0.3,21.1c0.1,1.9-4.2,25.1-6.2,29.5c0.1,0.8-0.8,14-2.2,17.8c-0.2,2.5-0.4,5-0.6,7.6
	c0.1,0.8,0.2,1.6,0.3,2.4c0,0,0,0,0,0c-0.2,5.7-0.8,32.5-0.5,32.9c1.4,2.3,2.9,4.6,4.3,6.9c0.2,0.6,0.4,1.3,0.6,1.9c0,0,0,0,0,0
	c1.4,3.3,23.7,33.7,32.5,45.9c2.6,2.8,5.3,5.5,7.9,8.3c0,0,0-0.1,0-0.1c0.4,0.7,0.9,1.4,1.3,2.1c2,1.3,4,2.7,6,4l7,6.8
	c3.8,2,12.7,7.5,12.7,7.5c3.1,2.1,6.1,4.2,9.2,6.2l5,2.3c0.6,0.3,1.7,0.8,2.3,1.1l4.2,2.2c1.8,0.6,3.7,1.1,5.5,1.7
	c3.8,1.9,7.6,3.7,11.4,5.6c2.4,0.8,40.1,16.9,40.6,17.3c1.1,0.3,2.2,0.4,3.3,0.2c2.9-0.4,5.8,0.2,8.5,1.2c6.7,2.4,11.4,0.4,17.1-1
	c0.2-0.5,15.5-4,18.4-7.3c2.3-2.6,6-3.8,8.3-6.4c1.5-1.7,1.8-4.3,3.3-6c1.3-1.5,8.1-3.5,9.6-4.2c1.6-0.7,2.8-1.9,4-3.2
	c3.1-3.7,6.2-7.4,9.3-11.1c9.8-14,17.3-28.9,18.9-45.8c0.1-0.8,0.2-1.6,0.3-2.4c0-0.6-0.1-1.1,0-1.7c-0.1-0.8,0-13.9,4.9-18
	c0.9-1,5.4-6.2,5.9-6.4c12.9-5.1,25.9-10.3,38.8-15.5c6.1-2.5,28.8-12.5,29.3-12.3c1.4-2.4,26.2-3.5,27.5-3.7
	c11.4-2.4,33.3-1.2,34.9-0.7c1.7,0.7,33.5,13,35.8,14.5c2.2,1.4,5.1,3,5.9,5.1c1.8,4.9,2.3,10.2,3.6,15.3L431.7,669.1z"/>
<rect class="st0" width="600" height="500"/>
<rect x="1000" class="st0" width="920" height="400"/>
</svg>
