<?xml version="1.0" encoding="utf-8"?>
<!-- Generator: $$$/GeneralStr/196=Adobe Illustrator 27.6.0, SVG Export Plug-In . SVG Version: 6.00 Build 0)  -->
<svg version="1.1" id="Calque_1" xmlns="http://www.w3.org/2000/svg" xmlns:xlink="http://www.w3.org/1999/xlink" x="0px" y="0px"
	 viewBox="0 0 1920 967.1" style="enable-background:new 0 0 1920 967.1;" xml:space="preserve">
<style type="text/css">
	.st0{fill:#AAD637;}
</style>
<path class="st0" d="M1674.2,520.6"/>
<path class="st0" d="M475.5,782.9c2.5,2.9,7.8,10.7,20,13.4c15.7-0.1,54.8,0.4,56.7,0.6c1.2,0.4,2.5,0.6,3.6,1l0,0
	c1.2,0.6,3.6,1,3.6,1c1.2,0.4,2.5,0.6,3.7,1c1.8,0.4,3.7,1,5.5,1.4c1.8,0.5,13.4,1.8,17,2.5c2.5,0.6,19,2.3,24.9,2.3
	c5,0.7,10.1,1.3,15.1,2l0,0c0.5,0.3,5.1,0.4,5.9,0.1c9.3-3,18.8-5.3,27.7-9.1c3.6-1.5,7-3.4,10.4-5.3c0,0,19.6-13.5,22.5-14.8
	c5.6-2.4,13.1-5.6,18.1-2.2c4.3,3,3.4,9.2-1.7,14.3c-4.3,4.2-11.4,15.2-12,15.6c-0.8,0.6-1.6,1.4-2.3,2.2c-0.6,0.8-1,1.8-1.4,2.7
	c-1.2,3.2-2.4,6.5-3.6,9.7c-0.5,1.4-3.7,5.6-4.5,7.7c-0.3,0.9-0.8,3.9-0.6,4.4c1.7,4,1.3,6.2,0.5,10.4c-0.7,3.4,0.2,7.9,2.2,9.9
	c3,2.8,2.9,5.6,3,8.8c0,2.3,0.3,4.7,0.5,7.1c0.9,5.7,21.6,5,27.8,5.3c3.1,0.1,10,3.9,10.7,4c1.8,0.3,11.1-0.3,11.8-1.4
	c11.8-10,23.8-19.6,35.1-30.2c5.9-5.5,10.8-11.8,15.1-18.6c6.7-10.4,13.9-19.7,25.7-25.1c5-2.3,9.7-5.1,14.2-8.2
	c6.6-4.6,12.6-8,20.4-4.4c3.7,1.7,7.8,3.3,11.8,3c0.8-0.1,20.1-2.3,22.1-2.2c1.3,0.1,2.4,0.7,3.6,1c8.8,1.7,17.6,3.8,26.5,3.4
	c9.3-0.3,46.1-20.2,48.6-26.3c1.7-4.2,3.2-9.8,3.1-16.1c-0.1-2.1-3.2-32.4-7.7-44.9c-0.9-2.4-1.1-4.8-1.7-7.4
	c-0.2-0.9,2.9-18.4,2.6-22.4c-0.3-3.3,0.7-6.6,3.2-9c0.9-0.8,1.6-1.5,1.8-1.8c2.7-3.3,5.6-6.2,7.8-9.7c3.3-5.4,6.6-11,8.8-17
	c1.4-3.9,2.2-7.8,2.1-12.1c0.1-8.9-2.6-17.7-4-26.5c-0.6-3.9-1.2-13.3-1.5-14c-2-8.6-2.8-17.2-1.9-25.9c-0.1-0.5,1.9-13.7,2.4-14.9
	c0.3-0.7,0.6-1.3,0.8-2c3.8-12.6,13.4-20.9,21.7-30.4c8.4-9.7,20.7-13.3,29.8-21.5c4.2-3.8,9.3-6.6,14-9.9c3-2.7,5.7-5.8,8.9-8.1
	c9-6.5,18.1-13,27.4-19.1c3.5-2.3,7.7-3.4,11.6-5l0.1,0c0.8-0.4,1.6-0.9,2.4-1.3c0.7-0.5,1.5-0.9,2.1-1.3c0.7-0.5,1.6-1,2.3-1.5
	c1.7-1.4,3.4-2.9,5.1-4.2c2.1-1.2,4.1-2.4,6.3-3.8c0.9-0.6,1.9-1.3,2.9-1.9c3.3-2.3,6.6-4.7,10-7l0,0c0.8-0.4,1.5-0.9,2.3-1.3l0.1,0
	c0.7-0.5,11.7-7.2,14.9-8.6l0,0c9.8-8.5,19.2-16.9,29-25.4c3.5-4,6.9-8,10.4-12c0.5-0.4,20-17.1,21.7-17.9c0.7-0.5,1.5-1,2.2-1.6
	c0,0,37.6-24.7,49.3-31.9c2.1-1.3,6.1-2.9,7.7-1.8c7.9,5.3,16.1,1.6,24.1,1.8l15.9-1.4c4.1-0.3,15.4-1.3,18.1-0.8
	c2.3,0.3,41.9,7.1,43.1,7.4c2.5,0.2,21.1,6.9,21.8,7c0,0.4,17.1,6.3,20.5,6.8c8.5,1.5,20.5,7.5,22.9,8.1c0,0,5.6,0.9,10.7,3.2
	c0.6,0.3,16.3,13,24.6,18.5c6.3,3.8,13.8,5.9,17.9,12.8c0.4,1,3.6,6,4,7c0.7,1.7,3.2,2.1,4.5,3.6c1.9,2.3,5.7,10.6,5.7,10.6
	c1.6,2.9,23.3,42.1,34,57.8c0.7,0.1,15.9,20.5,17.7,22c0.5,0.3,12.8,11.4,12.8,11.4c3,1.8,3,1.8,0,0c10.8,12.8,23.6,22.3,40.3,25.6
	c2.4,0.7,4.7,1.4,7.1,2.1c4.7,1.3,31.4,7.3,34.8,7.7c7.1,0.8,14.5,3.7,21.4,1.5c1.3-0.4,35.7,2.1,37,2.4c0.7,0.2,7-1.5,8.5-1.8
	c10.6-2.8,20.6-5.2,30.3-9.6c8.6-3.9,38.5-15.8,44.1-19.5c4.9-3.2,17.9-16.8,18.2-17.1c0.6-0.5,1.4-1.1,2-1.5
	c6-3.1,11.9-6.1,17.9-9.2c1-0.7,2.1-1.4,3.1-2.1c13.3-11.7,25-24.5,32.1-41c1.3-3.1,4.1-5.4,6.1-8.1c0.5-0.7,1-1.4,1.3-2.1
	c0.7-1.1,1.4-2.1,2.1-3.2c3.1-8.5,6-16.9,9.3-25.3c3.7-9.5,7.7-19.1,11.5-28.5c3.1-7.8,17-44.9,17.3-46c1.6-6.5,3.1-38.3,3.9-44.1
	c0.1-1.3,0.3-2.5,0.4-3.8c0.1-1.1,0.1-2.2,0.2-3.2c0.3-2.7,0.9-14.8,1.3-16c0.6-4.5,7.4-36.2,13.5-48.6c0.9-2,1.4-10,0.7-13.1
	c-3.1-12.9,2.9-24.3,4-37.3c-1.3-8.5-2.3-17.2-3.9-25.8c-0.9-4.8-3-9.3-4.4-14.1c-1.8-6.3-3.2-12.6-5.2-18.8
	c-3.8-11.5-8.5-22.4-18.3-30.4c-5.5-4.4-10.7-9.4-15-14.9c-3.2-4.1-4.5-9.5-6.6-14.3c-0.3-0.7-4.5-8.4-6.2-11.3
	c-1.5-2.9-3-5.8-4.5-8.7c-1.3-1.7-6.9-10-8.3-12.1c-1.5-2.2-12.2-17.5-15.8-22.7c-0.4-0.4-5.9-8-8.1-11.2c-5-4.6-10.3-8.9-14.8-13.8
	c-9.6-10.4-40.2-35.2-41.2-36.1l0,0c-1.1-0.8-9.2-7.6-9.6-8.2c-1.6-1.5-3.4-3.1-5-4.7c-0.4-0.3-0.8-0.6-1.2-0.9
	c-0.6-0.4-1.2-0.8-1.9-1.2c-4.6-2.9-17.2-13.4-17.9-14c-0.6,0-13.4-8.8-13.4-8.8c-3.7-3-9.7-7.8-13.4-10.8
	c-5.8-5.2-11.7-10.3-17.5-15.5c-0.3-0.6-3.4-4-4-4.7l-0.3-0.3c-1-1-3.7-3.2-3.7-3.2c-0.8-0.8-1.6-1.5-2.4-2.3l-0.1-0.2
	c-3.3-2.2-25.3-17-28.2-19c-5.6-4.7-18.8-14.5-19.2-15.4l0,0c-0.6-0.5-5.6-4.2-6.9-5c-1.6-1.1-3.3-2.2-4.8-3.5l0,0l-0.2-0.2
	c-1-0.8-6.8-4.9-8-5.8c-3.6-3.4-7.4-6.8-11-10.2c-1.6-1.3-3.2-2.6-4.8-3.9c-0.6-0.3-1.1-0.6-1.7-1c-9.5-3.6-17.5-9.5-25.3-15.8
	c-1.5-0.5-3-1-4.4-1.6c-1.9-1.6-3.7-3.3-5.6-4.9c-0.4-0.4-0.8-0.7-1.4-0.7c-0.5-0.8-1-1.7-1.6-2.6c-0.6-0.6-1.1-1.1-1.7-1.7
	c-0.5-0.4-1-0.6-1.7-0.8l0,0c-1.1-0.9-2.1-1.9-3.2-2.8c-1-0.8-2-1.8-3-2.6c-0.5-0.7-1.1-1.5-1.6-2.2c-0.3-0.5-0.8-0.8-1.5-0.8l0,0
	c-2.2-1.9-4.4-3.8-6.6-5.7l0,0c-0.5-0.7-1-1.5-1.4-2.2c-2.6-1.7-5.2-3.4-7.8-5.1c-2.9-2.3-5.6-4.7-8.5-7c-1-1.1-2-2.1-3-3
	c-1.7-1-25.8-13.4-28.1-14.8c-5.3-2.1-30.5-13.7-42.1-17.6c-2.5-0.4-15.3-4.1-16.4-4.7c-1.3,0-27.1-9-30.8-10.2
	c-1.8-0.4-55.9-20.1-59-21.2l-12.6-4.6c-2.8-0.8-7.6-2.2-10.5-3l-0.5-0.1c-1.8-0.6-3.8-1.4-5.7-2c0.3,0.5-21-5.9-21.1-6.5
	c-4.3-1.6-8.6-3.1-12.9-4.6c-0.4,0.4-1.8-0.4-1.9-0.9c-6-1.7-23.9-7.2-26.9-8.3c-0.7,0.2-19.8-5.6-19.9-6.1
	c-3.1-0.7-6.2-1.5-9.3-2.1c-6.9-1.4-24.4-6-24.8-6.5c-0.4,0.5-10.3-1-14-1.5c-0.1,0.3-12-0.4-17.6-1.1c-0.1,0.6-24.1-2.8-27.5-3.1
	c-17.5-1.4-73.5-8.4-75.3-9.1c-1.2-0.3-2.4-0.4-3.7-0.7c-1.4,0.4-21,0.1-21.6-0.4c-1.3,0-2.6-0.2-3.9-0.2
	c-0.4,0.5-25.9-0.4-28.9-1.1c0,0-45-2.9-48.2-3.7c-1.2-0.2-6,0.2-7,0.3c-12.3,0.8-39.3,2-40.5,1.8c0,0-24.5,2.4-27.6,2.4
	c-0.1,0.6-5.9,1.7-6.9,1.4c0,0-10.7,1.8-11.9,1.7c-0.8,0.2-1.5,0.3-2.3,0.4c-3.3,0.3-6.6,0.8-10,1.1c-0.1,0-7.3,1.3-7.4,1.4
	c-2.8,0.4-8,0.9-9.2,0.7c-0.3,0.5-4,0.9-5.6,0.7c-3.2,0.9-6.4,2-9.7,2.7c-13.5,3.1-27.2,6.1-40.8,9c-2.2,0.6-4.5,1.3-6.7,1.9
	c0,0-1.8,1-2.6,1.5c-1.2,0.4-2.3,0.7-3.5,1.1c-1.5,0.1-2.9,0.2-4.4,0.4l0,0c-1.3,0.5-2.6,1-3.9,1.4l0,0l0,0c-1,0.3-1.9,0.7-2.8,1.1
	c-0.6-0.2-1.1,0-1.5,0.5c-0.7,0.3-1.4,0.5-2.1,0.8l-0.1,0c-1.4,0.2-3,0.4-4.4,0.6c-0.7,0.4-1.3,0.8-2,1.2c-1.4,0.4-2.8,0.7-4.2,1.2
	c-2.8,0.7-5.5,1.6-8.3,2.3c-0.8,0.3-1.5,0.5-2.3,0.8l0,0c-2,0.7-3.8,1.3-5.8,2l-0.5,0.1c-2.7,0.7-14.5,4.7-17.2,5.4l-0.1,0
	c-0.9,0.4-1.9,0.7-2.7,1.1c-0.7,0.4-1.3,0.7-2,1.1c-3.4,1.2-19.2,4-23,6.2l0,0c-0.8,0.4-1.6,0.8-2.4,1.3l0.1,0
	c-1.3,0.4-2.6,0.8-3.8,1.2l-0.4,0.1c-1,0.2-1.9,0.4-2.9,0.7c-1.2,0.4-2.4,0.8-3.5,1.2c-2.2,0.7-4.4,1.4-6.5,2.1l0,0
	c-2.1,0.8-4.2,1.7-6.2,2.5l-0.1,0l0,0c-0.8,0.4-1.6,0.7-2.4,1.1l0.1,0c-1.3,0.4-2.6,0.8-3.9,1.2l-0.2,0l0,0l0,0l0,0l0,0
	c-0.8,0.4-1.5,0.7-2.4,1.1l0,0c-0.9,0.3-3.8,1-4.3,1.4c-0.8,0.3-1.5,0.5-2.3,0.8l0,0c-1,0.3-1.9,0.6-2.9,1c-1.2,0.4-2.5,0.9-3.6,1.3
	c-1.3,0.3-2.6,0.7-3.9,1l-0.2,0c-2.1,0.7-4.1,1.5-6.2,2.2l-0.3,0.1c-0.8,0.3-1.5,0.7-2.3,1l0.1,0c-1.3,0.3-2.7,0.7-4,1l-0.1,0
	c-0.8,0.4-1.6,0.7-2.4,1.1l0,0c-2.1,0.8-4.2,1.7-6.2,2.5l-0.1,0c-2.1,0.8-4.1,1.5-6.3,2.3l-0.2,0.1c-0.8,0.4-1.4,0.7-2.2,1.1l-0.2,0
	c-0.8,0.4-1.5,0.8-2.4,1.2l0,0c-0.9,0.4-1.7,0.8-2.5,1.2l0.2,0c-0.8,0.5-1.6,0.9-2.4,1.4l0,0c-3.7,1.6-7.4,3.3-11.1,4.9l0.1,0
	c-1.2,0.5-2.4,1-3.6,1.5c-0.9,0.5-1.9,1.1-2.8,1.6c-0.7,0.3-1.5,0.5-2.1,0.9l0,0c-0.9,0.4-1.6,0.7-2.5,1.1l0,0
	c-2.2,0.8-4.3,1.5-6.5,2.3l0,0c-1.8,0.8-7.6,3.8-8.3,4.1l-0.4,0.2c-0.7,0.4-1.2,0.7-1.9,1.1c-1,0.4-1.8,0.9-2.8,1.4
	c-0.8,0.4-1.6,0.8-2.4,1.2l0.1,0c-0.7,0.5-2.8,1.3-2.8,1.3c-0.7,0.4-1.2,0.8-1.9,1.2l-0.4,0.2c-0.6,0.5-1.3,0.8-1.9,1.3
	c-0.2,0.5-2.1,2.7-3,3.3c0,0,0.1,0,0.1-0.1c-1.5,1-10.6,7.3-12.2,8.4l0,0l0,0l0,0c-0.8,0.5-1.7,0.9-2.5,1.4
	c-0.6,0.5-1.3,0.9-1.9,1.3c-0.8,0.5-1.6,1.1-2.4,1.6c-2.5,1.6-5.1,3.4-7.6,5c-1.3,0.9-3.4,2.5-4.6,3.5l-2.7,2.3
	c-1.6,1.2-3.3,2.3-4.8,3.5c-0.7,0.6-1.3,1.2-2,1.7c-0.7,0.4-4.6,3.3-5.4,4.1l0.2-0.1c-0.7,0.6-2.7,1.6-2.7,1.6
	c-0.5,0.4-1.2,0.9-1.7,1.3c-0.2,0.6-11.3,9.2-12.9,10.2l0,0c-0.8,0.5-1.6,0.9-2.4,1.4l0.3-0.2c-0.9,0.5-5.6,2.3-6.4,2.6
	c-0.9,0.4-1.6,0.8-2.5,1.2l0.2-0.1c-0.7,0.5-1.6,0.9-2.3,1.4l0,0c-2.9,1.4-5.8,2.7-8.5,4.1c-0.8,0.5-1.6,1-2.4,1.5
	c-0.8,0.4-1.4,0.7-2.2,1.2l-0.2,0c-0.9,0.3-1.8,0.6-2.7,0.9c-1.4,0.8-2.9,1.7-4.3,2.6c-2,1-4,1.9-6.1,2.9l-0.3,0.2
	c-0.8,0.3-1.4,0.6-2.2,0.9l-0.1,0c-1.1,0.3-5.6,2-6.3,2.3l-0.2,0c-1.6,0.8-3.2,1.6-4.8,2.4c-1.2,1-6.1,3.9-6.8,4.3l-0.1,0
	c-0.9,0.4-1.6,0.8-2.5,1.2c-0.7,0.5-1.4,0.8-2.1,1.3c-0.9,0.4-2.4,1.2-2.4,1.2l0,0l0,0l0,0c-0.7-0.1-3.9,2.4-4.8,2.9
	c-0.7,0.5-1.5,0.9-2.1,1.3c-0.8,0.5-2.4,1.3-2.4,1.3s-3.8,2.3-4.7,2.8c-0.7,0.5-1.6,0.9-2.3,1.4l0,0c-1.6,0.9-3.1,1.8-4.7,2.7l0.1,0
	c-0.7,0.5-1.5,1-2.2,1.5l-0.1,0c-0.8,0.4-1.6,0.8-2.4,1.2c-0.7,0.5-1.5,1-2.2,1.5l0,0c-0.5-0.1-17,12.3-17.8,12.8
	c-1.7,2.1-5.8,5.3-5.8,5.3c-2.1,2.3-15.9,12.2-17.1,13c0,0-14.5,10.8-20.8,17.9c-0.7,0.8-8.3,9.2-9.5,11c-0.7,0.9-17.9,19.3-19,20.3
	l0.2-0.1c-0.6,0.6-4.1,4.3-4.9,4.9l-0.1,0.1c-0.5,0.4-6.8,7.7-8.4,9.4l0,0c-0.9,1.1-4.9,5.6-5.7,6.4c0,0-2.3,2.1-3.2,2.8
	c-9.1,11-43,50.2-47,56.1c-2.3,3.4-4.9,6.6-7.3,9.9c-0.5,0.5-3,4.5-3.7,6c-1.6,2-3.2,3.9-4.7,5.8c-4.2,5.4-8.3,10.9-12.4,16.3
	c-0.8,1-1.7,2.2-2.6,3.2c-0.8,1.8-1.6,3.4-2.4,5.2c-0.5,0.6-1,1.2-1.5,1.8c-0.6,1-1.2,2.1-1.8,3.1c-2.2,4.3-4.5,8.7-6.7,13
	c-0.8,0.8-1.5,1.5-2.2,2.3c-3.3,5-14.4,19.5-15.1,20.2c-0.1,0.3-4.1,6.1-5.8,7.7c-1.5,2.9-3,5.8-4.5,8.6c-0.3,0.6-2.5,4.2-3.3,5
	c-1.9,2.1-3.7,4.2-5.6,6.4l-4.2,6.6c-1.5,1.7-14.4,20.8-15.2,21.6l0.1,0l0,0c-1.1,1.6-4.6,6-5.3,6.6c-0.8,2.3-24.7,35.5-25.1,36.2
	c-2.5,4-4.7,8.2-7.1,12.2c-3.4,4.8-7.9,9-8.3,15.5c-0.2,0.6-0.5,1.2-0.7,1.7c-1,1.7-1.9,3.4-2.9,5.1c-0.4,0.4-0.7,0.9-0.8,1.5
	c-3.4,8.3-22.2,49-22.7,49.1c-0.7,2.4-1.4,4.9-2.3,7.3c-0.5,1.2-4.9,9.7-6.3,12.1c-1.3,4.2-2.5,8.4-3.8,12.8
	c-0.7,1.7-1.4,3.4-1.9,5.1l0,0c-1.5,4.3-2.8,8.5-4.3,12.8c-2.6,9-5.2,18.1-7.9,27.1c-0.5,1.3-0.8,2.5-1.3,3.8
	c-0.3,0.7-0.4,1.4-0.7,2.1c-0.3,1.1-0.7,2.3-0.9,3.4c-0.4,1.9-1,3.7-1.4,5.6c-0.5,1.8-1.1,3.5-1.6,5.4c-1.1,4.9-2.3,9.9-3.4,14.9
	C10,357,8.2,363,6.5,369c-0.7,3-1.5,6.2-2.2,9.2c-0.7,2.5-1.3,5.1-2,7.6c-0.2,1.2-0.4,2.4-0.5,3.7c-1.8,8.7-3.7,17.4-5.5,26.1
	c-0.5,0.5-0.6,1.1-0.3,1.7c-0.2,1.2-0.2,2.4-0.3,3.7c-2.2,10.7-6.1,43.7-6.9,49.3c0,3.2-3.1,28.1-2.1,34.6c-0.2,2.6-0.3,5.2-0.5,7.8
	c0.1,6,1.1,34.2,0.9,35.5c0.2,5.4,0.3,10.7,0.4,16.1c-0.1,0.7,0.1,1.3,0.3,1.8c0.2,1.3,0,11.8-0.2,15.7c-0.1,4.6-0.4,9.2-0.5,13.8
	c0.2,2,1,45.7,1.1,47.7c-0.1,8.8,5.2,66.9,5.4,69.6c0.6,4,0.5,8.2,1.7,12.1c0.5,1.6,3.7,15.7,5.1,21.2c0.5,1.9,1.5,26.3,0.5,31.2
	c0.3,0.8,2.4,14.3,1.9,18.5c0.4,2.6,0.7,5.1,1.1,7.8c0.3,0.8,0.6,1.6,0.9,2.4l0,0c1.1,5.8,6.6,33,7,33.4c1.9,2,4,4,5.9,6
	c0.3,0.6,0.7,1.2,1,1.8l0,0c2.2,3,31.7,28.6,43.4,38.9c3.3,2.2,6.6,4.3,9.9,6.6l0-0.1c0.6,0.6,1.2,1.2,1.8,1.8
	c2.3,0.9,4.7,1.8,7,2.7l8.6,5.3c4.3,1.1,14.6,4.7,14.6,4.7c3.6,1.4,7.1,2.8,10.7,4.2l5.6,1.2c0.7,0.2,1.9,0.4,2.6,0.6l4.7,1.3
	c2,0.2,4,0.3,5.9,0.5c4.3,1,8.5,2,12.8,3c2.6,0.3,44.4,7.9,45,8.2c1.2,0.1,2.3-0.1,3.4-0.6c2.8-1.1,5.9-1.1,8.9-0.7
	c7.3,0.9,11.6-2.2,17-4.9c0.1-0.6,14.7-7.6,16.9-11.6c1.7-3.2,5.2-5.2,6.9-8.4c1.1-2.1,0.8-4.8,2-6.8c1-1.8,7.4-5.4,8.7-6.4
	c1.5-1.1,2.4-2.6,3.3-4.2c2.3-4.4,4.6-8.9,6.8-13.3c6.7-16.4,10.8-33.2,8.6-50.6c-0.1-0.8-0.2-1.7-0.2-2.5c-0.1-0.6-0.4-1.1-0.4-1.7
	c-0.3-0.8-3.2-14,0.8-19.3c0.7-1.2,4-7.5,4.5-7.8c11.9-8.1,23.8-16.3,35.6-24.6c5.6-3.9,26.2-19.2,26.8-19.1
	c0.9-2.7,25.7-9.5,26.9-10c11-5,33.4-8.9,35.1-8.7c1.9,0.3,36.8,5.4,39.5,6.4c2.5,0.9,5.8,1.9,7.1,3.8c2.9,4.5,4.7,9.8,7.1,14.6
	L475.5,782.9z"/>
<rect class="st0" width="600" height="500"/>
<rect x="1000" class="st0" width="920" height="167.3"/>
</svg>
