<?xml version="1.0" encoding="utf-8"?>
<!-- Generator: $$$/GeneralStr/196=Adobe Illustrator 27.6.0, SVG Export Plug-In . SVG Version: 6.00 Build 0)  -->
<svg version="1.1" id="Calque_1" xmlns="http://www.w3.org/2000/svg" xmlns:xlink="http://www.w3.org/1999/xlink" x="0px" y="0px"
	 viewBox="0 0 1460.3 371.8" style="enable-background:new 0 0 1460.3 371.8;" xml:space="preserve">
<style type="text/css">
	.st0{fill:#001A30;}
	.st1{fill:#28C7C4;}
	.st2{fill:#FFFFFF;}
</style>
<path class="st0" d="M418.8,71.4l-9.9,2.6v-7.5l16.7-3.5h1.3v38.9h-8.1V71.4z"/>
<path class="st0" d="M433.5,82.6c0-12.4,5.9-20.1,16.6-20.1s16.8,7.7,16.8,20.1s-6,19.6-16.8,19.6S433.5,94.8,433.5,82.6z
	 M458.6,82.6c0-8.2-3.2-12.9-8.5-12.9s-8.3,4.6-8.3,12.9s3.1,12.4,8.3,12.4S458.6,90.7,458.6,82.6z"/>
<path class="st0" d="M483.7,81.2c0,0-1.7,1.2-4.8,1.2c-4.3,0-6.5-2.3-6.5-6.9v-6h-2.5v-3.6h2.7v-4.6l4.5-0.2v4.7h5.7v3.6h-5.7v5.7
	c0,2.2,0.8,3.1,2.7,3.1c1.7,0,2.6-0.9,2.6-0.9L483.7,81.2L483.7,81.2z"/>
<path class="st0" d="M501.5,72.2v10h-4.7V73c0-1.9-0.9-3.2-2.8-3.2c-2.4,0-3.4,2.1-3.4,4v8.4h-4.7V57.9h4.6v10.7h0.1
	c0.8-1.6,2.3-2.9,4.9-2.9C499.5,65.7,501.5,68.5,501.5,72.2z"/>
<path class="st0" d="M519.4,62.9h8.2v38.9h-8.2V62.9z"/>
<path class="st0" d="M561.8,84.7v17.1h-8.1V86.1c0-3.3-1.7-5.5-4.9-5.5c-4.1,0-5.9,3.6-5.9,6.8v14.4h-8.1V74l6.3-0.2
	c0.6,1.8,1,4.7,1,5.8h0.2c1.4-3.3,4.1-6,9-6C558.3,73.6,561.8,78.4,561.8,84.7z"/>
<path class="st0" d="M589.2,100.1c0,0-3,2-8.3,2c-7.3,0-11.1-4-11.1-11.9V80.1h-4.2V74h4.6v-7.8l7.8-0.3V74h9.8v6.1H578V90
	c0,3.7,1.4,5.4,4.5,5.4c2.8,0,4.5-1.5,4.5-1.5L589.2,100.1z"/>
<path class="st0" d="M614.1,92.8l3.8,4.4c-1.9,2.5-6,4.9-12,4.9c-9.4,0-15-5.9-15-14.3s5.6-14.3,14.2-14.3c8.1,0,12.8,5.5,12.8,13.1
	c0,1.8-0.2,3-0.2,3h-18.8c0.7,3.7,3.3,6.3,7.9,6.3C610.8,96,612.9,94.1,614.1,92.8z M599,85.5h11.6c-0.1-3.3-2.1-5.8-5.4-5.8
	C602,79.7,599.6,81.8,599,85.5L599,85.5z"/>
<path class="st0" d="M642.4,74.4l-2.1,7.8c-0.9-0.6-2-1-3.2-1c-3.1,0-5.7,2.5-5.7,7.1v13.4h-8.1V73.9l6.3-0.2c0.6,1.8,1,5,1,6.1h0.2
	c1.1-3.5,3.2-6.2,7.4-6.2C639.8,73.6,641.1,73.9,642.4,74.4L642.4,74.4z"/>
<path class="st0" d="M672.6,84.7v17.1h-8.1V86.1c0-3.3-1.7-5.5-4.9-5.5c-4.1,0-5.9,3.6-5.9,6.8v14.4h-8.1V74l6.3-0.2
	c0.6,1.8,1,4.7,1,5.8h0.2c1.4-3.3,4.1-6,9-6C669.1,73.6,672.6,78.4,672.6,84.7z"/>
<path class="st0" d="M706.3,101.6c0,0-1.7,0.5-4,0.5c-3.8,0-5.9-1.5-6.4-4.4c-0.9,1.7-3.2,4.4-9,4.4s-9.4-3-9.4-7.7
	c0-6.9,7.2-8.6,17.6-8.8h0.3v-1.2c0-2.8-1.7-4.7-5.1-4.7c-3.1,0-4.8,1.2-4.8,3.2c0,0.4,0.1,0.8,0.2,1.1l-7.1,1.2
	c0,0-0.3-1.2-0.3-2.7c0-5.3,4.7-8.8,12.3-8.8c8.2,0,12.6,4.1,12.6,11.1v9.1c0,1.3,0.5,1.8,1.5,1.8c0.3,0,0.7-0.1,1-0.2L706.3,101.6
	L706.3,101.6z M695.5,91.9v-2.2h-0.3c-6.7,0.2-9.8,1.1-9.8,3.7c0,1.8,1.5,2.8,3.9,2.8C693.2,96.2,695.5,94.2,695.5,91.9L695.5,91.9z
	"/>
<path class="st0" d="M731.7,100.1c0,0-2.9,2-8.3,2c-7.3,0-11.1-4-11.1-11.9V80.1H708V74h4.6v-7.8l7.8-0.3V74h9.8v6.1h-9.8V90
	c0,3.7,1.4,5.4,4.5,5.4c2.8,0,4.5-1.5,4.5-1.5L731.7,100.1z"/>
<path class="st0" d="M739.3,70.1c-2.9,0-5.2-2.1-5.2-5s2.3-5,5.2-5s5.2,2.1,5.2,5S742.2,70.1,739.3,70.1z M735.2,74l8.1-0.2v28.1
	h-8.1V74z"/>
<path class="st0" d="M777.8,87.9c0,8.4-5.8,14.3-14.6,14.3s-14.7-5.9-14.7-14.3s5.8-14.3,14.7-14.3S777.8,79.5,777.8,87.9z
	 M769.6,87.9c0-4.5-2.5-7.7-6.4-7.7s-6.5,3.2-6.5,7.7s2.5,7.7,6.5,7.7S769.6,92.4,769.6,87.9z"/>
<path class="st0" d="M809.9,84.7v17.1h-8.1V86.1c0-3.3-1.7-5.5-4.9-5.5c-4.1,0-5.9,3.6-5.9,6.8v14.4h-8V74l6.3-0.2
	c0.6,1.8,1,4.7,1,5.8h0.2c1.4-3.3,4.1-6,9-6C806.4,73.6,809.9,78.4,809.9,84.7z"/>
<path class="st0" d="M843.6,101.6c0,0-1.7,0.5-3.9,0.5c-3.8,0-5.9-1.5-6.4-4.4c-0.9,1.7-3.2,4.4-9,4.4s-9.4-3-9.4-7.7
	c0-6.9,7.2-8.6,17.6-8.8h0.3v-1.2c0-2.8-1.7-4.7-5.1-4.7c-3.1,0-4.8,1.2-4.8,3.2c0,0.4,0.1,0.8,0.2,1.1l-7.1,1.2
	c0,0-0.3-1.2-0.3-2.7c0-5.3,4.7-8.8,12.3-8.8c8.2,0,12.6,4.1,12.6,11.1v9.1c0,1.3,0.5,1.8,1.5,1.8c0.3,0,0.7-0.1,1-0.2L843.6,101.6
	L843.6,101.6z M832.9,91.9v-2.2h-0.3c-6.7,0.2-9.8,1.1-9.8,3.7c0,1.8,1.5,2.8,3.9,2.8C830.5,96.2,832.9,94.2,832.9,91.9L832.9,91.9z
	"/>
<path class="st0" d="M848.3,60.2h8.1v41.6h-8.1V60.2z"/>
<path class="st0" d="M445,153c0,12.8-6.5,19.5-17.8,19.5h-15.4v-38.9h13.6C438.1,133.6,445,141.3,445,153L445,153z M436.5,153
	c0-8.6-4.4-12.7-12.1-12.7h-4.2v25.6h6C432.5,165.9,436.5,162.2,436.5,153L436.5,153z"/>
<path class="st0" d="M472.3,163.6l3.8,4.4c-1.9,2.5-6,4.9-12,4.9c-9.4,0-15-5.9-15-14.3s5.6-14.3,14.2-14.3
	c8.1,0,12.8,5.5,12.8,13.2c0,1.8-0.2,3-0.2,3h-18.8c0.7,3.7,3.3,6.3,7.9,6.3C469,166.8,471.1,164.9,472.3,163.6L472.3,163.6z
	 M457.2,156.3h11.6c-0.1-3.3-2.1-5.8-5.4-5.8C460.2,150.5,457.8,152.5,457.2,156.3z"/>
<path class="st0" d="M508.8,175.9c0,4.4-3.2,9-15.2,9c-10.2,0-14.8-3-14.8-7.2c0-2.8,1.8-4.7,4.7-5.6c-2-1.2-3.2-3-3.2-5.2
	c0-2.7,1.8-4.4,4-5.2c-2-1.8-3-4.2-3-7c0-6.1,4.9-10.3,12.3-10.3c2.8,0,5.3,0.6,7.3,1.7c1.9-1.1,2.7-3.7,2.7-6.7l6.1,1.6
	c0,4.4-3.3,7-5.8,7.5c1.5,1.7,2.2,3.8,2.2,6.2c0,6.1-5,10.2-12.4,10.2c-1.9,0-3.6-0.2-5.1-0.8c-1.3,0.3-2,0.8-2,1.7
	c0,1.4,1.2,1.9,4.5,1.9h6.2C504.1,167.6,508.8,170.2,508.8,175.9L508.8,175.9z M501.4,176.2c0-2-1.5-2.5-4.8-2.5h-5.2
	c-4,0-5.4,1.1-5.4,2.7c0,2,2.1,3,7.7,3S501.4,178.3,501.4,176.2L501.4,176.2z M493.6,159c3.1,0,5-1.7,5.1-4.3s-2-4.4-4.9-4.5
	c-3,0-5,1.7-5,4.3S490.7,158.9,493.6,159z"/>
<path class="st0" d="M531.8,145.2l-2.1,7.8c-0.9-0.7-2-1-3.2-1c-3.1,0-5.7,2.5-5.7,7.1v13.4h-8.1v-27.8l6.3-0.2c0.6,1.8,1,5,1,6.1
	h0.2c1.1-3.5,3.2-6.2,7.4-6.2C529.2,144.3,530.5,144.6,531.8,145.2L531.8,145.2z"/>
<path class="st0" d="M562.1,158.6c0,8.4-5.8,14.3-14.6,14.3s-14.7-5.9-14.7-14.3s5.8-14.3,14.7-14.3S562.1,150.3,562.1,158.6z
	 M553.9,158.6c0-4.5-2.5-7.7-6.4-7.7s-6.5,3.2-6.5,7.7s2.5,7.7,6.5,7.7S553.9,163.2,553.9,158.6z"/>
<path class="st0" d="M608.2,144.7l-8,27.8H591l-4-14.2c-0.2-0.9-0.5-2.5-0.5-3.1h-0.2c-0.1,0.7-0.3,2.2-0.5,3.1l-4.1,14.2h-9.2
	l-8.2-27.8h8.4l4,16.5c0.3,1.5,0.5,2.5,0.7,3.7h0.2c0.2-1.1,0.4-2.2,0.8-3.7l4.5-16.5h7.2l4.4,16.4c0.3,1.4,0.7,3,0.8,3.8h0.2
	c0.1-0.8,0.3-2.2,0.8-3.8l3.9-16.4H608.2L608.2,144.7z"/>
<path class="st0" d="M633.8,170.9c0,0-3,2-8.3,2c-7.3,0-11.1-4-11.1-11.8v-10.2h-4.2v-6.1h4.6V137l7.8-0.3v8.1h9.8v6.1h-9.8v9.8
	c0,3.7,1.4,5.4,4.5,5.4c2.8,0,4.5-1.5,4.5-1.5L633.8,170.9z"/>
<path class="st0" d="M664.4,155.4v17.1h-8.1v-15.7c0-3.3-1.6-5.5-4.9-5.5c-4.1,0-5.9,3.5-5.9,6.8v14.4h-8.1v-41.6h7.9l0.1,18.3h0.2
	c1.4-2.8,4-4.9,8.4-4.9C660.9,144.4,664.4,149.1,664.4,155.4L664.4,155.4z"/>
<path class="st0" d="M715.8,147.7l-7.7,1.2c0-3.6-2.2-8.4-8-8.4s-10,4.7-10,12.6c0,9,5.4,12.6,11.1,12.6c5,0,8.4-3.3,10-5.5l4.9,5.2
	c-1.7,2.5-6.5,7.6-15.2,7.6c-11.6,0-19.3-7.5-19.3-19.9s7.7-19.9,18.3-19.9C711.6,133.2,715.8,141.5,715.8,147.7L715.8,147.7z"/>
<path class="st0" d="M748.5,158.6c0,8.4-5.8,14.3-14.6,14.3s-14.7-5.9-14.7-14.3s5.8-14.3,14.7-14.3S748.5,150.3,748.5,158.6z
	 M740.3,158.6c0-4.5-2.5-7.7-6.4-7.7s-6.5,3.2-6.5,7.7s2.5,7.7,6.5,7.7S740.3,163.2,740.3,158.6z"/>
<path class="st0" d="M780.6,155.4v17.1h-8.1v-15.7c0-3.3-1.7-5.5-4.9-5.5c-4.1,0-5.9,3.6-5.9,6.8v14.4h-8.1v-27.8l6.3-0.2
	c0.6,1.8,1,4.7,1,5.8h0.2c1.4-3.3,4.1-6,9-6C777.2,144.4,780.6,149.1,780.6,155.4L780.6,155.4z"/>
<path class="st0" d="M797,144.7h8.7v6.1H797v21.7h-8v-21.7h-4.1v-6.1h4.1v-2.1c0-7.6,5-12.1,11.8-12.1c3.9,0,6.4,1.3,6.6,1.4
	l-2.4,6.5c-0.3-0.2-1.5-1.1-3.2-1.1c-3,0-4.8,2.1-4.8,5.2L797,144.7L797,144.7z"/>
<path class="st0" d="M830.5,163.6l3.8,4.4c-1.9,2.5-6,4.9-12,4.9c-9.4,0-15-5.9-15-14.3s5.6-14.3,14.2-14.3
	c8.1,0,12.8,5.5,12.8,13.2c0,1.8-0.2,3-0.2,3h-18.8c0.7,3.7,3.3,6.3,7.9,6.3C827.2,166.8,829.3,164.9,830.5,163.6L830.5,163.6z
	 M815.4,156.3H827c-0.1-3.3-2.1-5.8-5.4-5.8C818.4,150.5,816,152.5,815.4,156.3L815.4,156.3z"/>
<path class="st0" d="M858.8,145.2l-2.1,7.8c-0.9-0.7-1.9-1-3.2-1c-3.1,0-5.7,2.5-5.7,7.1v13.4h-8.1v-27.8l6.3-0.2c0.6,1.8,1,5,1,6.1
	h0.2c1.1-3.5,3.2-6.2,7.4-6.2C856.2,144.3,857.5,144.6,858.8,145.2L858.8,145.2z"/>
<path class="st0" d="M883,163.6l3.8,4.4c-1.9,2.5-5.9,4.9-12,4.9c-9.4,0-15-5.9-15-14.3s5.6-14.3,14.2-14.3
	c8.1,0,12.8,5.5,12.8,13.2c0,1.8-0.2,3-0.2,3h-18.8c0.7,3.7,3.3,6.3,7.9,6.3C879.7,166.8,881.8,164.9,883,163.6L883,163.6z
	 M867.9,156.3h11.6c-0.1-3.3-2.1-5.8-5.4-5.8C870.9,150.5,868.5,152.5,867.9,156.3L867.9,156.3z"/>
<path class="st0" d="M919.1,155.4v17.1H911v-15.7c0-3.3-1.7-5.5-4.9-5.5c-4.1,0-5.9,3.6-5.9,6.8v14.4h-8.1v-27.8l6.3-0.2
	c0.6,1.8,1,4.7,1,5.8h0.2c1.4-3.3,4.1-6,9-6C915.7,144.4,919.1,149.1,919.1,155.4L919.1,155.4z"/>
<path class="st0" d="M950.2,154.1c0,1.2-0.2,2.1-0.2,2.1l-7.1,0.4c0.1-0.1,0.1-0.7,0.1-1.2c0-2.4-1.5-4.4-4.6-4.4
	c-3.7,0-6.1,3-6.1,7.5c0,4.7,2.4,7.8,7.2,7.8c4.4,0,6.8-2.2,7.6-3.2l3.9,5.1c-1.8,2.2-5.8,4.8-12.1,4.8c-9.3,0-14.9-5.9-14.9-14.2
	s5.9-14.4,14.4-14.4C945.8,144.4,950.1,148.7,950.2,154.1L950.2,154.1z"/>
<path class="st0" d="M977.3,163.6l3.8,4.4c-1.9,2.5-6,4.9-12,4.9c-9.4,0-15-5.9-15-14.3s5.6-14.3,14.2-14.3
	c8.1,0,12.8,5.5,12.8,13.2c0,1.8-0.2,3-0.2,3h-18.8c0.7,3.7,3.3,6.3,7.9,6.3C974,166.8,976.1,164.9,977.3,163.6L977.3,163.6z
	 M962.2,156.3h11.6c-0.1-3.3-2.1-5.8-5.4-5.8C965.2,150.5,962.8,152.5,962.2,156.3L962.2,156.3z"/>
<path class="st0" d="M1025.8,172.4c0,0-1.7,0.5-3.9,0.5c-3.8,0-5.9-1.5-6.4-4.4c-0.9,1.7-3.2,4.4-9,4.4s-9.4-3-9.4-7.7
	c0-6.9,7.2-8.6,17.6-8.8h0.3v-1.2c0-2.8-1.7-4.7-5.1-4.7c-3.1,0-4.8,1.2-4.8,3.2c0,0.4,0.1,0.8,0.2,1.1l-7.1,1.2
	c0,0-0.3-1.2-0.3-2.7c0-5.3,4.7-8.8,12.3-8.8c8.2,0,12.6,4.1,12.6,11.1v9.1c0,1.3,0.5,1.8,1.5,1.8c0.3,0,0.7-0.1,1-0.2L1025.8,172.4
	L1025.8,172.4z M1015,162.7v-2.2h-0.3c-6.7,0.2-9.8,1.1-9.8,3.7c0,1.8,1.5,2.8,3.9,2.8C1012.7,166.9,1015,164.9,1015,162.7
	L1015,162.7z"/>
<path class="st0" d="M1057.4,155.4v17.1h-8.1v-15.7c0-3.3-1.6-5.5-4.9-5.5c-4.1,0-5.9,3.6-5.9,6.8v14.4h-8.1v-27.8l6.3-0.2
	c0.6,1.8,1,4.7,1,5.8h0.2c1.4-3.3,4.1-6,9-6C1053.9,144.4,1057.4,149.1,1057.4,155.4L1057.4,155.4z"/>
<path class="st0" d="M1091.5,130.9v41.6l-6.5,0.2c-0.4-1.7-0.8-4.7-0.8-5.5h-0.2c-1.5,3.3-4.5,5.6-9.3,5.6c-7.6,0-12.3-6-12.3-14.2
	c0-9.2,5.7-14.4,12.7-14.4c4,0,6.7,1.5,8.2,3.8v-17.2L1091.5,130.9L1091.5,130.9L1091.5,130.9z M1083.4,159.6v-1.9
	c0-3.1-2.3-6.5-6.6-6.5c-3.8,0-6.2,3-6.2,7.6s2.5,7.4,6.4,7.4C1080.9,166.1,1083.4,162.8,1083.4,159.6L1083.4,159.6z"/>
<path class="st0" d="M418.8,212.9l-9.9,2.6V208l16.7-3.5h1.3v38.9h-8.1V212.9z"/>
<path class="st0" d="M460.4,204.4v6.8h-17.1l-0.7,8.2l0.2,0.1c1.4-1.2,4-2.1,7-2.1c8.1,0,13.5,5.2,13.5,12.8
	c0,8.1-6.4,13.4-15.7,13.4c-10.8,0-15.2-7.4-15.2-7.4l6.3-4.6c0,0,3.2,4.8,8.8,4.8c4.2,0,7.2-2.5,7.2-6.2s-2.6-6.2-6.5-6.2
	c-3.7,0-5.4,2.1-5.5,2.5H435l1.7-22.1H460.4L460.4,204.4z"/>
<path class="st0" d="M479.5,222.7c0,0-1.7,1.2-4.8,1.2c-4.3,0-6.5-2.3-6.5-6.9v-6h-2.5v-3.6h2.7v-4.6l4.5-0.2v4.7h5.7v3.6h-5.7v5.7
	c0,2.2,0.8,3.1,2.7,3.1c1.7,0,2.6-0.9,2.6-0.9L479.5,222.7L479.5,222.7z"/>
<path class="st0" d="M497.3,213.7v10h-4.7v-9.1c0-1.9-0.9-3.2-2.8-3.2c-2.4,0-3.4,2.1-3.4,4v8.4h-4.7v-24.3h4.6v10.7h0.1
	c0.8-1.7,2.3-2.8,4.9-2.8C495.3,207.2,497.3,210,497.3,213.7L497.3,213.7z"/>
<path class="st0" d="M547.5,218.5l-7.7,1.2c0-3.6-2.2-8.4-8-8.4s-10,4.7-10,12.6c0,9,5.4,12.6,11.1,12.6c5,0,8.4-3.3,10-5.5l5,5.2
	c-1.7,2.5-6.5,7.6-15.2,7.6c-11.6,0-19.3-7.5-19.3-19.9s7.7-19.9,18.3-19.9C543.3,204,547.5,212.2,547.5,218.5L547.5,218.5z"/>
<path class="st0" d="M580.2,229.4c0,8.4-5.8,14.3-14.6,14.3s-14.7-5.9-14.7-14.3s5.8-14.3,14.7-14.3S580.2,221,580.2,229.4z
	 M572,229.4c0-4.5-2.5-7.7-6.4-7.7s-6.5,3.2-6.5,7.7s2.5,7.7,6.5,7.7S572,233.9,572,229.4z"/>
<path class="st0" d="M612.3,226.2v17.1h-8.1v-15.7c0-3.3-1.7-5.5-4.9-5.5c-4.1,0-5.9,3.6-5.9,6.8v14.4h-8.1v-27.8l6.3-0.2
	c0.6,1.8,1,4.7,1,5.8h0.2c1.4-3.3,4.1-6,9-6C608.9,215.1,612.3,219.9,612.3,226.2L612.3,226.2z"/>
<path class="st0" d="M628.7,215.5h8.7v6.1h-8.7v21.7h-8v-21.7h-4.1v-6.1h4.1v-2.1c0-7.6,5-12.1,11.8-12.1c3.9,0,6.4,1.3,6.6,1.4
	l-2.4,6.5c-0.3-0.2-1.5-1.1-3.2-1.1c-3,0-4.8,2.1-4.8,5.2L628.7,215.5L628.7,215.5z"/>
<path class="st0" d="M662.2,234.3l3.8,4.4c-1.9,2.5-6,4.9-12,4.9c-9.4,0-15-5.9-15-14.3s5.6-14.3,14.2-14.3
	c8.1,0,12.8,5.5,12.8,13.2c0,1.8-0.2,3-0.2,3H647c0.7,3.7,3.3,6.3,7.9,6.3C658.9,237.5,661,235.6,662.2,234.3L662.2,234.3z
	 M647.1,227h11.6c-0.1-3.3-2.1-5.8-5.4-5.8C650.1,221.2,647.7,223.3,647.1,227L647.1,227z"/>
<path class="st0" d="M690.5,215.9l-2.1,7.8c-0.9-0.7-2-1-3.2-1c-3.1,0-5.7,2.5-5.7,7.1v13.4h-8.1v-27.8l6.3-0.2c0.6,1.8,1,5,1,6.1
	h0.2c1.1-3.5,3.2-6.2,7.4-6.2C687.9,215.1,689.2,215.4,690.5,215.9L690.5,215.9z"/>
<path class="st0" d="M714.7,234.3l3.8,4.4c-1.9,2.5-5.9,4.9-12,4.9c-9.4,0-15-5.9-15-14.3s5.6-14.3,14.2-14.3
	c8.1,0,12.8,5.5,12.8,13.2c0,1.8-0.2,3-0.2,3h-18.8c0.7,3.7,3.3,6.3,7.9,6.3C711.4,237.5,713.5,235.6,714.7,234.3L714.7,234.3z
	 M699.6,227h11.6c-0.1-3.3-2.1-5.8-5.4-5.8C702.6,221.2,700.2,223.3,699.6,227L699.6,227z"/>
<path class="st0" d="M750.8,226.2v17.1h-8.1v-15.7c0-3.3-1.7-5.5-4.9-5.5c-4.1,0-5.9,3.6-5.9,6.8v14.4h-8.1v-27.8l6.3-0.2
	c0.6,1.8,1,4.7,1,5.8h0.2c1.4-3.3,4.1-6,9-6C747.4,215.1,750.8,219.9,750.8,226.2L750.8,226.2z"/>
<path class="st0" d="M781.9,224.9c0,1.2-0.2,2.1-0.2,2.1l-7.1,0.4c0.1-0.1,0.1-0.7,0.1-1.2c0-2.4-1.5-4.4-4.6-4.4
	c-3.7,0-6.1,3-6.1,7.5c0,4.7,2.4,7.8,7.2,7.8c4.4,0,6.8-2.2,7.6-3.2l3.9,5.1c-1.8,2.2-5.8,4.8-12.1,4.8c-9.3,0-14.9-5.9-14.9-14.2
	s5.9-14.4,14.4-14.4C777.6,215.1,781.9,219.5,781.9,224.9L781.9,224.9z"/>
<path class="st0" d="M809,234.3l3.8,4.4c-1.9,2.5-5.9,4.9-12,4.9c-9.4,0-15-5.9-15-14.3S791.4,215,800,215c8.1,0,12.8,5.5,12.8,13.2
	c0,1.8-0.2,3-0.2,3h-18.8c0.7,3.7,3.3,6.3,7.9,6.3C805.7,237.5,807.8,235.6,809,234.3L809,234.3z M793.9,227h11.6
	c-0.1-3.3-2.1-5.8-5.4-5.8C796.9,221.2,794.5,223.3,793.9,227L793.9,227z"/>
<path class="st0" d="M858,229.4c0,8.4-5.8,14.3-14.6,14.3s-14.7-5.9-14.7-14.3s5.8-14.3,14.7-14.3S858,221,858,229.4z M849.8,229.4
	c0-4.5-2.5-7.7-6.4-7.7s-6.5,3.2-6.5,7.7s2.5,7.7,6.5,7.7S849.8,233.9,849.8,229.4z"/>
<path class="st0" d="M873,215.5h8.7v6.1H873v21.7h-8v-21.7h-4.1v-6.1h4.1v-2.1c0-7.6,5-12.1,11.8-12.1c3.9,0,6.4,1.3,6.6,1.4
	l-2.4,6.5c-0.3-0.2-1.5-1.1-3.2-1.1c-3,0-4.8,2.1-4.8,5.2L873,215.5L873,215.5z"/>
<path class="st0" d="M917.4,241.6c0,0-2.9,2-8.3,2c-7.3,0-11.1-4-11.1-11.8v-10.2h-4.2v-6.1h4.6v-7.8l7.8-0.3v8.1h9.8v6.1h-10v9.8
	c0,3.7,1.4,5.4,4.5,5.4c2.8,0,4.5-1.5,4.5-1.5L917.4,241.6z"/>
<path class="st0" d="M947.9,226.2v17.1h-8.1v-15.7c0-3.3-1.6-5.5-4.9-5.5c-4.1,0-5.9,3.5-5.9,6.8v14.4h-8.1v-41.6h7.9l0.1,18.3h0.2
	c1.4-2.8,3.9-4.9,8.4-4.9C944.4,215.1,947.9,219.9,947.9,226.2L947.9,226.2z"/>
<path class="st0" d="M975.9,234.3l3.8,4.4c-1.9,2.5-6,4.9-12,4.9c-9.4,0-15-5.9-15-14.3s5.6-14.3,14.2-14.3
	c8.1,0,12.8,5.5,12.8,13.2c0,1.8-0.2,3-0.2,3h-18.8c0.7,3.7,3.3,6.3,7.9,6.3C972.6,237.5,974.7,235.6,975.9,234.3L975.9,234.3z
	 M960.8,227h11.6c-0.1-3.3-2.1-5.8-5.4-5.8C963.8,221.2,961.4,223.3,960.8,227L960.8,227z"/>
<path class="st0" d="M1006.3,211.3v9h15.1v6.5h-15.1v9.6h17.4v6.9h-25.8v-38.9h25.8v6.9L1006.3,211.3L1006.3,211.3z"/>
<path class="st0" d="M1055.4,215.5v27.8l-6.5,0.2c-0.5-1.8-0.9-4.7-0.9-5.5h-0.1c-1.4,3.2-3.9,5.7-8.6,5.7
	c-6.9,0-10.4-4.8-10.4-11.1v-17.1h8.1v15.7c0,3.3,1.6,5.5,4.9,5.5c3.7,0,5.5-3.6,5.5-6.8v-14.4L1055.4,215.5L1055.4,215.5z"/>
<path class="st0" d="M1081,215.9l-2.1,7.8c-0.9-0.7-1.9-1-3.2-1c-3.1,0-5.7,2.5-5.7,7.1v13.4h-8.1v-27.8l6.3-0.2c0.6,1.8,1,5,1,6.1
	h0.2c1.1-3.5,3.2-6.2,7.4-6.2C1078.5,215.1,1079.8,215.4,1081,215.9L1081,215.9z"/>
<path class="st0" d="M1111.4,229.4c0,8.4-5.8,14.3-14.6,14.3s-14.7-5.9-14.7-14.3s5.8-14.3,14.7-14.3S1111.4,221,1111.4,229.4z
	 M1103.2,229.4c0-4.5-2.5-7.7-6.4-7.7s-6.5,3.2-6.5,7.7s2.5,7.7,6.5,7.7S1103.2,233.9,1103.2,229.4z"/>
<path class="st0" d="M1145.6,229.4c0,9.1-5.5,14.3-12.7,14.3c-3.9,0-6.7-1.6-8.2-3.8v15.5h-8.1v-39.9l6.4-0.2c0.6,1.7,1,4.7,0.9,5.5
	h0.2c1.5-3.2,4.4-5.6,9.3-5.6C1140.9,215.1,1145.6,221.1,1145.6,229.4L1145.6,229.4z M1137.4,229.4c0-4.5-2.5-7.5-6.4-7.5
	s-6.4,3.3-6.4,6.5v1.9c0,3.1,2.3,6.5,6.6,6.5C1135,236.9,1137.4,233.9,1137.4,229.4L1137.4,229.4z"/>
<path class="st0" d="M1172.6,234.3l3.8,4.4c-1.9,2.5-6,4.9-12,4.9c-9.4,0-15-5.9-15-14.3s5.6-14.3,14.2-14.3
	c8.1,0,12.8,5.5,12.8,13.2c0,1.8-0.2,3-0.2,3h-18.8c0.7,3.7,3.3,6.3,7.9,6.3C1169.3,237.5,1171.4,235.6,1172.6,234.3L1172.6,234.3z
	 M1157.5,227h11.6c-0.1-3.3-2.1-5.8-5.4-5.8C1160.5,221.2,1158.1,223.3,1157.5,227z"/>
<path class="st0" d="M1209.1,243.1c0,0-1.7,0.5-3.9,0.5c-3.8,0-5.9-1.5-6.4-4.4c-0.9,1.7-3.2,4.4-9,4.4s-9.4-3-9.4-7.7
	c0-6.9,7.2-8.6,17.6-8.8h0.4v-1.2c0-2.8-1.7-4.7-5.1-4.7c-3.1,0-4.8,1.2-4.8,3.2c0,0.4,0.1,0.8,0.2,1.1l-7.1,1.2
	c0,0-0.4-1.2-0.4-2.7c0-5.3,4.7-8.8,12.3-8.8c8.2,0,12.6,4.1,12.6,11.1v9.1c0,1.3,0.5,1.8,1.5,1.8c0.4,0,0.7-0.1,1-0.2L1209.1,243.1
	L1209.1,243.1z M1198.4,233.4v-2.2h-0.4c-6.7,0.2-9.8,1.1-9.8,3.7c0,1.8,1.5,2.8,3.9,2.8C1196,237.7,1198.4,235.7,1198.4,233.4z"/>
<path class="st0" d="M1240.7,226.2v17.1h-8.1v-15.7c0-3.3-1.7-5.5-4.9-5.5c-4.1,0-5.9,3.6-5.9,6.8v14.4h-8.1v-27.8l6.3-0.2
	c0.6,1.8,1,4.7,1,5.8h0.2c1.4-3.3,4.1-6,9-6C1237.3,215.1,1240.7,219.9,1240.7,226.2L1240.7,226.2z"/>
<path class="st0" d="M1272.9,210.9c-3.5,0-5.7,1.7-5.7,4.3c0,7.1,20.2,3.1,20.2,17.7c0,6.1-4.9,10.8-14.8,10.8
	c-8.1,0-13.5-3.5-15.7-5.4l4.9-6c1.8,1.7,6,4.7,11,4.7c4.2,0,6.2-1.5,6.2-3.9c0-7.8-20.3-3.7-20.3-17.4c0-6.5,5.5-11.7,13.9-11.7
	c10.4,0,13.6,6,14.4,10.2l-7.5,1.8C1279.5,214,1277.5,210.9,1272.9,210.9L1272.9,210.9z"/>
<path class="st0" d="M1320.8,229.4c0,8.4-5.8,14.3-14.6,14.3s-14.7-5.9-14.7-14.3s5.8-14.3,14.7-14.3S1320.8,221,1320.8,229.4z
	 M1312.6,229.4c0-4.5-2.5-7.7-6.4-7.7c-4,0-6.5,3.2-6.5,7.7s2.5,7.7,6.5,7.7S1312.6,233.9,1312.6,229.4z"/>
<path class="st0" d="M1350.6,224.9c0,1.2-0.2,2.1-0.2,2.1l-7.1,0.4c0.1-0.1,0.1-0.7,0.1-1.2c0-2.4-1.5-4.4-4.6-4.4
	c-3.7,0-6.1,3-6.1,7.5c0,4.7,2.4,7.8,7.2,7.8c4.4,0,6.8-2.2,7.6-3.2l3.9,5.1c-1.8,2.2-5.8,4.8-12.1,4.8c-9.3,0-14.9-5.9-14.9-14.2
	s5.9-14.4,14.4-14.4C1346.3,215.1,1350.6,219.5,1350.6,224.9L1350.6,224.9z"/>
<path class="st0" d="M1360.1,211.6c-2.9,0-5.2-2.1-5.2-5s2.3-5,5.2-5s5.2,2.1,5.2,5S1363,211.6,1360.1,211.6z M1356,215.5l8.1-0.2
	v28.1h-8.1V215.5L1356,215.5z"/>
<path class="st0" d="M1392.5,234.3l3.8,4.4c-1.9,2.5-5.9,4.9-12,4.9c-9.4,0-15-5.9-15-14.3s5.6-14.3,14.2-14.3
	c8.1,0,12.8,5.5,12.8,13.2c0,1.8-0.2,3-0.2,3h-18.8c0.7,3.7,3.3,6.3,7.9,6.3C1389.2,237.5,1391.3,235.6,1392.5,234.3L1392.5,234.3z
	 M1377.4,227h11.6c-0.1-3.3-2.1-5.8-5.4-5.8C1380.4,221.2,1378,223.3,1377.4,227z"/>
<path class="st0" d="M1422.6,241.6c0,0-2.9,2-8.3,2c-7.3,0-11.1-4-11.1-11.8v-10.2h-4.2v-6.1h4.6v-7.8l7.8-0.3v8.1h9.8v6.1h-9.8v9.8
	c0,3.7,1.4,5.4,4.5,5.4c2.8,0,4.5-1.5,4.5-1.5L1422.6,241.6z"/>
<path class="st0" d="M1430.2,255.7c-3.2,0-5.2-1.1-5.2-1.1l1.2-6.2c0,0,1.5,0.8,3.4,0.8c2.5,0,3.9-1.2,4.8-3.3l0.5-1.4l-11.5-29.1
	h8.7l5.7,16.5c0.5,1.5,0.7,2.2,0.9,3.7h0.1c0.3-1.5,0.5-2.3,0.9-3.7l5.5-16.5h8.1l-11.8,31.5
	C1439.7,251.8,1436.3,255.7,1430.2,255.7L1430.2,255.7z"/>
<path class="st0" d="M421.6,286.2h8.7v6.1h-8.7V314h-8v-21.7h-4.1v-6.1h4.1v-2.1c0-7.6,5-12.1,11.8-12.1c3.9,0,6.4,1.3,6.6,1.4
	l-2.4,6.5c-0.3-0.2-1.5-1.1-3.2-1.1c-3,0-4.8,2.1-4.8,5.2V286.2z"/>
<path class="st0" d="M461.1,300.1c0,8.4-5.8,14.3-14.6,14.3s-14.7-5.9-14.7-14.3s5.8-14.3,14.7-14.3S461.1,291.8,461.1,300.1z
	 M452.9,300.1c0-4.5-2.5-7.7-6.4-7.7s-6.5,3.2-6.5,7.7s2.5,7.7,6.5,7.7S452.9,304.7,452.9,300.1z"/>
<path class="st0" d="M485.4,286.7l-2.1,7.8c-0.9-0.7-2-1-3.2-1c-3.1,0-5.7,2.5-5.7,7.1V314h-8.1v-27.8l6.3-0.2c0.6,1.8,1,5,1,6.1
	h0.2c1.1-3.5,3.2-6.2,7.4-6.2C482.9,285.8,484.2,286.1,485.4,286.7L485.4,286.7z"/>
<path class="st0" d="M508.5,282v9h15.1v6.5h-15.1v9.6h17.4v6.9h-25.8v-38.9h25.8v6.9H508.5L508.5,282z"/>
<path class="st0" d="M555.7,295.7c0,1.2-0.2,2.1-0.2,2.1l-7.1,0.4c0.1-0.1,0.1-0.7,0.1-1.2c0-2.4-1.5-4.4-4.6-4.4
	c-3.7,0-6.1,3-6.1,7.5c0,4.7,2.4,7.8,7.2,7.8c4.4,0,6.8-2.2,7.6-3.2l4,5.1c-1.8,2.2-5.8,4.8-12.1,4.8c-9.3,0-14.9-5.9-14.9-14.2
	s5.9-14.4,14.5-14.4C551.4,285.9,555.7,290.2,555.7,295.7L555.7,295.7z"/>
<path class="st0" d="M589,300.1c0,8.4-5.8,14.3-14.6,14.3s-14.7-5.9-14.7-14.3s5.8-14.3,14.7-14.3S589,291.8,589,300.1z
	 M580.8,300.1c0-4.5-2.5-7.7-6.4-7.7s-6.5,3.2-6.5,7.7s2.5,7.7,6.5,7.7S580.8,304.7,580.8,300.1z"/>
<path class="st0" d="M594.2,272.4h8.1V314h-8.1V272.4z"/>
<path class="st0" d="M636.7,300.1c0,8.4-5.8,14.3-14.6,14.3s-14.7-5.9-14.7-14.3s5.8-14.3,14.7-14.3S636.7,291.8,636.7,300.1z
	 M628.5,300.1c0-4.5-2.5-7.7-6.4-7.7s-6.5,3.2-6.5,7.7s2.5,7.7,6.5,7.7S628.5,304.7,628.5,300.1z"/>
<path class="st0" d="M669.1,317.4c0,4.4-3.2,9-15.2,9c-10.2,0-14.8-3-14.8-7.2c0-2.8,1.8-4.7,4.7-5.6c-2-1.2-3.2-3-3.2-5.2
	c0-2.7,1.8-4.4,4-5.2c-2-1.8-3-4.2-3-7c0-6.1,4.9-10.3,12.3-10.3c2.8,0,5.3,0.6,7.3,1.7c1.9-1.1,2.7-3.7,2.7-6.7l6.1,1.6
	c0,4.4-3.3,7-5.8,7.5c1.5,1.7,2.2,3.8,2.2,6.2c0,6.1-5,10.2-12.4,10.2c-1.9,0-3.6-0.2-5.1-0.8c-1.3,0.3-2,0.8-2,1.7
	c0,1.4,1.2,1.9,4.5,1.9h6.2C664.4,309.1,669.1,311.7,669.1,317.4L669.1,317.4z M661.7,317.8c0-2-1.5-2.5-4.8-2.5h-5.2
	c-4,0-5.4,1.1-5.4,2.7c0,2,2.1,3,7.7,3S661.7,319.8,661.7,317.8z M653.9,300.5c3.1,0,5-1.7,5.1-4.3s-2-4.4-4.9-4.5c-3,0-5,1.7-5,4.3
	C649,298.6,650.9,300.4,653.9,300.5L653.9,300.5z"/>
<path class="st0" d="M677,282.3c-2.9,0-5.2-2.1-5.2-5s2.3-5,5.2-5s5.2,2.1,5.2,5S679.9,282.3,677,282.3z M672.9,286.2l8.1-0.2v28
	h-8.1V286.2z"/>
<path class="st0" d="M712.3,295.7c0,1.2-0.2,2.1-0.2,2.1l-7.1,0.4c0.1-0.1,0.1-0.7,0.1-1.2c0-2.4-1.5-4.4-4.6-4.4
	c-3.7,0-6.1,3-6.1,7.5c0,4.7,2.4,7.8,7.2,7.8c4.4,0,6.8-2.2,7.6-3.2l3.9,5.1c-1.8,2.2-5.8,4.8-12.1,4.8c-9.3,0-14.9-5.9-14.9-14.2
	S692,286,700.6,286C708,285.9,712.3,290.2,712.3,295.7L712.3,295.7z"/>
<path class="st0" d="M745.1,313.9c0,0-1.7,0.5-3.9,0.5c-3.8,0-5.9-1.5-6.4-4.4c-0.9,1.7-3.2,4.4-9,4.4s-9.4-3-9.4-7.7
	c0-6.9,7.2-8.6,17.6-8.8h0.3v-1.2c0-2.8-1.7-4.7-5.1-4.7c-3.1,0-4.8,1.2-4.8,3.2c0,0.4,0.1,0.8,0.2,1.1l-7.1,1.2
	c0,0-0.3-1.2-0.3-2.7c0-5.3,4.7-8.8,12.3-8.8c8.2,0,12.6,4.1,12.6,11.1v9.1c0,1.3,0.5,1.8,1.5,1.8c0.3,0,0.7-0.1,1-0.2L745.1,313.9
	L745.1,313.9z M734.3,304.2V302H734c-6.7,0.2-9.8,1.1-9.8,3.7c0,1.8,1.5,2.8,3.9,2.8C731.9,308.4,734.3,306.4,734.3,304.2
	L734.3,304.2z"/>
<path class="st0" d="M749.7,272.4h8.1V314h-8.1V272.4z"/>
<path class="st0" d="M785.6,282v9h15.1v6.5h-15.1v9.6H803v6.9h-25.8v-38.9H803v6.9H785.6z"/>
<path class="st0" d="M832.8,295.7c0,1.2-0.2,2.1-0.2,2.1l-7.1,0.4c0.1-0.1,0.1-0.7,0.1-1.2c0-2.4-1.5-4.4-4.6-4.4
	c-3.7,0-6.1,3-6.1,7.5c0,4.7,2.4,7.8,7.2,7.8c4.4,0,6.8-2.2,7.6-3.2l3.9,5.1c-1.8,2.2-5.8,4.8-12.1,4.8c-9.3,0-14.9-5.9-14.9-14.2
	S812.5,286,821,286C828.5,285.9,832.8,290.2,832.8,295.7L832.8,295.7z"/>
<path class="st0" d="M866,300.1c0,8.4-5.8,14.3-14.6,14.3s-14.7-5.9-14.7-14.3s5.8-14.3,14.7-14.3S866,291.8,866,300.1z
	 M857.8,300.1c0-4.5-2.5-7.7-6.4-7.7s-6.5,3.2-6.5,7.7s2.5,7.7,6.5,7.7S857.8,304.7,857.8,300.1z"/>
<path class="st0" d="M898.2,296.9V314h-8.1v-15.7c0-3.3-1.7-5.5-4.9-5.5c-4.1,0-5.9,3.6-5.9,6.8V314h-8.1v-27.8l6.3-0.2
	c0.6,1.8,1,4.7,1,5.8h0.2c1.4-3.3,4.1-6,9-6C894.7,285.9,898.2,290.6,898.2,296.9L898.2,296.9z"/>
<path class="st0" d="M932.4,300.1c0,8.4-5.8,14.3-14.6,14.3s-14.7-5.9-14.7-14.3s5.8-14.3,14.7-14.3S932.4,291.8,932.4,300.1z
	 M924.2,300.1c0-4.5-2.5-7.7-6.4-7.7s-6.5,3.2-6.5,7.7s2.5,7.7,6.5,7.7S924.2,304.7,924.2,300.1z"/>
<path class="st0" d="M982.6,297v17h-8.1v-15.6c0-3.4-1.6-5.5-4.8-5.5c-4,0-5.6,3.6-5.6,6.8v14.4H956v-15.6c0-3.4-1.6-5.5-4.8-5.5
	c-3.9,0-5.5,3.6-5.5,6.8v14.4h-8.1v-27.8l6.3-0.2c0.6,1.7,1,4.7,1,5.8h0.2c1.3-3.3,3.9-5.9,8.7-5.9s8.1,2.5,9.6,6.3
	c1.2-3.5,3.9-6.3,9-6.3C979.1,285.9,982.6,290.7,982.6,297L982.6,297z"/>
<path class="st0" d="M993,282.3c-2.9,0-5.2-2.1-5.2-5s2.3-5,5.2-5s5.2,2.1,5.2,5S995.9,282.3,993,282.3z M989,286.2l8.1-0.2v28H989
	V286.2z"/>
<path class="st0" d="M1028.3,295.7c0,1.2-0.2,2.1-0.2,2.1l-7.1,0.4c0.1-0.1,0.1-0.7,0.1-1.2c0-2.4-1.5-4.4-4.6-4.4
	c-3.7,0-6.1,3-6.1,7.5c0,4.7,2.4,7.8,7.2,7.8c4.4,0,6.8-2.2,7.6-3.2l3.9,5.1c-1.8,2.2-5.8,4.8-12.1,4.8c-9.3,0-14.9-5.9-14.9-14.2
	s5.9-14.4,14.4-14.4C1024,285.9,1028.3,290.2,1028.3,295.7L1028.3,295.7z"/>
<path class="st0" d="M1049.2,294.9c0-2.2-1.7-3.7-4.5-3.7c-2.7,0-4.1,1.2-4.1,2.9c0,5.6,16.3,1.2,16.3,11.9c0.1,5-4.5,8.3-12.2,8.3
	c-8.4,0-12.3-3.5-13-4.1l3.8-4.9c0.6,0.5,4.7,3.4,8.9,3.4c2.8,0,4.2-0.8,4.2-2.2c0-4.5-15.6-1.8-15.6-11.9c0-5.4,4.7-8.8,11.9-8.8
	c6.7,0,11.4,3.2,11.4,7.8c0,1.1-0.2,1.9-0.2,1.9l-7.1,0.4C1049.1,295.7,1049.1,295.3,1049.2,294.9L1049.2,294.9z"/>
<path class="st1" d="M80.5,326c0,0,0.1,0,0.1,0.1C80.5,326.1,80.5,326,80.5,326z"/>
<path class="st2" d="M184.9,229.6c-0.7,0.7-2.8,5.1-4.6,5.8c-2.9,1.2-10.6,5.3-13.3,5.4c-11.6,5.3-34.6,12.7-47.1,17.5
	c-9.8,8.3-16.5,20.4-23.3,30.7c-1.7,1.9-5.1,7.2-7.3,8.8c-3.6,3.2-7.3,8.5-10.8,12.2c-1.3,2.4-3.6,3.2-3.7,7.2
	c0.5,2.1,3.4,7.9,5.5,8.8c1.9,1.2,7.9,6.4,9.9,7.6c0.8,0.6,1.5,1.2,2.3,1.8c0.7,0.4,1.3,0.8,2,1.2c7.4,5.1,14.9,10.3,23.1,13.9
	c1.1,0.8,3.2,1.5,4.7,2.3c2.6,1.2,8.1,3.3,10.8,4.3c2.1,0.3,7.2,1.6,8.8,2.2c11.5,5.1,25.8,6.2,38.3,5.3h0.7
	c1.8,0.1,8.2-0.5,9.9-0.7c9.8-1.7,21.2-3,30.4-5.5c6.6-1.7,13.9-4.5,20.2-7c3.4-1.5,6.6-2.5,9.6-4.3c1.8-1.2,4.2-2.5,6-3.6
	c3.6-2.2,7.6-4.1,10.9-6.7c0.5-0.3,1.1-0.7,1.6-1c0.6-0.4,2.9-1.6,3.3-1.8c10.6-5.8,22.2-13.9,31-22.4c5.1-4.8,10-9.8,15.2-14.5
	c13.8-16,25.4-34.2,35.4-52.7c5.8-12.6,8.8-30.2,10.2-43c0.8-8.3,0.5-20.7-0.7-29.1c-2.5-17.2-4.7-33.2-10.4-49.7
	c-2.4-13-7.9-24.9-14.3-36.2c-3.1-5.5-5.3-8.1-10.1-14.9c-0.9-1.2-2.8-0.4-2.4,1c0.7,3.1,0.2,8.1,0.1,11c-0.1,3.2,1.7,12.7,2,15.8
	c0.1,0.9,0.8,3.7,1,4.2c5.6,11.6-0.2,20.5-7.4,27.2c-6.2,3.9-12.7,8.3-17.3,14.1c-7,3.4-15.8,8.1-23.6,5.8
	c-5.6-0.8-10.2-4.2-14.9-7.1c-9.8-4.8-21.5-14.6-32-17.1c-8.3-1.4-12.1,4.2-17.9,8.3c-0.9,0.6-1.7,1.3-2,2.5
	c-1.4,3.4-4.9,5.5-7.2,8.4c-4.1,5.1-8,13.1-11.3,18.8c-2.2,6.2-4.7,8.7-5.7,14.2c-0.7,3.1-0.7,9.5,1.2,10.9c0.7,0.6,0.9,1.9,1.3,2.7
	C200,204.3,191.7,218.9,184.9,229.6L184.9,229.6z"/>
<path class="st2" d="M97.4,228.2c2.5,3.3,12.5-1.5,14.2-1c3.9,0.2,8.1-0.9,12.2-1.4c2.5-0.8,4.8-2.6,6.8-4.4
	c1.1-1.1,3.8-5.3,6.1-4.7c2,0.6-1,4.9-1,5.7c-0.8,1.3-0.4,2.9-1,4.3c0,1,0.7,1.5,0.6,2.5c0,1.4,1.6,1.7,1.7,2.9
	c0.1,2.6,3.5,1.2,5.3,0.8c1.5,0.1,2.9,0.4,3.9-0.6c4.4-4.6,5.5-11.1,9.5-15.8c2.8-2.8,3.1-4,7.4-3.6c2.5-1.5,6.2-1.3,8.9-1.9
	c9.3-5.8,8.1-8.6,2.9-17.8c-0.1-0.1-0.3-3.2-0.6-3.9c0-3.1,3-6,1.8-9.4c-1.5-4.6-4.7-8.8-4.4-13.8c0.4-4.5,3.6-7.9,6.4-11
	c3.7-5.5,8.7-9.7,12.9-14.7l2.4-2.4c3-3.9,4.9-8.6,8.1-12.4c0.5-0.1,5.8-7.4,8.1-8.2c3.3,0.4,6.7-2.2,9.8-2.6
	c2.8-0.3,9-0.9,11.6-0.5c3,0.3,7.1,0.4,9.9,0.7c1.1,0.8,6.7,2.2,8.5,3.4c3.8,2.9,6.5,6.6,11.6,11.2c0.1,0,3.6,2.7,4,2.9
	c0.1,0,2.7,1.4,2.7,1.4c0.4,0.1,0.4,0.1,0,0c7.4,5.1,17.5,1.7,25.4,0.4c5.2-2.8,12.5-7.4,14.9-12.6c3.6-2.9,6.2-6.8,6.9-11.5
	c2.1-5.8,2.1-15.5,3-21.2c-0.2-2-1.2-7-1.5-8.8c-0.7-3.2-1-7.1-0.4-11.5c-0.6-2.8-1.5-5.7-1.5-8.7c-2.3-4.9-4.4-10.7-9.3-13.6
	c-2-0.9-3.8-2-4.9-4c-4.8-6-15.2-12.7-21.8-15.2c-1.9-1-5.6-2.6-7.3-3.3c-3.7-1.1-7.4-3.1-10.7-5c-2.4-1.1-8.1-2.9-10.1-4
	c-0.6-0.3-1.7-0.7-2.3-0.9c-4-2.1-8.4-3.1-12.5-4.7c-0.3-0.3-0.6-0.6-1-0.6c-0.7-0.3-1.3-0.8-1.9-1c-0.5-0.2-0.9-0.5-1.4-0.7
	c-7.6-4.2-17.2-4.2-26.2-4.8c-3.7-0.3-12.5-1.2-16.3-1.3c0.1,0.1-3.8-0.1-3.8-0.2c-0.8-0.1-1.6-0.1-2.4-0.2c-0.1,0.1-0.3,0-0.4-0.1
	c-2.8-0.1-6-0.1-8.5-0.4c-1.4,0.1-5.5,0.2-6.1,0c0,0.1-1.8,0.3-2.4,0.4c0,0.1-2,0.5-3,0.6c-6.7,1.2-17.1,2.2-22.1,3.4
	c-0.2,0-0.4,0.1-0.7,0.1c-2.9,0.9-9.6,2-13.2,2.6c-5.1,1.6-8.3,2.5-12.5,4.1c-2.2,1.1-5.4,2.3-7.7,3.2c-3.8,1.9-7.8,4.1-11.6,6.2
	c-0.2,0.1-0.4,0.3-0.6,0.4c-0.1,0.1-0.3,0.2-0.4,0.3c-0.1,0-0.2,0-0.2,0.1c-1.2,0.7-2.4,1.4-3.6,2.2c-0.9,0.6-2.6,1.7-3.6,2.3
	c-0.9,0.9-3.3,1.8-4.3,2.6c-0.1,0.1-0.2,0.2-0.4,0.3c-0.9,0.6-1.8,1.1-2.7,1.7c-0.3,0.2-0.6,0.5-1,0.7c-0.1,0.1-0.2,0.2-0.4,0.3
	s-0.4,0.3-0.6,0.4c-0.1,0.1-0.2,0.2-0.4,0.3c-0.4,0.2-0.7,0.4-1,0.7c-1,0.7-2.1,1.2-3,2c-0.3,0.2-0.7,0.4-1,0.7
	c-0.9,0.7-1.8,1.2-2.6,2c-0.1,0.1-0.2,0.2-0.4,0.3c-0.1,0.1-0.2,0.2-0.4,0.3c-0.5,0.4-1.1,0.9-1.6,1.3c-0.5,0.3-0.8,0.7-1.3,1.1
	c-0.1,0.1-0.2,0.2-0.4,0.3c-0.3,0.2-0.7,0.5-1,0.7c-0.9,0.7-1.5,1.4-2.3,2c-0.7,0.5-1,0.9-1.3,1.7c-0.2,0.2-1.5,1.7-1.7,2
	c-1.7,1.7-3.1,3.7-4.7,5.6c-0.3,0.3-0.4,0.4-0.6,0.7c0,0.1-1.5,2-1.7,2.3c-0.1,0.1-0.2,0.2-0.4,0.3c-0.4,0.3-1,0.7-1.3,1.1l-0.3,0.3
	c-1.5,1.2-2.7,2.6-4.2,3.7c-1.4,0.8-2.5,2.3-3.7,3.2c-0.7,0.7-1.5,1.6-2.3,2.4l-0.7,0.7c-0.3,0.4-0.7,0.6-1,1
	c-3.1,3.9-5.4,6.5-8.2,11c-0.8,1.6-2.5,4.9-3.4,6.5c-0.5,0.8-1.1,2-1.6,3c-3.9,7.2-7.1,14.9-9.8,21.8c-0.4,2.5-2,7-3,9
	c-1.1,3.3-2.8,7.8-4,11.1c-0.1,0.3-0.5,1.2-0.6,1.3c-0.6,2.2-3,7.6-3.3,9.6c-1.2,3-2,11.7-2.7,13.9c-0.1,2.2-0.8,4.6-0.8,6.9
	c-0.5,8.3-0.6,16.9-0.1,25.2c-0.1,0.1,0,0.2,0,0.3c1,13.4,5.3,25.7,8.7,38.4c1,3.1,3.9,11.5,4.8,13.5c1.2,1.8,2.9,5.8,3.3,8.6
	c0.5,0.7,1.2,3.6,1.9,4.6c1.2,2.3,2.4,5.6,4.2,6.3c1.1,0.6,8.1,4.5,11,5.3c2.5,0.9,5.7,0.9,8,1.3c1.9,0,3.7-0.3,5.6-0.3
	c3.7-0.5,10.1-0.1,12.6-2.9c0.8-0.6,2.8-3,3.1-4.4c-0.2-1.1,0.5-2,1.2-2.7c1.5-3.8,1.6-8.5,0.1-12.3c-0.3-0.9-1.4-2.2-1-4
	c1.4-4,6.9-8.5,9-11.6c1.8-1.9,8-5.4,9.6-5.9c0.3,0,6.5-0.7,7-0.7c1.7-0.1,2.2,1.5,3.2,2.5l4.7,4.8L97.4,228.2L97.4,228.2z"/>
</svg>
