<svg xmlns="http://www.w3.org/2000/svg" viewBox="0 0 350.28 141.73"><defs><style>.cls-1{fill:#ffffff;}</style></defs><g id="Capa_2" data-name="Capa 2"><g id="Capa_1-2" data-name="Capa 1"><path class="cls-1" d="M10.7,37.44v-8a8,8,0,1,1,16,0h0v8h10.7V18.72h0a8,8,0,0,1,16.05,0h0v10.7h0v8H64.18v-8a8,8,0,1,1,16,0h0v8h10.7V0H80.23V12.52a18.7,18.7,0,0,0-17,.44,18.71,18.71,0,0,0-35.61,0,18.7,18.7,0,0,0-17-.44V0H0V29.42H0v8Z"/><path class="cls-1" d="M0,42.78v53.5a45.46,45.46,0,0,0,90.92,0V42.78ZM45.46,131A34.57,34.57,0,0,1,28,126.32h0c8.7,0,8.7-5.34,17.38-5.34s8.7,5.34,17.4,5.34h0A34.64,34.64,0,0,1,45.46,131m32.21-21.66c-6.23.93-7.1,5.15-14.81,5.15-8.7,0-8.7-5.34-17.4-5.34s-8.68,5.34-17.38,5.34c-7.73,0-8.6-4.22-14.81-5.15a34,34,0,0,1-2.45-10.89c8.56,0,8.6,5.34,17.26,5.34s8.68-5.34,17.38-5.34,8.7,5.34,17.38,5.34,8.7-5.3,17.28-5.34a34.52,34.52,0,0,1-2.45,10.89m2.57-22.7c-8.7,0-8.7,5.36-17.4,5.36s-8.68-5.36-17.38-5.36S36.76,92,28.08,92s-8.7-5.36-17.38-5.36V76c8.68,0,8.68,5.36,17.38,5.36S36.76,76,45.46,76s8.7,5.36,17.38,5.36S71.54,76,80.24,76Zm0-22.49c-8.7,0-8.7,5.36-17.4,5.36s-8.68-5.36-17.38-5.36-8.7,5.36-17.38,5.36-8.7-5.36-17.38-5.36V53.48c8.68,0,8.68,5.36,17.38,5.36s8.7-5.36,17.38-5.36,8.7,5.36,17.38,5.36,8.7-5.36,17.4-5.36Z"/><path class="cls-1" d="M176.36,79.24h-9V103.6h5V95.77h3.51c5.39,0,9.74-2.89,9.74-8.32v-.07c0-4.9-3.55-8.14-9.25-8.14m4.23,8.32c0,2.23-1.8,3.68-4.58,3.68h-3.65V83.81H176c1.71,0,4.58.48,4.58,3.68Z"/><path class="cls-1" d="M117.62,55.85A12.55,12.55,0,0,1,130.53,43a12.34,12.34,0,0,1,7.36,2.26l-1.42,4.39a10.8,10.8,0,0,0-5.94-2c-4.49,0-7.71,3.5-7.71,8.17S126,64,130.53,64a11.21,11.21,0,0,0,6.16-2l1.41,4.35a12.49,12.49,0,0,1-7.57,2.34c-7.75,0-12.91-5.56-12.91-12.84"/><path class="cls-1" d="M149.84,49.27a9.66,9.66,0,0,1,10,9.76c0,5.59-4.18,9.66-10,9.66S139.9,64.62,139.9,59a9.63,9.63,0,0,1,9.94-9.76m0,15.1a5,5,0,0,0,5.1-5.34,5.12,5.12,0,0,0-5.1-5.45c-2.93,0-5.06,2.27-5.06,5.45a5,5,0,0,0,5.06,5.34"/><path class="cls-1" d="M178.62,57.55V68.23h-4.88V56.93c0-2-.94-3.33-2.61-3.33a12.91,12.91,0,0,0-3.76.8V68.23h-4.88v-17c6-2.12,8.67-2,9.32-2,6,0,6.81,4.35,6.81,8.28"/><path class="cls-1" d="M225.33,92.92V103.6h-4.88V92.3c0-2-.95-3.32-2.61-3.32a13,13,0,0,0-3.76.79V103.6H209.2v-17c6.05-2.11,8.67-2,9.31-2,6,0,6.82,4.35,6.82,8.28"/><path class="cls-1" d="M195.91,62.71l1.31,4a9.34,9.34,0,0,1-5.77,2c-5.76,0-9.87-4-9.87-9.66a9.54,9.54,0,0,1,9.84-9.76,9.38,9.38,0,0,1,5.83,2l-1.38,4.1a6.28,6.28,0,0,0-4.31-1.77c-3.15,0-5.09,2.45-5.09,5.42a5.11,5.11,0,0,0,5.27,5.37,6.71,6.71,0,0,0,4.17-1.66"/><path class="cls-1" d="M207.79,49.27c5.73,0,9,3.82,9,9.87,0,.35,0,.71,0,1.06h-13a4.49,4.49,0,0,0,4.81,4.24,5.43,5.43,0,0,0,4.5-2.26l3.21,2.44a8.77,8.77,0,0,1-7.78,4.07c-5.94,0-9.72-4.1-9.72-9.66s3.78-9.76,9-9.76m4,7.75a3.77,3.77,0,0,0-4-3.75,3.92,3.92,0,0,0-4,3.75Z"/><path class="cls-1" d="M249.21,84.64c5.73,0,9,3.82,9,9.87,0,.36,0,.71,0,1.06h-13A4.5,4.5,0,0,0,250,99.82a5.43,5.43,0,0,0,4.5-2.27l3.21,2.44a8.77,8.77,0,0,1-7.78,4.07c-5.94,0-9.73-4.1-9.73-9.65s3.79-9.77,9.06-9.77m4,7.75a3.77,3.77,0,0,0-4-3.75,3.93,3.93,0,0,0-4,3.75Z"/><path class="cls-1" d="M246,49.27A9.66,9.66,0,0,1,256,59c0,5.59-4.17,9.66-10,9.66s-9.93-4.07-9.93-9.66A9.62,9.62,0,0,1,246,49.27m0,15.1A5,5,0,0,0,251.1,59a5.12,5.12,0,0,0-5.1-5.45c-2.93,0-5.05,2.27-5.05,5.45A5,5,0,0,0,246,64.37"/><path class="cls-1" d="M148.55,84.64c5.73,0,9,3.82,9,9.87a9.3,9.3,0,0,1,0,1.06h-13a4.49,4.49,0,0,0,4.81,4.25,5.4,5.4,0,0,0,4.49-2.27L157,100a8.8,8.8,0,0,1-7.78,4.07c-5.95,0-9.73-4.1-9.73-9.65s3.78-9.77,9.05-9.77m4,7.75a3.79,3.79,0,0,0-4-3.75,3.92,3.92,0,0,0-4,3.75Z"/><path class="cls-1" d="M196.46,84.64a9.67,9.67,0,0,1,10,9.77c0,5.59-4.18,9.65-10,9.65s-9.94-4.06-9.94-9.65a9.63,9.63,0,0,1,9.94-9.77m0,15.11a5,5,0,0,0,5.09-5.34A5.12,5.12,0,0,0,196.46,89c-2.94,0-5.06,2.26-5.06,5.45a5,5,0,0,0,5.06,5.34"/><polygon class="cls-1" points="265.96 103.6 259.34 85.1 264.54 85.1 268.79 98.4 273.03 85.1 278.23 85.1 271.62 103.6 265.96 103.6"/><path class="cls-1" d="M288,84.64c5.73,0,9,3.82,9,9.87,0,.36,0,.71,0,1.06h-13a4.5,4.5,0,0,0,4.81,4.25,5.43,5.43,0,0,0,4.5-2.27l3.21,2.44a8.77,8.77,0,0,1-7.78,4.07c-5.94,0-9.73-4.1-9.73-9.65s3.79-9.77,9.06-9.77m4,7.75a3.77,3.77,0,0,0-4-3.75,3.93,3.93,0,0,0-4,3.75Z"/><path class="cls-1" d="M332.52,89.6c-3.65,0-5,2.26-5,5.94v8.06h-4.88V85.1h4.77v2.69a5.39,5.39,0,0,1,5.1-3.15Z"/><path class="cls-1" d="M220.11,44.21v24H225V43a21.85,21.85,0,0,0-4.88,1.2"/><path class="cls-1" d="M228.35,44.21v24h4.88V43a21.66,21.66,0,0,0-4.88,1.2"/><path class="cls-1" d="M237.54,99.5a7.17,7.17,0,0,1-.89,0c-1.87,0-2.72-.57-2.72-3.33V89.06h3.61v-4h-3.61V81.21a22.43,22.43,0,0,0-4.85,1.18v14c0,5,1.95,7.5,6.37,7.5a11.64,11.64,0,0,0,3.35-.49Z"/><path class="cls-1" d="M313.71,87.05a6.92,6.92,0,0,0-5.48-2.41c-5.31,0-8.78,4-8.78,9.73s3.75,9.69,9.06,9.69a7.18,7.18,0,0,0,5.48-2.37l.51,1.91h4.09V78a21.66,21.66,0,0,0-4.88,1.2Zm.14,7.36c0,2.93-1.77,5.34-4.74,5.34-2.76,0-4.74-2-4.74-5.34S306.28,89,309.11,89s4.74,2,4.74,5.45"/><path class="cls-1" d="M131.88,87.05a6.93,6.93,0,0,0-5.49-2.41c-5.3,0-8.77,4-8.77,9.73s3.75,9.69,9.06,9.69a7.22,7.22,0,0,0,5.48-2.37l.5,1.91h4.1V78a21.66,21.66,0,0,0-4.88,1.2Zm.14,7.36c0,2.93-1.77,5.34-4.74,5.34-2.76,0-4.74-2-4.74-5.34S124.45,89,127.28,89s4.74,2,4.74,5.45"/><path class="cls-1" d="M341.4,91.75a7.54,7.54,0,0,1,4,1v-1.2c0-1.63-1.24-2.94-3.39-2.94a26.59,26.59,0,0,0-5.73,1v-3.8a24,24,0,0,1,6.29-1.15c5.94,0,7.71,3.12,7.71,7.25V103.6H346l-.32-1.2a5.76,5.76,0,0,1-4.49,1.66c-3.75,0-6.93-2.3-6.93-6.19,0-3.64,2.87-6.12,7.18-6.12m.92,8.53c1.84,0,3.18-1,3.18-2.55s-1.34-2.58-3.22-2.58-3.18,1.06-3.18,2.58,1.38,2.55,3.22,2.55"/></g></g></svg>