<?xml version="1.0" encoding="UTF-8"?>
<svg id="Calque_2" data-name="Calque 2" xmlns="http://www.w3.org/2000/svg" viewBox="0 0 295.36 94.13">
  <defs>
    <style>
      .cls-1 {
        fill: #fff;
      }
    </style>
  </defs>
  <g id="Calque_1-2" data-name="Calque 1">
    <path class="cls-1" d="M123.43,41.46c-4.58,3.17-10.99,2.45-13.87-1.61-2.36-3.33-2.38-6.98-.65-10.55,1.66-3.43,4.65-5,8.42-5.16,1.85-.08,3.58,.28,5.12,1.32,.53,.36,.7,.17,.76-.33,.07-.6,.29-.95,.98-.89,.84,.08,.48,.7,.51,1.09,.1,1.31,.17,2.62,.19,3.94,0,.35,.34,.93-.45,.99-.56,.04-.83-.14-1.01-.73-.59-1.84-1.71-3.23-3.68-3.75-2.41-.64-4.66,.25-5.76,2.48-1.72,3.48-1.76,7.09-.21,10.63,.96,2.21,2.82,3.16,5.24,3,2.33-.15,3.65-1.56,4.47-3.59,.16-.41,.31-.83,.38-1.25,.1-.6,.51-.5,.9-.49,.53,0,.38,.42,.38,.7,.01,1.64,.01,3.27,0,4.91,0,.32,.16,.76-.44,.79-.43,.02-.79-.02-.93-.51-.09-.3-.21-.6-.34-.99Z"/>
    <path class="cls-1" d="M224.88,41.63c-.14,.47-.22,.77-.31,1.06-.18,.55-.64,.34-1.01,.36-.44,.02-.37-.32-.37-.59,0-1.56,0-3.11,0-4.67,0-.3-.09-.67,.42-.69,.41-.01,.76-.03,.92,.49,.3,.95,.71,1.86,1.33,2.65,1.17,1.51,3.1,2.16,4.79,1.61,2.3-.74,2.84-3.29,1.04-4.91-.82-.74-1.84-1.11-2.83-1.51-.96-.39-1.92-.79-2.79-1.35-2.13-1.37-3.03-3.5-2.5-5.85,.49-2.19,2.18-3.72,4.64-4.04,1.68-.22,3.36-.12,4.85,.83,.38,.24,.67,.44,.8-.22,.11-.55,.59-.42,.97-.43,.62,0,.4,.47,.42,.78,.07,1.19,.13,2.39,.16,3.58,0,.3,.23,.78-.4,.79-.43,0-.85,.08-1.02-.54-.25-.89-.73-1.67-1.41-2.32-.99-.93-2.16-1.32-3.51-1.13-1.08,.15-1.9,.67-2.16,1.77-.24,1.04,.2,1.87,1.03,2.5,.73,.57,1.61,.86,2.44,1.25,1.04,.49,2.12,.93,3.11,1.52,2.43,1.43,3.42,3.65,2.89,6.26-.47,2.31-2.55,4.08-5.19,4.45-2.28,.32-4.36-.09-6.29-1.68Z"/>
    <path class="cls-1" d="M147.35,30.64c.11,.73,.2,1.4,.3,2.06,.44,.01,.54-.34,.74-.55,1.09-1.13,2.39-1.67,3.98-1.54,2.03,.16,3.36,1.39,3.45,3.43,.09,2.03,.03,4.07,.07,6.1,.02,.93,.05,1.9,1.36,1.98,.4,.02,.39,.33,.38,.62,0,.34-.25,.34-.5,.34-2.08,0-4.15,0-6.23,0-.31,0-.54-.03-.54-.43,0-.32,.05-.55,.43-.57,1.14-.06,1.32-.85,1.31-1.76,0-1.95,0-3.91-.06-5.86-.02-.88-.32-1.69-1.29-1.92-.98-.23-1.69,.26-2.27,1-.37,.48-.61,1.03-.68,1.64-.22,1.91-.16,3.82-.04,5.73,.04,.62,.37,1.07,1.01,1.15,.46,.06,.81,.15,.69,.7-.12,.56-.58,.28-.89,.28-1.92,.02-3.83,.01-5.75,.02-.31,0-.66,.13-.67-.4,0-.4,.15-.55,.56-.58,.81-.07,1.14-.56,1.17-1.37,.08-2.11,.11-4.22,0-6.34-.05-.84-.32-1.49-1.25-1.63-.42-.06-.52-.28-.51-.65,.01-.36,.22-.48,.54-.5,1.59-.1,3.13-.52,4.68-.97Z"/>
    <path class="cls-1" d="M196.98,32.72c0,2.51,0,5.03,0,7.54,0,.96,.16,1.79,1.35,1.85,.47,.02,.5,.29,.48,.64-.02,.44-.33,.34-.61,.34-2.12,0-4.23,0-6.35,0-.33,0-.66,.05-.65-.44,0-.42,.22-.52,.61-.54,1.14-.05,1.42-.78,1.41-1.79-.02-4.19-.02-8.38,0-12.56,0-.98-.2-1.76-1.32-1.91-.41-.05-.53-.25-.53-.63,0-.45,.34-.5,.65-.54,1.26-.19,2.55-.27,3.78-.58,1.14-.29,1.22,.15,1.2,1.09-.06,2.51-.02,5.02-.02,7.54Z"/>
    <path class="cls-1" d="M189.06,32.65c0,2.51,0,5.03,0,7.54,0,.99,.13,1.88,1.41,1.92,.41,.01,.41,.28,.41,.58,0,.41-.26,.4-.56,.4-2.16,0-4.31,0-6.47,0-.3,0-.56,0-.57-.41,0-.39,.14-.58,.56-.58,1.16,0,1.48-.74,1.48-1.74,0-4.27,0-8.54,0-12.8,0-.9-.31-1.57-1.29-1.72-.36-.06-.59-.14-.59-.57,0-.52,.35-.56,.71-.62,1.38-.21,2.77-.37,4.14-.64,.74-.15,.78,.17,.78,.74-.02,2.63,0,5.26,0,7.9Z"/>
    <path class="cls-1" d="M168.03,32.53c0,.28,.03,.56,0,.84-.04,.35,.22,.85-.41,.95-.52,.08-.88-.06-1.16-.57-.65-1.18-1.58-2-3.04-1.95-.86,.03-1.63,.33-1.79,1.27-.15,.94,.59,1.32,1.33,1.58,1.05,.38,2.14,.65,3.16,1.09,2.01,.88,2.74,2.27,2.44,4.41-.22,1.6-1.58,2.84-3.47,3.15-1.58,.26-3.11,.14-4.51-.7-.44-.26-.66-.28-.89,.21-.2,.44-.63,.25-.96,.23-.46-.03-.34-.48-.37-.75-.07-.75-.09-1.51-.08-2.27,0-.29-.25-.78,.36-.82,.38-.02,.78-.11,1.04,.37,.26,.49,.57,.97,.93,1.38,.91,1.03,2.06,1.49,3.44,1.15,.71-.18,1.24-.6,1.35-1.35,.12-.79-.35-1.29-1.04-1.55-.97-.37-1.96-.65-2.92-1.03-2.25-.88-3.25-2.47-2.85-4.5,.38-1.94,1.91-3.04,4.25-3.07,.72-.01,1.43,.05,2.13,.26,.63,.2,1.26,1.02,1.9-.17,.26-.48,1.13,0,1.16,.64,.02,.4,0,.8,0,1.2Z"/>
    <path class="cls-1" d="M287.72,42.12c1.82-.06,2.04-.29,2.04-2.13,0-4.03,0-8.05,0-12.08,0-1.03-.08-1.96-1.39-2.09-.4-.04-.39-.31-.41-.6-.02-.35,.15-.5,.48-.55,1.54-.23,3.07-.51,4.61-.69,.77-.09,.45,.6,.45,.93,.02,4.86,.01,9.73,.02,14.59,0,1.18-.26,2.52,1.57,2.63,.31,.02,.26,.35,.26,.58,.01,.35-.24,.36-.49,.36-2.23,0-4.47,.02-6.7,0-.78,0-.34-.63-.43-.99,0,0-.02,.02-.02,.02Z"/>
    <path class="cls-1" d="M258.26,36.99c-.06,.54,.08,1.3,.26,2.03,.29,1.2,.85,2.26,2.17,2.61,1.3,.35,2.44,.01,3.39-.95,.17-.17,.36-.32,.51-.51,.31-.4,.56-.26,.89,0,.38,.3,.32,.52,.07,.87-1.33,1.87-4.31,2.83-6.92,2.19-2.46-.6-4.19-2.54-4.45-5.03-.26-2.5,.36-4.7,2.5-6.21,2.29-1.62,4.8-1.83,7.39-.78,.83,.34,1.52,.89,1.61,1.91,.07,.76-.2,1.34-.91,1.65-.76,.32-1.43,.11-1.91-.52-.28-.37-.45-.84-.66-1.27-.29-.59-.61-1.14-1.37-1.17-.81-.04-1.38,.38-1.76,1.04-.69,1.22-.77,2.58-.8,4.16Z"/>
    <path class="cls-1" d="M113.51,53.31c1.16-.06,2.03-.11,2.91-.13,.2,0,.53-.12,.51,.28,0,.23-.2,.36-.41,.34-1.56-.11-1.91,.99-2.22,2.16-.66,2.46-1.36,4.91-1.99,7.37-.52,2.03-.02,3.42,1.4,4.14,1.58,.8,3.89,.36,5.06-.97,.45-.51,.82-1.09,1.06-1.72,1.12-2.9,1.91-5.9,2.48-8.96,.2-1.06,.1-1.96-1.3-2.01-.21,0-.41-.06-.39-.32,.02-.25,.21-.31,.43-.3,1.39,.11,2.78,.15,4.18,.02,.2-.02,.42-.04,.42,.25,0,.16-.09,.32-.28,.33-1.62,.07-1.9,1.31-2.23,2.53-.59,2.15-1.2,4.29-1.83,6.43-.23,.76-.49,1.52-.82,2.24-1.54,3.39-5,4.62-8.39,3.02-1.82-.86-2.62-2.34-2.13-4.3,.67-2.7,1.44-5.38,2.18-8.07,.41-1.49,.36-1.58-1.16-1.83-.23-.04-.54,0-.5-.34,.03-.3,.31-.31,.56-.3,.92,.05,1.83,.1,2.46,.14Z"/>
    <path class="cls-1" d="M272.12,35.92c0,1.55,0,3.1,0,4.66,0,.81,.28,1.43,1.17,1.51,.48,.05,.63,.27,.56,.69-.08,.51-.48,.29-.76,.29-1.91,.01-3.82,.01-5.73,0-.28,0-.68,.22-.76-.29-.07-.43,.09-.63,.56-.69,.82-.1,1.12-.7,1.13-1.45,.02-2.19,.03-4.38,0-6.57,0-.81-.28-1.5-1.25-1.6-.38-.04-.57-.23-.54-.63,.03-.44,.33-.46,.67-.48,1.43-.09,2.85-.32,4.24-.66,.55-.13,.7,.02,.7,.56-.02,1.55,0,3.1,0,4.66,0,0,.01,0,.02,0Z"/>
    <path class="cls-1" d="M263.38,65.43c2.14-3.16,4.02-6.35,5.57-9.7,.61-1.32,.53-1.43-.92-1.92-.14-.05-.34-.03-.31-.26,.03-.21,.15-.39,.38-.37,1.39,.14,2.78,.11,4.17,0,.1,0,.24-.03,.27,.15,.04,.24-.07,.41-.28,.45-1.7,.34-2.26,1.8-2.96,3.06-2.07,3.72-4.12,7.46-6.37,11.08-.21,.34-.32,.94-.9,.78-.56-.15-.39-.72-.44-1.11-.57-4.1-1.13-8.21-1.67-12.31-.11-.85-.41-1.45-1.39-1.46-.22,0-.54,.03-.51-.33,.02-.31,.3-.34,.54-.32,1.71,.14,3.42,.13,5.13,0,.17-.01,.43-.08,.46,.21,.04,.31-.19,.42-.45,.42-1.52-.04-1.63,.85-1.47,2.05,.41,3.19,.75,6.38,1.12,9.57Z"/>
    <path class="cls-1" d="M128.39,61.81c.71-1,1.14-1.81,1.82-2.4,.88-.77,1.84-1.37,3.02-.76,1.2,.62,1.06,1.72,.85,2.82-.32,1.7-1.1,3.23-1.6,4.86-.15,.48-.47,1.09,.1,1.39,.58,.31,.93-.31,1.22-.7,.38-.5,.67-1.08,1.01-1.62,.1-.16,.18-.4,.43-.29,.32,.14,.19,.37,.08,.59-.41,.87-.91,1.69-1.66,2.32-.64,.54-1.37,.87-2.19,.4-.83-.47-.9-1.27-.72-2.09,.32-1.48,.89-2.89,1.41-4.31,.19-.52,.36-1.05,.53-1.58,.13-.4,.12-.8-.23-1.1-.42-.36-.85-.14-1.22,.08-.84,.51-1.4,1.29-1.92,2.1-1.16,1.83-1.85,3.86-2.5,5.91-.14,.45-.18,.9-.87,.92-.86,.02-1.25-.04-.86-1.08,.78-2.04,1.39-4.15,1.79-6.3,.05-.27,.1-.55,.13-.82,.04-.36,.07-.78-.33-.93-.34-.13-.58,.19-.8,.42-.54,.6-.87,1.33-1.25,2.03-.11,.21-.14,.64-.54,.42-.28-.15-.09-.41,0-.62,.38-.84,.75-1.68,1.42-2.33,.6-.58,1.31-.95,2.17-.6,.89,.36,.86,1.15,.82,1.92-.02,.33-.07,.66-.15,1.35Z"/>
    <path class="cls-1" d="M146.56,60.86c-.62-.09-1.06,.28-1.54,.02-.75-.41-1.41-.5-1.69,.69-.3-.83-.43-1.54,.24-2.11,.6-.51,1.24-.4,1.88,.01,1.09,.71,1.38,.63,2.02-.49,.15-.26,.24-.67,.66-.44,.4,.22,.32,.58,.1,.93-1.01,1.65-1.68,3.43-1.88,5.37-.05,.51-.07,1.04,.01,1.54,.26,1.56,1.35,1.97,2.55,.92,1.87-1.65,2.49-3.83,2.45-6.24,0-.52-.05-1.04-.07-1.55-.02-.54,.16-.99,.74-1.06,.65-.07,.88,.39,1,.95,.12,.53,.01,1.04-.07,1.54-.38,2.46-1.29,4.69-3.14,6.43-.99,.93-2.18,1.5-3.6,1.18-1.67-.37-2.35-1.79-1.77-3.66,.44-1.42,1.27-2.65,2.11-4.02Z"/>
    <path class="cls-1" d="M171.8,68.66c-.62-.08-1.34-.15-1.96-.56-.46-.3-.76-.7-.77-1.27,0-.47,.08-.93,.66-.94,.47,0,.73,.36,.68,.81-.17,1.41,.79,1.36,1.69,1.3,1.08-.08,1.68-.85,1.53-1.86-.09-.66-.5-1.16-.87-1.68-.43-.62-.93-1.2-1.3-1.86-.73-1.31-.51-2.61,.51-3.45,1.04-.85,2.95-.98,3.93-.25,.18,.14,.36,.33,.46,.53,.19,.39,.21,.82-.26,1.02-.45,.2-.79,0-.86-.5-.13-.94-.73-1.06-1.48-.84-.82,.25-1.15,.85-.91,1.67,.12,.41,.36,.79,.61,1.15,.38,.56,.83,1.07,1.21,1.63,.75,1.09,1.01,2.26,.39,3.49-.5,.98-1.79,1.61-3.25,1.61Z"/>
    <path class="cls-1" d="M166.09,61.2c.34-.87,.82-1.64,1.52-2.25,.62-.53,1.31-.75,2.09-.32,.39,.22,.57,.55,.5,.99-.06,.39-.3,.64-.7,.7-.43,.06-.81,0-.94-.5-.26-.99-.65-.39-.92-.05-.96,1.2-1.43,2.65-1.95,4.06-.45,1.23-.83,2.49-1.26,3.72-.12,.35-.17,.74-.73,.79-1.09,.11-1.27-.06-.95-1.1,.69-2.28,1.47-4.55,1.49-6.97,0-.35,.14-.83-.25-.97-.48-.18-.65,.36-.86,.65-.35,.48-.62,1.02-.94,1.52-.13,.21-.2,.63-.57,.41-.35-.21-.04-.51,.06-.73,.34-.72,.75-1.4,1.32-1.98,.49-.49,1-.96,1.78-.7,.75,.25,.97,.89,1.1,1.58,.04,.23,0,.47,.01,.71-.01,.18-.32,.52,.22,.42Z"/>
    <path class="cls-1" d="M270.71,66.77c.06-.65,.35-1.35,.64-2.05,.63-1.5,1.32-2.98,1.74-4.56,.08-.29,.22-.68-.11-.88-.34-.21-.61,.11-.8,.34-.38,.45-.72,.95-1.09,1.42-.18,.23-.28,.72-.67,.43-.35-.26,.07-.55,.2-.78,.34-.63,.73-1.25,1.3-1.7,.62-.49,1.3-.84,2.08-.37,.77,.46,.9,1.21,.71,1.99-.19,.77-.47,1.52-.75,2.26-.47,1.27-.98,2.52-1.45,3.78-.13,.35-.41,.81,.05,1.06,.44,.24,.75-.19,.98-.48,.45-.55,.84-1.16,1.25-1.74,.11-.16,.21-.35,.46-.23,.23,.11,.23,.27,.11,.48-.57,1.01-1.14,2.04-2.2,2.62-1.26,.69-2.48-.07-2.45-1.6Z"/>
    <path class="cls-1" d="M181.98,60.36c-.03,.76-.46,1.67-.81,2.59-.5,1.3-1,2.59-1.5,3.89-.11,.29-.26,.64,.08,.87,.34,.23,.62-.06,.84-.26,.59-.54,1.02-1.22,1.42-1.91,.11-.18,.23-.46,.54-.23,.23,.17,.09,.34,0,.51-.47,.89-.99,1.73-1.81,2.34-.65,.48-1.38,.72-2.1,.21-.7-.49-.81-1.23-.62-2.03,.25-1.09,.8-2.07,1.2-3.11,.39-1.04,.76-2.08,1.11-3.14,.09-.28,.21-.67-.17-.84-.3-.14-.54,.12-.71,.33-.45,.56-.87,1.14-1.28,1.72-.13,.19-.26,.3-.48,.21-.29-.13-.13-.34-.04-.49,.52-.89,1.01-1.83,1.97-2.34,1.25-.67,2.35,0,2.36,1.68Z"/>
    <path class="cls-1" d="M137.33,66.85c-.06-.76,.29-1.48,.61-2.21,.63-1.46,1.28-2.92,1.72-4.45,.09-.3,.26-.66-.06-.88-.4-.28-.69,.08-.9,.33-.44,.52-.8,1.09-1.2,1.64-.12,.17-.25,.35-.48,.22-.24-.13-.13-.33-.03-.51,.47-.84,.98-1.66,1.78-2.22,.55-.38,1.17-.53,1.8-.16,.63,.37,.79,.98,.73,1.65-.12,1.37-.81,2.57-1.28,3.83-.32,.86-.66,1.71-.95,2.57-.12,.35-.45,.8,.06,1.06,.45,.23,.74-.2,.98-.49,.43-.52,.8-1.09,1.2-1.63,.13-.17,.19-.52,.51-.33,.27,.16,.13,.42,.02,.63-.51,.96-1.09,1.88-2.05,2.44-1.28,.75-2.43,.07-2.45-1.49Z"/>
    <path class="cls-1" d="M271.94,26.12c-.01,1.22-.9,2.1-2.12,2.1-1.15,0-2.12-.98-2.13-2.14,0-1.2,1.02-2.2,2.24-2.16,1.19,.03,2.02,.95,2.01,2.21Z"/>
    <path class="cls-1" d="M274.72,55.42c-.62-.04-1.06-.33-1.09-.99-.03-.62,.27-1.06,.95-1.1,.71-.04,1.12,.29,1.15,1.02,.03,.69-.39,.97-1.02,1.07Z"/>
    <path class="cls-1" d="M181.99,55.41c-.69,0-1.13-.37-1.14-.99-.01-.65,.35-1.12,1.1-1.1,.68,.02,1.01,.39,1.02,1.04,.02,.68-.39,.98-.99,1.05Z"/>
    <path class="cls-1" d="M142.37,54.38c-.13,.61-.45,1.04-1.11,1.02-.64-.01-1.05-.33-1.04-1.01,0-.71,.38-1.08,1.11-1.06,.7,.02,.92,.49,1.04,1.05Z"/>
    <path class="cls-1" d="M47.12,0C20.63,.21,.59,21.15,.01,45.93c-.62,26.69,20.84,48.19,47.07,48.2,26.03,0,47.18-21.09,47.13-47.09C94.16,21.44,73.7,.22,47.12,0Zm25.34,62.89c-7.76,2.19-16.46-1.79-19.14-8.79,.75,.18,1.48,.35,2.2,.51,1.83,.39,3.48-.1,5.01-1.07,1.46-.92,2.76-2.05,4.04-3.18,4.62-4.06,9.9-5.08,15.75-3.44,.98,.27,1.11,.09,1-.87-.6-5.42-3.43-9.24-8.45-11.22-5.18-2.04-10.08-1.13-14.36,2.41-3.54,2.92-5.2,6.98-6.25,11.31-1.33,5.48-1.41,11.06-1.09,16.65,.36,6.29,.96,12.56,1.71,18.82,.07,.55-.06,.8-.59,.94-3.48,.92-6.95,.77-10.43-.04-.63-.15-.52-.54-.47-1,.39-3.81,.82-7.61,1.13-11.42,.54-6.48,1.15-12.96,.12-19.45-.83-5.17-2.26-10.12-5.69-14.24-6.63-7.96-19.39-6.04-23.22,3.49-.49,1.23-.74,2.51-.88,3.83-.09,.87,0,1.08,.95,.83,3-.81,6.04-1.09,9.11-.29,2.69,.71,4.91,2.24,7.02,3.98,.46,.38,.93,.75,1.38,1.15,2.75,2.45,5.73,3.97,9.7,2.12-4.47,10.14-17.89,12.78-25.85,5.31-5-4.7-6.62-10.49-4.53-17.01,2.09-6.52,6.85-10.23,13.58-11.27,3.66-.57,7.15,.25,10.36,2.12,2,1.17,3.92,2.46,5.95,3.56,8.94,4.86,19.53-1.21,19.83-11.37,.06-1.89-.39-3.71-1.12-5.46-.3-.71-.54-.68-1.08-.24-2.27,1.85-4.77,3.32-7.61,4.14-3.34,.97-6.56,.15-9.8-.58-1.79-.41-3.57-.87-5.43-.7-1.85,.17-3.3,1.07-4.5,2.46-1.09-3.61,2.47-10.35,7.08-13.46,5.96-4.02,13.59-3.69,19.31,.8,5.63,4.42,7.94,12.27,4.7,19.65,5.79-1.9,11.16-1.31,16.03,2.33,3.33,2.49,5.4,5.85,6.17,9.92,1.59,8.38-3.46,16.48-11.64,18.79Z"/>
    <g>
      <path class="cls-1" d="M287.72,42.12l.02-.02s-.01,.01-.02,.02c0,0,0,0,0,0Z"/>
      <path class="cls-1" d="M287.19,41.02c-1.37,.56-1.31-.42-1.33-1.19-.05-1.87,0-3.75-.02-5.63,0-1.86-.81-2.88-2.6-3.35-1.34-.36-2.7-.32-4.05-.17-1.19,.13-2.39,.37-3.28,1.28-.58,.59-.73,1.33-.43,2.1,.22,.58,.69,.84,1.31,.87,.84,.05,1.35-.39,1.69-1.09,.17-.36,.29-.74,.47-1.1,.26-.52,.63-.91,1.27-.96,.92-.08,1.6,.22,1.77,1.19,.15,.92,.48,1.92-.82,2.4-1.79,.66-3.67,1.15-5.14,2.46-1.16,1.03-1.48,2.5-.89,3.79,.57,1.25,1.95,1.91,3.49,1.75,1.36-.15,2.41-.91,3.46-1.68,.82,1.55,1.58,1.91,3.23,1.63,.93-.16,1.7-.6,2.38-1.22,.2-.77-.04-1.29-.52-1.09Zm-5.09-1.36c-.2,1-1.24,1.71-2.11,1.51-.73-.17-1.23-1.19-1.06-2.16,.17-1,1.88-2.56,2.86-2.64,.35-.03,.39,.15,.39,.42,0,.44,0,.88,0,1.32,0,0,.02,0,.03,0-.03,.52,0,1.04-.1,1.55Z"/>
    </g>
    <path class="cls-1" d="M207,30.61c-3.9,0-6.96,2.83-6.92,6.4,.04,3.63,3,6.38,6.93,6.42,3.81,.04,6.85-2.85,6.83-6.5-.02-3.6-2.96-6.33-6.84-6.32Zm2.18,10.01c-.33,.82-.8,1.48-1.76,1.57-.99,.09-1.79-.28-2.36-1.12-1.15-1.69-1.09-6.61,.1-8.3,1.05-1.48,3.06-1.31,3.89,.34,.61,1.22,.51,2.56,.62,3.92-.12,1.16,0,2.41-.49,3.59Z"/>
    <path class="cls-1" d="M134.04,30.61c-3.82,.02-6.79,2.83-6.77,6.4,.02,3.69,3.05,6.47,7.01,6.43,3.8-.04,6.71-2.87,6.7-6.5-.01-3.67-2.95-6.34-6.94-6.33Zm2.3,10.02c-.32,.81-.81,1.5-1.77,1.57-1.03,.08-1.98-.26-2.4-1.23-1.15-2.69-1.17-5.41,.09-8.08,.39-.82,1.17-1.16,2.09-1.1,.89,.06,1.46,.55,1.83,1.33,.65,1.34,.53,2.79,.61,3.89-.05,1.43-.04,2.56-.46,3.61Z"/>
    <path class="cls-1" d="M245.62,30.61c-4.03-.03-7.13,2.69-7.16,6.28-.04,3.68,2.93,6.47,6.93,6.54,3.75,.06,6.77-2.77,6.8-6.38,.03-3.61-2.83-6.41-6.58-6.44Zm1.99,9.92c-.31,.87-.8,1.57-1.82,1.67-1.06,.1-1.98-.29-2.39-1.24-1.15-2.68-1.23-5.45,.11-8.06,.86-1.67,3.07-1.46,3.91,.24,.6,1.22,.55,2.55,.6,3.75-.02,1.3-.02,2.5-.42,3.64Z"/>
    <path class="cls-1" d="M174.87,36.55c1.12,.04,2.24,.01,3.36,.01,.96,0,1.92,0,2.88,0,1.33,0,1.53-.25,1.29-1.56-.47-2.67-2.78-4.39-5.87-4.38-3.15,.01-5.61,1.81-6.34,4.63-.76,2.95,.43,5.91,2.94,7.31,2.68,1.49,6.34,1.05,8.31-1.03,.3-.32,.96-.6,.33-1.24-.62-.63-.89-.03-1.23,.3-1.13,1.11-2.47,1.47-3.96,.99-1.46-.48-2.01-1.72-2.28-3.11-.07-.35-.09-.71-.17-1.06-.13-.62,.08-.86,.74-.84Zm1.58-4.76c1.31,0,2.67,1.95,2.16,3.13-.15,.35-.45,.43-.77,.44-1,0-1.99,0-2.99,0-.23,0-.47,.03-.6-.26-.49-1.06,1-3.31,2.21-3.31Z"/>
    <g>
      <path class="cls-1" d="M287.27,59.97c.08-.59-.18-1.02-.71-1.25-.73-.32-1.41-.18-2.01,.32-.31,.25-.5,.3-.9,.05-1.84-1.17-3.82-.7-5.34,1.18-1.42,1.77-1.35,3.55,.24,5.26-.3,.13-.59,.25-.88,.38-.82,.38-1.38,.95-1.34,1.92,.03,.95,.7,1.37,1.47,1.68,1.23,.5,2.58,.49,3.85,.78,.79,.18,1.44,.52,1.51,1.44,.06,.93-.47,1.47-1.27,1.82-.82,.36-1.7,.46-2.58,.36-1-.11-2.02-.3-2.52-1.34-.48-1-.07-1.82,.81-2.5-1.42-.36-2.2-.02-2.5,.99-.28,.95,.16,2.08,1.21,2.62,2.23,1.15,4.53,1.14,6.77,0,1.11-.56,1.51-1.6,1.39-2.82-.11-1.15-.77-1.9-1.86-2.24-.6-.19-1.23-.3-1.86-.43-.74-.15-1.49-.27-2.22-.43-.42-.09-.77-.33-.75-.8,.02-.47,.41-.65,.82-.73,.47-.09,.94-.17,1.41-.18,2.05-.07,3.67-1.24,4.31-3.18,.27-.8,.4-1.63,.15-2.47-.14-.47,.17-.66,.5-.8,.3-.13,.53-.05,.59,.34,.08,.57,.43,.86,1,.75,.36-.07,.63-.33,.68-.74Zm-5.44,4.54c-.43,.67-.99,1.19-1.88,.89-.83-.28-.99-1-.94-1.75,.08-1.33,.43-2.59,1.19-3.71,.43-.63,.97-1.13,1.79-.85,.75,.26,.9,.95,.91,1.74-.13,1.23-.34,2.53-1.07,3.67Z"/>
      <path class="cls-1" d="M293.25,58.66c-1.34-.57-2.99-.16-4.23,1.14-1.42,1.49-2.23,3.27-2.29,4.71-.02,3.53,2.45,5.06,4.98,3.62,2.16-1.23,3.24-3.24,3.43-5.68,.14-1.87-.62-3.25-1.89-3.79Zm.19,2.75c-.17,1.34-.4,2.68-.94,3.94-.26,.62-.58,1.23-.97,1.77-.53,.74-1.29,1.13-2.19,.82-.95-.32-.95-1.17-.9-2.24,.25-1.79,.7-3.76,1.88-5.49,.54-.79,1.22-1.51,2.27-1.07,.99,.41,.96,1.37,.85,2.27Z"/>
    </g>
    <path class="cls-1" d="M159.81,65.66c-.63,.82-1.22,1.69-2.21,2.13-.65,.29-1.32,.47-1.82-.25-.6-.87-.04-2.73,.92-3.15,1.28-.56,2.57-1.09,3.62-2.05,1.13-1.05,1.51-2.45,.89-3.28-.63-.85-2.04-.93-3.38-.06-2.43,1.58-3.6,3.94-3.93,6.29-.04,2.14,.63,3.03,2.11,3.29,1.43,.26,4.07-1.39,4.41-2.75,.05-.19,0-.34-.13-.41-.22-.12-.35,.06-.47,.23Zm-1.44-6.08c.38-.42,.9-.8,1.47-.44,.6,.38,.35,1,.14,1.5-.67,1.61-2.07,2.44-3.78,3.37,.49-1.79,1.09-3.23,2.17-4.42Z"/>
    <g>
      <path class="cls-1" d="M217.37,53.12c-.34-.24-3.07,.23-3.47,.56,.06,.2,.24,.18,.39,.18,1.15-.02,1.33,.54,1,1.53-.4,1.2-.72,2.43-1.13,3.83-1.12-1.15-2.26-.92-3.3-.31-2.56,1.5-3.9,3.81-4.13,6.74-.1,1.32,.62,2.4,1.64,2.8,1.14,.45,2.24,.12,3.23-.92,.3-.32,.42-.85,1.03-.99-.03,.89-.02,1.73,.96,2.01,1.01,.29,1.67-.35,2.23-1.04,.51-.62,.92-1.31,1.18-2.07,.07-.19,.35-.42,0-.59-.28-.13-.41,.05-.53,.3-.39,.79-.76,1.58-1.34,2.26-.19,.22-.4,.45-.7,.35-.31-.11-.32-.45-.28-.72,.17-1.02,.29-2.05,.55-3.05,.86-3.31,1.78-6.61,2.65-9.92,.08-.3,.42-.66,0-.95Zm-6.03,13.83c-.19,.25-.42,.48-.67,.68-.46,.37-1.01,.55-1.56,.28-.55-.28-.77-.87-.69-1.43,.39-2.52,1.21-4.87,2.96-6.79,.43-.47,1-.88,1.7-.57,.65,.29,.64,.94,.66,1.62-.35,2.2-1.02,4.35-2.4,6.22Z"/>
      <path class="cls-1" d="M242.25,54.96c.49-1.9,.52-1.93-1.47-1.78-.59,.04-1.36-.27-1.76,.52,.56,.38,1.83-.16,1.49,1.2-.36,1.41-.78,2.81-1.19,4.27-1.13-.85-1.62-.93-2.77-.53-2.54,.88-4.99,4.76-4.67,7.46,.13,1.1,.64,1.96,1.74,2.36,1.11,.41,2.05,.09,2.84-.69,.48-.47,.86-1.04,1.37-1.67-.1,1.04-.24,2,.81,2.41,1.06,.41,1.72-.31,2.33-1.01,.53-.61,.88-1.33,1.19-2.06,.07-.17,.32-.43-.06-.58-.33-.13-.4,.13-.51,.34-.24,.46-.43,.95-.72,1.37-.35,.49-.6,1.4-1.31,1.13-.61-.24-.23-1.07-.13-1.63,.67-3.77,1.86-7.4,2.82-11.1Zm-3.4,5.99c-.35,2.07-1.02,4.3-2.54,6.18-.52,.65-1.22,1.19-2.07,.74-.78-.41-.77-1.24-.61-2.02,.34-1.73,.96-3.37,1.87-4.88,.29-.47,.64-.92,1.03-1.31,.46-.45,1-.87,1.7-.55,.67,.3,.63,.95,.62,1.83Z"/>
      <path class="cls-1" d="M192.42,61.83c.75-2.88,1.55-5.74,2.36-8.75-1.33,.1-2.56-.03-3.85,.41,.38,.48,.72,.35,1.01,.41,.52,.11,.77,.37,.62,.92-.4,1.43-.8,2.87-1.22,4.35-1.2-.89-1.85-.95-3.11-.39-2.45,1.1-4.55,4.66-4.32,7.33,.17,1.92,1.99,3.05,3.71,2.29,.84-.37,1.36-1.08,1.84-1.82,.05-.21,.11-.43,.48-.57-.03,.55-.06,1.03-.09,1.52,.56,1.19,1.31,1.44,2.34,.74,1.03-.7,1.55-1.79,2.03-2.89,.06-.15,.25-.36-.02-.5-.28-.15-.42,0-.55,.25-.24,.5-.49,1-.78,1.47-.31,.49-.63,1.31-1.22,1.12-.65-.22-.31-1.05-.21-1.59,.28-1.44,.62-2.88,.99-4.3Zm-1.54-.88c-.35,2.08-1.04,4.31-2.54,6.2-.52,.65-1.21,1.19-2.07,.74-.79-.41-.78-1.25-.62-2.02,.38-1.84,1.01-3.6,2.07-5.17,.26-.39,.56-.78,.91-1.1,.44-.41,.97-.79,1.61-.48,.64,.31,.67,.93,.63,1.82Z"/>
      <path class="cls-1" d="M205.47,64.89c-.23-.08-.36,.06-.46,.25-.22,.42-.41,.87-.68,1.26-.37,.52-.62,1.56-1.31,1.27-.64-.27-.15-1.21-.03-1.83,.48-2.42,1.42-4.7,2.3-7.21-.81,.17-1.56-.31-1.96,.59-.1,.24-.25,0-.34-.09-1.18-1.25-2.45-.75-3.58-.05-2.33,1.44-3.67,3.6-4.06,6.31-.19,1.31,.34,2.43,1.33,2.95,1.02,.54,2.2,.36,3.21-.5,.43-.37,.84-.77,1.27-1.16-.02,.77-.12,1.56,.86,1.87,.89,.28,1.55-.1,2.13-.7,.67-.7,1.03-1.6,1.42-2.47,.08-.18,.2-.38-.09-.48Zm-6.03,2.59c-.47,.47-1.09,.73-1.74,.44-.63-.29-.68-.93-.68-1.56,.52-2.56,1.46-4.93,3.4-6.78,.47-.45,1.08-.77,1.74-.42,.68,.36,.63,1.06,.5,1.69-.52,2.48-1.37,4.81-3.21,6.64Z"/>
      <path class="cls-1" d="M220.79,64.36c1.24-.55,2.49-1.08,3.51-2.01,1.11-1,1.49-2.45,.88-3.28-.6-.83-1.96-.94-3.28-.11-2.59,1.63-3.76,4.11-4.08,6.76,.03,1.76,.76,2.64,2.16,2.88,1.44,.25,4.08-1.4,4.42-2.75,.05-.19,0-.32-.14-.41-.24-.15-.35,.06-.47,.21-.63,.82-1.23,1.69-2.21,2.14-.64,.29-1.33,.47-1.82-.24-.62-.9,0-2.74,1.03-3.2Zm1.18-4.33c.47-.57,1.04-1.41,1.85-.85,.81,.56,.22,1.41-.16,2.02-.79,1.27-1.92,2.14-3.59,2.64,.69-1.49,1.05-2.79,1.91-3.81Z"/>
      <path class="cls-1" d="M246.32,64.13c1.51-.49,2.95-1.27,3.86-2.68,.47-.74,.67-1.57,.13-2.36-.57-.83-1.42-.77-2.27-.55-.31,.08-.63,.17-.89,.33-2.64,1.64-3.87,4.13-4.23,6.87,.04,2.13,1.49,3.22,3.34,2.79,1.39-.33,2.23-1.33,3.04-2.37,.15-.19,.47-.44,.1-.69-.38-.25-.46,.17-.61,.35-.6,.75-1.16,1.53-2.06,1.96-1.26,.61-2.05,.11-2.04-1.26,.01-1.17,.34-1.99,1.63-2.4Zm1.06-4.43c.43-.48,.98-1,1.63-.52,.6,.45,.23,1.12-.02,1.63-.74,1.5-2.06,2.36-3.74,3.17,.54-1.68,1.06-3.12,2.12-4.29Z"/>
      <path class="cls-1" d="M189.76,66.64c-.04-.37-.18-.18-.32-.07,.36,.22,.03,.73,.39,.95-.1-.29-.04-.59-.07-.88Z"/>
    </g>
  </g>
</svg>