<?xml version="1.0" encoding="UTF-8" standalone="no"?>
<svg
   xmlns:dc="http://purl.org/dc/elements/1.1/"
   xmlns:cc="http://creativecommons.org/ns#"
   xmlns:rdf="http://www.w3.org/1999/02/22-rdf-syntax-ns#"
   xmlns:svg="http://www.w3.org/2000/svg"
   xmlns="http://www.w3.org/2000/svg"
   xmlns:sodipodi="http://sodipodi.sourceforge.net/DTD/sodipodi-0.dtd"
   xmlns:inkscape="http://www.inkscape.org/namespaces/inkscape"
   version="1.1"
   id="Layer_1"
   x="0"
   y="0"
   width="200"
   height="30"
   viewBox="0 0 200 30"
   xml:space="preserve"
   sodipodi:docname="logo.svg"
   inkscape:version="0.92.2 (5c3e80d, 2017-08-06)"><metadata
     id="metadata11"><rdf:RDF><cc:Work
         rdf:about=""><dc:format>image/svg+xml</dc:format><dc:type
           rdf:resource="http://purl.org/dc/dcmitype/StillImage" /><dc:title></dc:title></cc:Work></rdf:RDF></metadata><defs
     id="defs9" /><sodipodi:namedview
     pagecolor="#ffffff"
     bordercolor="#666666"
     borderopacity="1"
     objecttolerance="10"
     gridtolerance="10"
     guidetolerance="10"
     inkscape:pageopacity="0"
     inkscape:pageshadow="2"
     inkscape:window-width="1920"
     inkscape:window-height="1017"
     id="namedview7"
     showgrid="false"
     inkscape:pagecheckerboard="true"
     inkscape:zoom="7.58"
     inkscape:cx="100"
     inkscape:cy="36.108179"
     inkscape:window-x="-8"
     inkscape:window-y="-8"
     inkscape:window-maximized="1"
     inkscape:current-layer="Layer_1" /><path
     fill-rule="evenodd"
     clip-rule="evenodd"
     fill="#FFF"
     d="M186.702 15.06c0 3.855 2.54 6.435 6.134 6.435 3.592 0 6.164-2.58 6.164-6.376 0-3.795-2.543-6.406-6.164-6.406-3.622-.001-6.134 2.61-6.134 6.347m9.845.058c0 3.826-1.287 5.754-3.652 5.754-2.6 0-3.769-2.046-3.769-6.109 0-3.648 1.139-5.428 3.769-5.428 2.72 0 3.652 1.957 3.652 5.783m-17.504-5.783c1.926 0 2.6 1.305 2.6 3.827 0 2.521-.906 3.766-2.716 3.766-1.783 0-2.514-1.186-2.514-3.766 0-2.552.643-3.827 2.63-3.827m3.68.801c-1.022-.949-2.248-1.423-3.71-1.423-2.893 0-4.761 1.839-4.761 4.419 0 1.78.787 2.995 2.453 4.003-1.694.357-2.569 1.276-2.569 2.493 0 2.105 2.364 2.165 5.695 2.46 2.63.238 3.943.949 3.943 2.492 0 1.839-1.752 3.114-4.265 3.114-3.01 0-4.762-1.246-4.762-2.965 0-.713.291-1.307.906-1.87-.089-.356-.293-.474-.644-.474-.759 0-1.488.919-1.488 2.166 0 2.194 2.103 3.767 6.018 3.767 3.737 0 5.783-1.811 5.783-4.451 0-2.521-1.752-3.648-5.288-3.973-3.007-.267-4.499-.09-4.499-1.217 0-.742.964-1.156 2.835-1.156h.466c3.068 0 4.968-1.69 4.968-4.39 0-.919-.205-1.69-.702-2.58.672-.535 1.168-.771 1.433-.771.438 0 .438 1.216 1.313 1.216.556 0 .904-.386.904-1.038 0-.653-.612-1.246-1.487-1.246-.789 0-1.491.535-2.542 1.424m-12.311-1.75a27.188 27.188 0 0 1-4.12.741v.535h.439c1.228 0 1.43.385 1.43 2.017v7.592c0 .743-.583 1.245-1.635 1.245-.146 0-.321 0-.495-.028v.592h6.279v-.592h-.292c-1.491 0-1.606-.653-1.606-2.137V8.386zm-1.227-6.193c-.82 0-1.46.653-1.46 1.485 0 .799.67 1.481 1.46 1.481.789 0 1.461-.653 1.461-1.481 0-.832-.643-1.485-1.461-1.485m-22.14-.807v.683h.086c1.986 0 2.336 1.009 3.214 3.056l6.923 16.371h1.023l5.941-16.342c.7-1.779 1.155-2.789 2.591-3.084v-.684h-4.875v.683c1.156.076 1.671.742 1.671 1.69 0 .415-.117.949-.351 1.542l-4.511 12.724-5.843-13.792c-.205-.505-.292-.89-.292-1.126 0-.683.526-1.039 1.519-1.039h.994v-.682h-8.09zm5.782 19.695v-.061c0-2.728-1.897-4.419-4.585-4.419-3.358 0-5.756 2.641-5.756 6.555 0 3.737 2.308 6.168 5.784 6.168 2.659 0 4.557-1.394 4.85-3.409h-.672c-.409 1.601-1.84 2.639-3.768 2.639-2.804 0-3.769-1.751-3.769-5.309 0-.683.031-1.394.058-2.165h7.858zm-2.365-.593h-5.433c.233-2.196 1.197-3.264 3.008-3.264 1.52 0 2.454.861 2.454 2.373 0 .148 0 .445-.029.891m-12.898-8.691v6.466c-1.314-1.157-2.367-1.691-3.828-1.691-3.389 0-5.812 2.552-5.812 6.526 0 3.706 2.249 6.258 5.403 6.258 1.635 0 3.009-.652 4.237-1.958 0 .622.086 1.275.261 1.958 1.14-.177 2.396-.356 3.769-.534v-.533c-.146 0-.262.03-.378.03-1.11 0-1.49-.654-1.49-2.226V8.505a26.106 26.106 0 0 1-4.061.741v.504h.408c1.257.001 1.491.444 1.491 2.047m-.03 7.415v7.325c-.993 1.305-2.19 1.958-3.505 1.958-2.134 0-3.653-1.869-3.653-5.309 0-3.797 1.665-5.872 3.828-5.872 1.14 0 2.308.622 3.33 1.898m-15.839-5.339v4.715c-1.49 1.187-2.718 1.781-3.595 1.781-1.05 0-1.722-.712-1.722-1.928.001-2.136 1.695-3.323 5.317-4.568m2.162-.772c0-2.668-.353-4.359-4.354-4.359-3.242 0-4.938 1.483-4.938 2.67 0 .594.352.949.876.949 1.023 0 1.052-1.038 1.229-1.631.263-.89 1.196-1.364 2.481-1.364 1.871 0 2.543.771 2.543 2.46v1.364c-5.142 1.988-7.684 3.53-7.684 5.844 0 1.512.965 2.521 2.57 2.521 1.519 0 3.155-.742 5.113-2.137.261 1.395 1.052 2.076 2.395 2.076 1.431 0 2.308-.918 2.308-2.432v-.148h-.407c-.206.949-.614 1.423-1.258 1.423-.729 0-.875-.503-.875-1.423v-5.813zm-15.589-9.163v6.465c-1.313-1.156-2.365-1.69-3.826-1.69-3.389 0-5.814 2.55-5.814 6.525 0 3.707 2.25 6.257 5.405 6.257 1.635 0 3.009-.651 4.235-1.957 0 .622.089 1.275.264 1.957 1.139-.177 2.396-.355 3.769-.533v-.534c-.146 0-.264.03-.379.03-1.111 0-1.49-.653-1.49-2.225V.645a25.938 25.938 0 0 1-4.062.741v.505h.411c1.255 0 1.487.445 1.487 2.047m-.029 7.414v7.325c-.993 1.307-2.191 1.958-3.505 1.958-2.132 0-3.651-1.869-3.651-5.309 0-3.797 1.666-5.872 3.826-5.872 1.139 0 2.308.622 3.33 1.898M95.144 8.386a27.242 27.242 0 0 1-4.119.741v.535h.438c1.228 0 1.433.385 1.433 2.017v7.592c0 .743-.584 1.245-1.638 1.245-.146 0-.32 0-.495-.028v.592h6.28v-.592h-.293c-1.49 0-1.607-.653-1.607-2.137V8.386zm-1.227-6.193c-.819 0-1.461.653-1.461 1.485 0 .799.672 1.481 1.461 1.481s1.46-.653 1.46-1.481c-.001-.832-.643-1.485-1.46-1.485m-6.365 6.519c-.147.445-.322.829-.614 1.158-.876-.801-1.723-1.128-2.833-1.128-2.16 0-3.476 1.394-3.476 3.203 0 1.245.701 2.312 2.045 3.115 1.198.712 2.571 1.067 3.623 1.958.613.533.905.979.905 1.69 0 1.246-.847 2.106-2.366 2.106-1.898 0-3.096-1.097-3.681-3.352h-.615v4.033h.614c.118-.475.293-.889.585-1.246 1.021.921 1.958 1.276 3.213 1.276 2.395 0 3.855-1.483 3.855-3.825 0-1.484-.875-2.64-2.599-3.53-2.162-1.099-4.061-1.424-4.061-3.055 0-1.008.789-1.75 2.074-1.75 1.548 0 2.572 1.037 3.331 3.203h.613V8.712h-.613zm-14.669-.326c-1.198.386-2.483.623-3.827.741v.535h.438c1.227 0 1.431.385 1.431 2.017v7.592c0 .713-.526 1.245-1.49 1.245-.117 0-.263 0-.379-.028v.592h6.164v-.592h-.408c-1.52 0-1.667-.653-1.667-2.137v-4.834c0-1.75 1.549-3.855 2.805-3.855.438 0 .759.326.878.919.115.593.437.89.991.89.584 0 1.023-.444 1.023-1.038 0-.95-.906-1.721-2.133-1.721-1.402 0-2.833 1.009-3.593 2.817.029-.325.058-.652.058-.978 0-.771-.115-1.482-.291-2.165m-5.615 4.834v-.059c0-2.729-1.899-4.42-4.586-4.42-3.358 0-5.753 2.641-5.753 6.555 0 3.737 2.307 6.169 5.783 6.169 2.658 0 4.557-1.394 4.85-3.411h-.673c-.409 1.602-1.84 2.641-3.769 2.641-2.804 0-3.768-1.75-3.768-5.309 0-.682.029-1.394.059-2.166h7.857zm-2.366-.593h-5.434c.233-2.194 1.198-3.262 3.009-3.262 1.518 0 2.454.859 2.454 2.372.001.149.001.446-.029.89M43.373 9.126v.625c.992.177 1.489.948 1.489 1.096 0 .091.176.386.467 1.039l4.294 9.609h.731l3.944-8.838c.759-1.75 1.432-2.699 2.337-2.906v-.625h-3.768v.625c.964.147 1.314.443 1.314 1.187 0 .236-.116.651-.321 1.157l-3.067 6.969-3.242-7.444c-.234-.534-.352-.861-.352-1.008 0-.652.439-.859 1.403-.859v-.627h-5.229zm-2.171-.74a27.198 27.198 0 0 1-4.119.741v.535h.438c1.228 0 1.431.385 1.431 2.017v7.592c0 .743-.584 1.245-1.636 1.245-.146 0-.32 0-.496-.028v.592h6.281v-.592h-.291c-1.491 0-1.607-.653-1.607-2.137V8.386zm-1.226-6.193c-.819 0-1.461.653-1.461 1.485 0 .799.672 1.481 1.461 1.481s1.461-.653 1.461-1.481c0-.832-.644-1.485-1.461-1.485m-14.11 16.159V12.36c0-.535 1.693-2.699 3.856-2.699 1.664 0 2.103.949 2.103 2.787v5.903c0 1.483-.118 2.137-1.578 2.137h-.292v.592h5.93v-.592h-.292c-1.49 0-1.607-.653-1.607-2.137v-5.695c0-2.61-1.168-3.944-3.505-3.944-1.724 0-3.389.859-4.615 2.492 0-.208.028-.416.028-.594 0-.801-.116-1.542-.292-2.225a17.644 17.644 0 0 1-3.769.741v.535h.438c1.227 0 1.431.385 1.431 2.017v7.592c0 .713-.525 1.245-1.489 1.245-.117 0-.264 0-.38-.028v.592h5.93v-.592h-.293c-1.487.001-1.604-.652-1.604-2.135M1 1.386v.713c2.804 0 2.98.651 2.98 2.812v10.246c0 4.027 2.833 6.337 7.654 6.337 5.141 0 7.799-2.459 7.799-7.255V4.911c0-1.658 1.023-2.665 2.776-2.812v-.713h-6.427v.713c1.986 0 2.834.857 2.834 2.812v9.328c0 4.175-2.572 6.306-6.515 6.306-1.841 0-3.33-.681-4.118-1.51-.876-.946-1.081-2.25-1.081-4.352V4.911c0-2.131.087-2.812 2.979-2.812v-.713H1z"
     id="path2" /><path
     fill="none"
     stroke="#FFF"
     stroke-width=".5"
     d="M186.702 15.06c0 3.855 2.54 6.435 6.134 6.435 3.592 0 6.164-2.58 6.164-6.376 0-3.795-2.543-6.406-6.164-6.406-3.622-.001-6.134 2.61-6.134 6.347m9.845.058c0 3.826-1.287 5.754-3.652 5.754-2.6 0-3.769-2.046-3.769-6.109 0-3.648 1.139-5.428 3.769-5.428 2.72 0 3.652 1.957 3.652 5.783m-17.504-5.783c1.926 0 2.6 1.305 2.6 3.827 0 2.521-.906 3.766-2.716 3.766-1.783 0-2.514-1.186-2.514-3.766 0-2.552.643-3.827 2.63-3.827m3.68.801c-1.022-.949-2.248-1.423-3.71-1.423-2.893 0-4.761 1.839-4.761 4.419 0 1.78.787 2.995 2.453 4.003-1.694.357-2.569 1.276-2.569 2.493 0 2.105 2.364 2.165 5.695 2.46 2.63.238 3.943.949 3.943 2.492 0 1.839-1.752 3.114-4.265 3.114-3.01 0-4.762-1.246-4.762-2.965 0-.713.291-1.307.906-1.87-.089-.356-.293-.474-.644-.474-.759 0-1.488.919-1.488 2.166 0 2.194 2.103 3.767 6.018 3.767 3.737 0 5.783-1.811 5.783-4.451 0-2.521-1.752-3.648-5.288-3.973-3.007-.267-4.499-.09-4.499-1.217 0-.742.964-1.156 2.835-1.156h.466c3.068 0 4.968-1.69 4.968-4.39 0-.919-.205-1.69-.702-2.58.672-.535 1.168-.771 1.433-.771.438 0 .438 1.216 1.313 1.216.556 0 .904-.386.904-1.038 0-.653-.612-1.246-1.487-1.246-.789 0-1.491.535-2.542 1.424m-12.311-1.75a27.188 27.188 0 0 1-4.12.741v.535h.439c1.228 0 1.43.385 1.43 2.017v7.592c0 .743-.583 1.245-1.635 1.245-.146 0-.321 0-.495-.028v.592h6.279v-.592h-.292c-1.491 0-1.606-.653-1.606-2.137V8.386zm-1.227-6.193c-.82 0-1.46.653-1.46 1.485 0 .799.67 1.481 1.46 1.481.789 0 1.461-.653 1.461-1.481 0-.832-.643-1.485-1.461-1.485m-22.14-.807v.683h.086c1.986 0 2.336 1.009 3.214 3.056l6.923 16.371h1.023l5.941-16.342c.7-1.779 1.155-2.789 2.591-3.084v-.684h-4.875v.683c1.156.076 1.671.742 1.671 1.69 0 .415-.117.949-.351 1.542l-4.511 12.724-5.843-13.792c-.205-.505-.292-.89-.292-1.126 0-.683.526-1.039 1.519-1.039h.994v-.682h-8.09zm5.782 19.695v-.061c0-2.728-1.897-4.419-4.585-4.419-3.358 0-5.756 2.641-5.756 6.555 0 3.737 2.308 6.168 5.784 6.168 2.659 0 4.557-1.394 4.85-3.409h-.672c-.409 1.601-1.84 2.639-3.768 2.639-2.804 0-3.769-1.751-3.769-5.309 0-.683.031-1.394.058-2.165h7.858zm-2.365-.593h-5.433c.233-2.196 1.197-3.264 3.008-3.264 1.52 0 2.454.861 2.454 2.373 0 .148 0 .445-.029.891m-12.898-8.691v6.466c-1.314-1.157-2.367-1.691-3.828-1.691-3.389 0-5.812 2.552-5.812 6.526 0 3.706 2.249 6.258 5.403 6.258 1.635 0 3.009-.652 4.237-1.958 0 .622.086 1.275.261 1.958 1.14-.177 2.396-.356 3.769-.534v-.533c-.146 0-.262.03-.378.03-1.11 0-1.49-.654-1.49-2.226V8.505a26.106 26.106 0 0 1-4.061.741v.504h.408c1.257.001 1.491.444 1.491 2.047m-.03 7.415v7.325c-.993 1.305-2.19 1.958-3.505 1.958-2.134 0-3.653-1.869-3.653-5.309 0-3.797 1.665-5.872 3.828-5.872 1.14 0 2.308.622 3.33 1.898m-15.839-5.339v4.715c-1.49 1.187-2.718 1.781-3.595 1.781-1.05 0-1.722-.712-1.722-1.928.001-2.136 1.695-3.323 5.317-4.568m2.162-.772c0-2.668-.353-4.359-4.354-4.359-3.242 0-4.938 1.483-4.938 2.67 0 .594.352.949.876.949 1.023 0 1.052-1.038 1.229-1.631.263-.89 1.196-1.364 2.481-1.364 1.871 0 2.543.771 2.543 2.46v1.364c-5.142 1.988-7.684 3.53-7.684 5.844 0 1.512.965 2.521 2.57 2.521 1.519 0 3.155-.742 5.113-2.137.261 1.395 1.052 2.076 2.395 2.076 1.431 0 2.308-.918 2.308-2.432v-.148h-.407c-.206.949-.614 1.423-1.258 1.423-.729 0-.875-.503-.875-1.423v-5.813zm-15.589-9.163v6.465c-1.313-1.156-2.365-1.69-3.826-1.69-3.389 0-5.814 2.55-5.814 6.525 0 3.707 2.25 6.257 5.405 6.257 1.635 0 3.009-.651 4.235-1.957 0 .622.089 1.275.264 1.957 1.139-.177 2.396-.355 3.769-.533v-.534c-.146 0-.264.03-.379.03-1.111 0-1.49-.653-1.49-2.225V.645a25.938 25.938 0 0 1-4.062.741v.505h.411c1.255 0 1.487.445 1.487 2.047m-.029 7.414v7.325c-.993 1.307-2.191 1.958-3.505 1.958-2.132 0-3.651-1.869-3.651-5.309 0-3.797 1.666-5.872 3.826-5.872 1.139 0 2.308.622 3.33 1.898M95.144 8.386a27.242 27.242 0 0 1-4.119.741v.535h.438c1.228 0 1.433.385 1.433 2.017v7.592c0 .743-.584 1.245-1.638 1.245-.146 0-.32 0-.495-.028v.592h6.28v-.592h-.293c-1.49 0-1.607-.653-1.607-2.137V8.386zm-1.227-6.193c-.819 0-1.461.653-1.461 1.485 0 .799.672 1.481 1.461 1.481s1.46-.653 1.46-1.481c-.001-.832-.643-1.485-1.46-1.485m-6.365 6.519c-.147.445-.322.829-.614 1.158-.876-.801-1.723-1.128-2.833-1.128-2.16 0-3.476 1.394-3.476 3.203 0 1.245.701 2.312 2.045 3.115 1.198.712 2.571 1.067 3.623 1.958.613.533.905.979.905 1.69 0 1.246-.847 2.106-2.366 2.106-1.898 0-3.096-1.097-3.681-3.352h-.615v4.033h.614c.118-.475.293-.889.585-1.246 1.021.921 1.958 1.276 3.213 1.276 2.395 0 3.855-1.483 3.855-3.825 0-1.484-.875-2.64-2.599-3.53-2.162-1.099-4.061-1.424-4.061-3.055 0-1.008.789-1.75 2.074-1.75 1.548 0 2.572 1.037 3.331 3.203h.613V8.712h-.613zm-14.669-.326c-1.198.386-2.483.623-3.827.741v.535h.438c1.227 0 1.431.385 1.431 2.017v7.592c0 .713-.526 1.245-1.49 1.245-.117 0-.263 0-.379-.028v.592h6.164v-.592h-.408c-1.52 0-1.667-.653-1.667-2.137v-4.834c0-1.75 1.549-3.855 2.805-3.855.438 0 .759.326.878.919.115.593.437.89.991.89.584 0 1.023-.444 1.023-1.038 0-.95-.906-1.721-2.133-1.721-1.402 0-2.833 1.009-3.593 2.817.029-.325.058-.652.058-.978 0-.771-.115-1.482-.291-2.165m-5.615 4.834v-.059c0-2.729-1.899-4.42-4.586-4.42-3.358 0-5.753 2.641-5.753 6.555 0 3.737 2.307 6.169 5.783 6.169 2.658 0 4.557-1.394 4.85-3.411h-.673c-.409 1.602-1.84 2.641-3.769 2.641-2.804 0-3.768-1.75-3.768-5.309 0-.682.029-1.394.059-2.166h7.857zm-2.366-.593h-5.434c.233-2.194 1.198-3.262 3.009-3.262 1.518 0 2.454.859 2.454 2.372.001.149.001.446-.029.89M43.373 9.126v.625c.992.177 1.489.948 1.489 1.096 0 .091.176.386.467 1.039l4.294 9.609h.731l3.944-8.838c.759-1.75 1.432-2.699 2.337-2.906v-.625h-3.768v.625c.964.147 1.314.443 1.314 1.187 0 .236-.116.651-.321 1.157l-3.067 6.969-3.242-7.444c-.234-.534-.352-.861-.352-1.008 0-.652.439-.859 1.403-.859v-.627h-5.229zm-2.171-.74a27.198 27.198 0 0 1-4.119.741v.535h.438c1.228 0 1.431.385 1.431 2.017v7.592c0 .743-.584 1.245-1.636 1.245-.146 0-.32 0-.496-.028v.592h6.281v-.592h-.291c-1.491 0-1.607-.653-1.607-2.137V8.386zm-1.226-6.193c-.819 0-1.461.653-1.461 1.485 0 .799.672 1.481 1.461 1.481s1.461-.653 1.461-1.481c0-.832-.644-1.485-1.461-1.485m-14.11 16.159V12.36c0-.535 1.693-2.699 3.856-2.699 1.664 0 2.103.949 2.103 2.787v5.903c0 1.483-.118 2.137-1.578 2.137h-.292v.592h5.93v-.592h-.292c-1.49 0-1.607-.653-1.607-2.137v-5.695c0-2.61-1.168-3.944-3.505-3.944-1.724 0-3.389.859-4.615 2.492 0-.208.028-.416.028-.594 0-.801-.116-1.542-.292-2.225a17.644 17.644 0 0 1-3.769.741v.535h.438c1.227 0 1.431.385 1.431 2.017v7.592c0 .713-.525 1.245-1.489 1.245-.117 0-.264 0-.38-.028v.592h5.93v-.592h-.293c-1.487.001-1.604-.652-1.604-2.135M1 1.386v.713c2.804 0 2.98.651 2.98 2.812v10.246c0 4.027 2.833 6.337 7.654 6.337 5.141 0 7.799-2.459 7.799-7.255V4.911c0-1.658 1.023-2.665 2.776-2.812v-.713h-6.427v.713c1.986 0 2.834.857 2.834 2.812v9.328c0 4.175-2.572 6.306-6.515 6.306-1.841 0-3.33-.681-4.118-1.51-.876-.946-1.081-2.25-1.081-4.352V4.911c0-2.131.087-2.812 2.979-2.812v-.713H1z"
     id="path4"
     style="fill:#000000;fill-opacity:1;stroke:#000000;stroke-opacity:0" /></svg>