<?xml version="1.0" encoding="utf-8"?>
<!-- Generator: $$$/GeneralStr/196=Adobe Illustrator 27.6.0, SVG Export Plug-In . SVG Version: 6.00 Build 0)  -->
<svg version="1.2" baseProfile="tiny"
	 id="Layer_1" xmlns:sodipodi="http://sodipodi.sourceforge.net/DTD/sodipodi-0.dtd" xmlns:dc="http://purl.org/dc/elements/1.1/" xmlns:svg="http://www.w3.org/2000/svg" xmlns:inkscape="http://www.inkscape.org/namespaces/inkscape" xmlns:cc="http://creativecommons.org/ns#" xmlns:rdf="http://www.w3.org/1999/02/22-rdf-syntax-ns#" inkscape:version="0.92.2 (5c3e80d, 2017-08-06)" sodipodi:docname="logo.svg"
	 xmlns="http://www.w3.org/2000/svg" xmlns:xlink="http://www.w3.org/1999/xlink" x="0px" y="0px" viewBox="0 0 200 30"
	 overflow="visible" xml:space="preserve">
<sodipodi:namedview  bordercolor="#666666" borderopacity="1" gridtolerance="10" guidetolerance="10" id="namedview7" inkscape:current-layer="Layer_1" inkscape:cx="100" inkscape:cy="36.108179" inkscape:pagecheckerboard="true" inkscape:pageopacity="0" inkscape:pageshadow="2" inkscape:window-height="1017" inkscape:window-maximized="1" inkscape:window-width="1920" inkscape:window-x="-8" inkscape:window-y="-8" inkscape:zoom="7.58" objecttolerance="10" pagecolor="#ffffff" showgrid="false">
	</sodipodi:namedview>
<path id="path2" fill-rule="evenodd" fill="#FFFFFF" d="M186.7,15.1c0,3.9,2.5,6.4,6.1,6.4c3.6,0,6.2-2.6,6.2-6.4
	c0-3.8-2.5-6.4-6.2-6.4C189.2,8.7,186.7,11.3,186.7,15.1 M196.5,15.1c0,3.8-1.3,5.8-3.7,5.8c-2.6,0-3.8-2-3.8-6.1
	c0-3.6,1.1-5.4,3.8-5.4C195.6,9.3,196.5,11.3,196.5,15.1 M179,9.3c1.9,0,2.6,1.3,2.6,3.8c0,2.5-0.9,3.8-2.7,3.8
	c-1.8,0-2.5-1.2-2.5-3.8C176.4,10.6,177.1,9.3,179,9.3 M182.7,10.1c-1-0.9-2.2-1.4-3.7-1.4c-2.9,0-4.8,1.8-4.8,4.4
	c0,1.8,0.8,3,2.5,4c-1.7,0.4-2.6,1.3-2.6,2.5c0,2.1,2.4,2.2,5.7,2.5c2.6,0.2,3.9,0.9,3.9,2.5c0,1.8-1.8,3.1-4.3,3.1
	c-3,0-4.8-1.2-4.8-3c0-0.7,0.3-1.3,0.9-1.9c-0.1-0.4-0.3-0.5-0.6-0.5c-0.8,0-1.5,0.9-1.5,2.2c0,2.2,2.1,3.8,6,3.8
	c3.7,0,5.8-1.8,5.8-4.5c0-2.5-1.8-3.6-5.3-4c-3-0.3-4.5-0.1-4.5-1.2c0-0.7,1-1.2,2.8-1.2h0.5c3.1,0,5-1.7,5-4.4
	c0-0.9-0.2-1.7-0.7-2.6c0.7-0.5,1.2-0.8,1.4-0.8c0.4,0,0.4,1.2,1.3,1.2c0.6,0,0.9-0.4,0.9-1c0-0.7-0.6-1.2-1.5-1.2
	C184.5,8.7,183.8,9.2,182.7,10.1 M170.4,8.4c-1.4,0.4-2.7,0.6-4.1,0.7v0.5h0.4c1.2,0,1.4,0.4,1.4,2v7.6c0,0.7-0.6,1.2-1.6,1.2
	c-0.1,0-0.3,0-0.5,0v0.6h6.3v-0.6H172c-1.5,0-1.6-0.7-1.6-2.1C170.4,18.4,170.4,8.4,170.4,8.4z M169.2,2.2c-0.8,0-1.5,0.7-1.5,1.5
	c0,0.8,0.7,1.5,1.5,1.5c0.8,0,1.5-0.7,1.5-1.5C170.6,2.8,170,2.2,169.2,2.2 M147,1.4v0.7h0.1c2,0,2.3,1,3.2,3.1l6.9,16.4h1l5.9-16.3
	c0.7-1.8,1.2-2.8,2.6-3.1V1.4h-4.9v0.7c1.2,0.1,1.7,0.7,1.7,1.7c0,0.4-0.1,0.9-0.4,1.5L158.8,18l-5.8-13.8c-0.2-0.5-0.3-0.9-0.3-1.1
	c0-0.7,0.5-1,1.5-1h1V1.4C155.1,1.4,147,1.4,147,1.4z M152.8,21.1L152.8,21.1c0-2.8-1.9-4.5-4.6-4.5c-3.4,0-5.8,2.6-5.8,6.6
	c0,3.7,2.3,6.2,5.8,6.2c2.7,0,4.6-1.4,4.9-3.4h-0.7c-0.4,1.6-1.8,2.6-3.8,2.6c-2.8,0-3.8-1.8-3.8-5.3c0-0.7,0-1.4,0.1-2.2
	L152.8,21.1L152.8,21.1z M150.5,20.5H145c0.2-2.2,1.2-3.3,3-3.3c1.5,0,2.5,0.9,2.5,2.4C150.5,19.7,150.5,20,150.5,20.5 M137.6,11.8
	v6.5c-1.3-1.2-2.4-1.7-3.8-1.7c-3.4,0-5.8,2.6-5.8,6.5c0,3.7,2.2,6.3,5.4,6.3c1.6,0,3-0.7,4.2-2c0,0.6,0.1,1.3,0.3,2
	c1.1-0.2,2.4-0.4,3.8-0.5v-0.5c-0.1,0-0.3,0-0.4,0c-1.1,0-1.5-0.7-1.5-2.2V8.5c-1.3,0.4-2.7,0.6-4.1,0.7v0.5h0.4
	C137.3,9.8,137.6,10.2,137.6,11.8 M137.5,19.2v7.3c-1,1.3-2.2,2-3.5,2c-2.1,0-3.7-1.9-3.7-5.3c0-3.8,1.7-5.9,3.8-5.9
	C135.3,17.3,136.5,17.9,137.5,19.2 M121.7,13.9v4.7c-1.5,1.2-2.7,1.8-3.6,1.8c-1.1,0-1.7-0.7-1.7-1.9
	C116.4,16.3,118.1,15.1,121.7,13.9 M123.9,13.1c0-2.7-0.4-4.4-4.4-4.4c-3.2,0-4.9,1.5-4.9,2.7c0,0.6,0.4,0.9,0.9,0.9
	c1,0,1.1-1,1.2-1.6c0.3-0.9,1.2-1.4,2.5-1.4c1.9,0,2.5,0.8,2.5,2.5v1.4c-5.1,2-7.7,3.5-7.7,5.8c0,1.5,1,2.5,2.6,2.5
	c1.5,0,3.2-0.7,5.1-2.1c0.3,1.4,1.1,2.1,2.4,2.1c1.4,0,2.3-0.9,2.3-2.4v-0.1H126c-0.2,0.9-0.6,1.4-1.3,1.4c-0.7,0-0.9-0.5-0.9-1.4
	L123.9,13.1L123.9,13.1z M108.3,3.9v6.5c-1.3-1.2-2.4-1.7-3.8-1.7c-3.4,0-5.8,2.6-5.8,6.5c0,3.7,2.2,6.3,5.4,6.3c1.6,0,3-0.7,4.2-2
	c0,0.6,0.1,1.3,0.3,2c1.1-0.2,2.4-0.4,3.8-0.5v-0.5c-0.1,0-0.3,0-0.4,0c-1.1,0-1.5-0.7-1.5-2.2V0.6c-1.3,0.4-2.7,0.6-4.1,0.7v0.5
	h0.4C108,1.9,108.3,2.3,108.3,3.9 M108.2,11.4v7.3c-1,1.3-2.2,2-3.5,2c-2.1,0-3.7-1.9-3.7-5.3c0-3.8,1.7-5.9,3.8-5.9
	C106,9.5,107.2,10.1,108.2,11.4 M95.1,8.4C93.8,8.7,92.4,9,91,9.1v0.5h0.4c1.2,0,1.4,0.4,1.4,2v7.6c0,0.7-0.6,1.2-1.6,1.2
	c-0.1,0-0.3,0-0.5,0v0.6H97v-0.6h-0.3c-1.5,0-1.6-0.7-1.6-2.1L95.1,8.4L95.1,8.4z M93.9,2.2c-0.8,0-1.5,0.7-1.5,1.5
	c0,0.8,0.7,1.5,1.5,1.5s1.5-0.7,1.5-1.5C95.4,2.8,94.7,2.2,93.9,2.2 M87.6,8.7c-0.1,0.4-0.3,0.8-0.6,1.2c-0.9-0.8-1.7-1.1-2.8-1.1
	c-2.2,0-3.5,1.4-3.5,3.2c0,1.2,0.7,2.3,2,3.1c1.2,0.7,2.6,1.1,3.6,2c0.6,0.5,0.9,1,0.9,1.7c0,1.2-0.8,2.1-2.4,2.1
	c-1.9,0-3.1-1.1-3.7-3.4h-0.6v4h0.6c0.1-0.5,0.3-0.9,0.6-1.2c1,0.9,2,1.3,3.2,1.3c2.4,0,3.9-1.5,3.9-3.8c0-1.5-0.9-2.6-2.6-3.5
	c-2.2-1.1-4.1-1.4-4.1-3.1c0-1,0.8-1.8,2.1-1.8c1.5,0,2.6,1,3.3,3.2h0.6V8.7C88.2,8.7,87.6,8.7,87.6,8.7z M72.9,8.4
	c-1.2,0.4-2.5,0.6-3.8,0.7v0.5h0.4c1.2,0,1.4,0.4,1.4,2v7.6c0,0.7-0.5,1.2-1.5,1.2c-0.1,0-0.3,0-0.4,0v0.6h6.2v-0.6h-0.4
	c-1.5,0-1.7-0.7-1.7-2.1v-4.8c0-1.8,1.5-3.9,2.8-3.9c0.4,0,0.8,0.3,0.9,0.9c0.1,0.6,0.4,0.9,1,0.9c0.6,0,1-0.4,1-1
	c0-0.9-0.9-1.7-2.1-1.7c-1.4,0-2.8,1-3.6,2.8c0-0.3,0.1-0.7,0.1-1C73.2,9.8,73.1,9.1,72.9,8.4 M67.3,13.2L67.3,13.2
	c0-2.8-1.9-4.5-4.6-4.5c-3.4,0-5.8,2.6-5.8,6.6c0,3.7,2.3,6.2,5.8,6.2c2.7,0,4.6-1.4,4.9-3.4h-0.7c-0.4,1.6-1.8,2.6-3.8,2.6
	c-2.8,0-3.8-1.8-3.8-5.3c0-0.7,0-1.4,0.1-2.2C59.4,13.2,67.3,13.2,67.3,13.2z M64.9,12.6h-5.4c0.2-2.2,1.2-3.3,3-3.3
	c1.5,0,2.5,0.9,2.5,2.4C64.9,11.9,64.9,12.2,64.9,12.6 M43.4,9.1v0.6c1,0.2,1.5,0.9,1.5,1.1c0,0.1,0.2,0.4,0.5,1l4.3,9.6h0.7
	l3.9-8.8c0.8-1.8,1.4-2.7,2.3-2.9V9.1h-3.8v0.6c1,0.1,1.3,0.4,1.3,1.2c0,0.2-0.1,0.7-0.3,1.2l-3.1,7l-3.2-7.4
	c-0.2-0.5-0.4-0.9-0.4-1c0-0.7,0.4-0.9,1.4-0.9V9.1L43.4,9.1L43.4,9.1z M41.2,8.4c-1.4,0.4-2.7,0.6-4.1,0.7v0.5h0.4
	c1.2,0,1.4,0.4,1.4,2v7.6c0,0.7-0.6,1.2-1.6,1.2c-0.1,0-0.3,0-0.5,0v0.6h6.3v-0.6h-0.3c-1.5,0-1.6-0.7-1.6-2.1L41.2,8.4L41.2,8.4z
	 M40,2.2c-0.8,0-1.5,0.7-1.5,1.5c0,0.8,0.7,1.5,1.5,1.5s1.5-0.7,1.5-1.5C41.4,2.8,40.8,2.2,40,2.2 M25.9,18.4v-6
	c0-0.5,1.7-2.7,3.9-2.7c1.7,0,2.1,0.9,2.1,2.8v5.9c0,1.5-0.1,2.1-1.6,2.1H30v0.6h5.9v-0.6h-0.3c-1.5,0-1.6-0.7-1.6-2.1v-5.7
	c0-2.6-1.2-3.9-3.5-3.9c-1.7,0-3.4,0.9-4.6,2.5c0-0.2,0-0.4,0-0.6c0-0.8-0.1-1.5-0.3-2.2c-1.2,0.4-2.5,0.6-3.8,0.7v0.5h0.4
	c1.2,0,1.4,0.4,1.4,2v7.6c0,0.7-0.5,1.2-1.5,1.2c-0.1,0-0.3,0-0.4,0v0.6h5.9v-0.6h-0.3C26,20.5,25.9,19.8,25.9,18.4 M1,1.4v0.7
	c2.8,0,3,0.7,3,2.8v10.2c0,4,2.8,6.3,7.7,6.3c5.1,0,7.8-2.5,7.8-7.3V4.9c0-1.7,1-2.7,2.8-2.8V1.4h-6.4v0.7c2,0,2.8,0.9,2.8,2.8v9.3
	c0,4.2-2.6,6.3-6.5,6.3c-1.8,0-3.3-0.7-4.1-1.5c-0.9-0.9-1.1-2.2-1.1-4.4V4.9c0-2.1,0.1-2.8,3-2.8V1.4C9.9,1.4,1,1.4,1,1.4z"/>
<path id="path4" fill="#FFFFFF" stroke="#000000" stroke-width="0.5" stroke-opacity="0" d="M186.7,15.1c0,3.9,2.5,6.4,6.1,6.4
	c3.6,0,6.2-2.6,6.2-6.4c0-3.8-2.5-6.4-6.2-6.4C189.2,8.7,186.7,11.3,186.7,15.1 M196.5,15.1c0,3.8-1.3,5.8-3.7,5.8
	c-2.6,0-3.8-2-3.8-6.1c0-3.6,1.1-5.4,3.8-5.4C195.6,9.3,196.5,11.3,196.5,15.1 M179,9.3c1.9,0,2.6,1.3,2.6,3.8
	c0,2.5-0.9,3.8-2.7,3.8c-1.8,0-2.5-1.2-2.5-3.8C176.4,10.6,177.1,9.3,179,9.3 M182.7,10.1c-1-0.9-2.2-1.4-3.7-1.4
	c-2.9,0-4.8,1.8-4.8,4.4c0,1.8,0.8,3,2.5,4c-1.7,0.4-2.6,1.3-2.6,2.5c0,2.1,2.4,2.2,5.7,2.5c2.6,0.2,3.9,0.9,3.9,2.5
	c0,1.8-1.8,3.1-4.3,3.1c-3,0-4.8-1.2-4.8-3c0-0.7,0.3-1.3,0.9-1.9c-0.1-0.4-0.3-0.5-0.6-0.5c-0.8,0-1.5,0.9-1.5,2.2
	c0,2.2,2.1,3.8,6,3.8c3.7,0,5.8-1.8,5.8-4.5c0-2.5-1.8-3.6-5.3-4c-3-0.3-4.5-0.1-4.5-1.2c0-0.7,1-1.2,2.8-1.2h0.5c3.1,0,5-1.7,5-4.4
	c0-0.9-0.2-1.7-0.7-2.6c0.7-0.5,1.2-0.8,1.4-0.8c0.4,0,0.4,1.2,1.3,1.2c0.6,0,0.9-0.4,0.9-1c0-0.7-0.6-1.2-1.5-1.2
	C184.5,8.7,183.8,9.2,182.7,10.1 M170.4,8.4c-1.4,0.4-2.7,0.6-4.1,0.7v0.5h0.4c1.2,0,1.4,0.4,1.4,2v7.6c0,0.7-0.6,1.2-1.6,1.2
	c-0.1,0-0.3,0-0.5,0v0.6h6.3v-0.6H172c-1.5,0-1.6-0.7-1.6-2.1C170.4,18.4,170.4,8.4,170.4,8.4z M169.2,2.2c-0.8,0-1.5,0.7-1.5,1.5
	c0,0.8,0.7,1.5,1.5,1.5c0.8,0,1.5-0.7,1.5-1.5C170.6,2.8,170,2.2,169.2,2.2 M147,1.4v0.7h0.1c2,0,2.3,1,3.2,3.1l6.9,16.4h1l5.9-16.3
	c0.7-1.8,1.2-2.8,2.6-3.1V1.4h-4.9v0.7c1.2,0.1,1.7,0.7,1.7,1.7c0,0.4-0.1,0.9-0.4,1.5L158.8,18l-5.8-13.8c-0.2-0.5-0.3-0.9-0.3-1.1
	c0-0.7,0.5-1,1.5-1h1V1.4C155.1,1.4,147,1.4,147,1.4z M152.8,21.1L152.8,21.1c0-2.8-1.9-4.5-4.6-4.5c-3.4,0-5.8,2.6-5.8,6.6
	c0,3.7,2.3,6.2,5.8,6.2c2.7,0,4.6-1.4,4.9-3.4h-0.7c-0.4,1.6-1.8,2.6-3.8,2.6c-2.8,0-3.8-1.8-3.8-5.3c0-0.7,0-1.4,0.1-2.2
	L152.8,21.1L152.8,21.1z M150.5,20.5H145c0.2-2.2,1.2-3.3,3-3.3c1.5,0,2.5,0.9,2.5,2.4C150.5,19.7,150.5,20,150.5,20.5 M137.6,11.8
	v6.5c-1.3-1.2-2.4-1.7-3.8-1.7c-3.4,0-5.8,2.6-5.8,6.5c0,3.7,2.2,6.3,5.4,6.3c1.6,0,3-0.7,4.2-2c0,0.6,0.1,1.3,0.3,2
	c1.1-0.2,2.4-0.4,3.8-0.5v-0.5c-0.1,0-0.3,0-0.4,0c-1.1,0-1.5-0.7-1.5-2.2V8.5c-1.3,0.4-2.7,0.6-4.1,0.7v0.5h0.4
	C137.3,9.8,137.6,10.2,137.6,11.8 M137.5,19.2v7.3c-1,1.3-2.2,2-3.5,2c-2.1,0-3.7-1.9-3.7-5.3c0-3.8,1.7-5.9,3.8-5.9
	C135.3,17.3,136.5,17.9,137.5,19.2 M121.7,13.9v4.7c-1.5,1.2-2.7,1.8-3.6,1.8c-1.1,0-1.7-0.7-1.7-1.9
	C116.4,16.3,118.1,15.1,121.7,13.9 M123.9,13.1c0-2.7-0.4-4.4-4.4-4.4c-3.2,0-4.9,1.5-4.9,2.7c0,0.6,0.4,0.9,0.9,0.9
	c1,0,1.1-1,1.2-1.6c0.3-0.9,1.2-1.4,2.5-1.4c1.9,0,2.5,0.8,2.5,2.5v1.4c-5.1,2-7.7,3.5-7.7,5.8c0,1.5,1,2.5,2.6,2.5
	c1.5,0,3.2-0.7,5.1-2.1c0.3,1.4,1.1,2.1,2.4,2.1c1.4,0,2.3-0.9,2.3-2.4v-0.1H126c-0.2,0.9-0.6,1.4-1.3,1.4c-0.7,0-0.9-0.5-0.9-1.4
	L123.9,13.1L123.9,13.1z M108.3,3.9v6.5c-1.3-1.2-2.4-1.7-3.8-1.7c-3.4,0-5.8,2.6-5.8,6.5c0,3.7,2.2,6.3,5.4,6.3c1.6,0,3-0.7,4.2-2
	c0,0.6,0.1,1.3,0.3,2c1.1-0.2,2.4-0.4,3.8-0.5v-0.5c-0.1,0-0.3,0-0.4,0c-1.1,0-1.5-0.7-1.5-2.2V0.6c-1.3,0.4-2.7,0.6-4.1,0.7v0.5
	h0.4C108,1.9,108.3,2.3,108.3,3.9 M108.2,11.4v7.3c-1,1.3-2.2,2-3.5,2c-2.1,0-3.7-1.9-3.7-5.3c0-3.8,1.7-5.9,3.8-5.9
	C106,9.5,107.2,10.1,108.2,11.4 M95.1,8.4C93.8,8.7,92.4,9,91,9.1v0.5h0.4c1.2,0,1.4,0.4,1.4,2v7.6c0,0.7-0.6,1.2-1.6,1.2
	c-0.1,0-0.3,0-0.5,0v0.6H97v-0.6h-0.3c-1.5,0-1.6-0.7-1.6-2.1L95.1,8.4L95.1,8.4z M93.9,2.2c-0.8,0-1.5,0.7-1.5,1.5
	c0,0.8,0.7,1.5,1.5,1.5s1.5-0.7,1.5-1.5C95.4,2.8,94.7,2.2,93.9,2.2 M87.6,8.7c-0.1,0.4-0.3,0.8-0.6,1.2c-0.9-0.8-1.7-1.1-2.8-1.1
	c-2.2,0-3.5,1.4-3.5,3.2c0,1.2,0.7,2.3,2,3.1c1.2,0.7,2.6,1.1,3.6,2c0.6,0.5,0.9,1,0.9,1.7c0,1.2-0.8,2.1-2.4,2.1
	c-1.9,0-3.1-1.1-3.7-3.4h-0.6v4h0.6c0.1-0.5,0.3-0.9,0.6-1.2c1,0.9,2,1.3,3.2,1.3c2.4,0,3.9-1.5,3.9-3.8c0-1.5-0.9-2.6-2.6-3.5
	c-2.2-1.1-4.1-1.4-4.1-3.1c0-1,0.8-1.8,2.1-1.8c1.5,0,2.6,1,3.3,3.2h0.6V8.7C88.2,8.7,87.6,8.7,87.6,8.7z M72.9,8.4
	c-1.2,0.4-2.5,0.6-3.8,0.7v0.5h0.4c1.2,0,1.4,0.4,1.4,2v7.6c0,0.7-0.5,1.2-1.5,1.2c-0.1,0-0.3,0-0.4,0v0.6h6.2v-0.6h-0.4
	c-1.5,0-1.7-0.7-1.7-2.1v-4.8c0-1.8,1.5-3.9,2.8-3.9c0.4,0,0.8,0.3,0.9,0.9c0.1,0.6,0.4,0.9,1,0.9c0.6,0,1-0.4,1-1
	c0-0.9-0.9-1.7-2.1-1.7c-1.4,0-2.8,1-3.6,2.8c0-0.3,0.1-0.7,0.1-1C73.2,9.8,73.1,9.1,72.9,8.4 M67.3,13.2L67.3,13.2
	c0-2.8-1.9-4.5-4.6-4.5c-3.4,0-5.8,2.6-5.8,6.6c0,3.7,2.3,6.2,5.8,6.2c2.7,0,4.6-1.4,4.9-3.4h-0.7c-0.4,1.6-1.8,2.6-3.8,2.6
	c-2.8,0-3.8-1.8-3.8-5.3c0-0.7,0-1.4,0.1-2.2C59.4,13.2,67.3,13.2,67.3,13.2z M64.9,12.6h-5.4c0.2-2.2,1.2-3.3,3-3.3
	c1.5,0,2.5,0.9,2.5,2.4C64.9,11.9,64.9,12.2,64.9,12.6 M43.4,9.1v0.6c1,0.2,1.5,0.9,1.5,1.1c0,0.1,0.2,0.4,0.5,1l4.3,9.6h0.7
	l3.9-8.8c0.8-1.8,1.4-2.7,2.3-2.9V9.1h-3.8v0.6c1,0.1,1.3,0.4,1.3,1.2c0,0.2-0.1,0.7-0.3,1.2l-3.1,7l-3.2-7.4
	c-0.2-0.5-0.4-0.9-0.4-1c0-0.7,0.4-0.9,1.4-0.9V9.1L43.4,9.1L43.4,9.1z M41.2,8.4c-1.4,0.4-2.7,0.6-4.1,0.7v0.5h0.4
	c1.2,0,1.4,0.4,1.4,2v7.6c0,0.7-0.6,1.2-1.6,1.2c-0.1,0-0.3,0-0.5,0v0.6h6.3v-0.6h-0.3c-1.5,0-1.6-0.7-1.6-2.1L41.2,8.4L41.2,8.4z
	 M40,2.2c-0.8,0-1.5,0.7-1.5,1.5c0,0.8,0.7,1.5,1.5,1.5s1.5-0.7,1.5-1.5C41.4,2.8,40.8,2.2,40,2.2 M25.9,18.4v-6
	c0-0.5,1.7-2.7,3.9-2.7c1.7,0,2.1,0.9,2.1,2.8v5.9c0,1.5-0.1,2.1-1.6,2.1H30v0.6h5.9v-0.6h-0.3c-1.5,0-1.6-0.7-1.6-2.1v-5.7
	c0-2.6-1.2-3.9-3.5-3.9c-1.7,0-3.4,0.9-4.6,2.5c0-0.2,0-0.4,0-0.6c0-0.8-0.1-1.5-0.3-2.2c-1.2,0.4-2.5,0.6-3.8,0.7v0.5h0.4
	c1.2,0,1.4,0.4,1.4,2v7.6c0,0.7-0.5,1.2-1.5,1.2c-0.1,0-0.3,0-0.4,0v0.6h5.9v-0.6h-0.3C26,20.5,25.9,19.8,25.9,18.4 M1,1.4v0.7
	c2.8,0,3,0.7,3,2.8v10.2c0,4,2.8,6.3,7.7,6.3c5.1,0,7.8-2.5,7.8-7.3V4.9c0-1.7,1-2.7,2.8-2.8V1.4h-6.4v0.7c2,0,2.8,0.9,2.8,2.8v9.3
	c0,4.2-2.6,6.3-6.5,6.3c-1.8,0-3.3-0.7-4.1-1.5c-0.9-0.9-1.1-2.2-1.1-4.4V4.9c0-2.1,0.1-2.8,3-2.8V1.4C9.9,1.4,1,1.4,1,1.4z"/>
</svg>
